<svg xmlns="http://www.w3.org/2000/svg" xmlns:xlink="http://www.w3.org/1999/xlink" viewBox="0 0 400 400"><defs><style>.cls-1{fill:url(#Dégradé_sans_nom_27);}.cls-2{fill:#911d22;}.cls-3{fill:#cd5257;}</style><linearGradient id="Dégradé_sans_nom_27" x2="400" y2="400" gradientUnits="userSpaceOnUse"><stop offset="0" stop-color="#c1272d"/><stop offset="0.16" stop-color="#c43036"/><stop offset="0.43" stop-color="#cb4a4f"/><stop offset="0.5" stop-color="#cd5257"/><stop offset="0.99" stop-color="#911d22"/></linearGradient></defs><g id="Calque_2" data-name="Calque 2"><g id="Calque_1-2" data-name="Calque 1"><rect class="cls-1" width="400" height="400"/><path class="cls-2" d="M200.13,118c.42-.35.94-.71,1.39-1.15C239.05,80.81,299.11,98.34,311.79,149c4.24,17,.77,32.83-6.54,48.18-8.09,17-19.56,31.62-32.3,45.29-20.23,21.72-43,40.54-67.25,57.56-3.51,2.46-7,3-10.66.49-29.23-20.47-56.42-43.25-79.21-70.91-10.64-12.92-19.58-26.87-25.38-42.73-14.58-39.88,11.9-80.19,47.77-87.57,22.67-4.66,42.8,1.11,59.8,17.09.47.45.94.92,1.43,1.35A2.39,2.39,0,0,0,200.13,118Zm-96.82,43c1,4.74,1.67,9.54,2.9,14.21a5.38,5.38,0,0,0,6.87,3.74c2.81-.82,4.33-3.42,3.84-6.61a15,15,0,0,0-.39-1.64,35.41,35.41,0,0,1,15.31-39.49c8.83-5.6,18.32-6.58,28.29-3.72.54.15,1.06.35,1.6.52,3.76,1.15,6.84-.11,7.84-3.22,1.05-3.27-.51-6.06-4.15-7.41C136.12,106.56,103.87,129.37,103.31,161.06Z"/><path class="cls-3" d="M103.31,161.06c.56-31.69,32.81-54.5,62.11-43.62,3.64,1.35,5.2,4.14,4.15,7.41-1,3.11-4.08,4.37-7.84,3.22-.54-.17-1.06-.37-1.6-.52-10-2.86-19.46-1.88-28.29,3.72a35.41,35.41,0,0,0-15.31,39.49,15,15,0,0,1,.39,1.64c.49,3.19-1,5.79-3.84,6.61a5.38,5.38,0,0,1-6.87-3.74C105,170.6,104.26,165.8,103.31,161.06Z"/></g></g></svg>
