<svg xmlns="http://www.w3.org/2000/svg" viewBox="0 0 400 400"><defs><style>.cls-1{fill:#8d5335;}.cls-2{fill:#dcb48c;}.cls-3{fill:#3d2115;}.cls-4{fill:#fff;}.cls-5{fill:#663b2e;}.cls-6{fill:none;}</style></defs><g id="Calque_2" data-name="Calque 2"><g id="Calque_1-2" data-name="Calque 1"><path class="cls-1" d="M24.23,146.67c12.72,19.48,42.82,23.42,67.23,8.81s33.9-42.25,21.18-61.73S63.74,54,30.7,80.33C13,94.48,11.51,127.19,24.23,146.67Z"/><path class="cls-2" d="M40.4,142.17C48.77,155,68.56,157.57,84.6,148s22.27-27.76,13.92-40.57-29.38-29.2-53.86-8.82C33.21,108.1,32.05,129.37,40.4,142.17Z"/><path class="cls-1" d="M371.38,151.68c-15.23,17.75-45.6,18-67.86.48s-28-46.06-12.74-63.81,53.82-33.47,83.06-3.27C389.53,101.3,386.6,133.91,371.38,151.68Z"/><path class="cls-2" d="M355.93,145.23c-10,11.67-30,11.81-44.6.32S293,115.28,303,103.61s33.05-25.36,54.6-2.15C367.64,112.32,365.94,133.55,355.93,145.23Z"/><path class="cls-1" d="M365.74,221.32c0,51-32,121.49-165.67,121.49S34.4,273.13,34.4,221.32c0-77.66,74.18-130.95,165.67-130.95S365.74,143.66,365.74,221.32Z"/><path class="cls-3" d="M107.83,217.08a7.78,7.78,0,1,1-7.77-7.44A7.61,7.61,0,0,1,107.83,217.08Z"/><path class="cls-4" d="M105.85,214.11a2.52,2.52,0,1,1-2.51-2.42A2.46,2.46,0,0,1,105.85,214.11Z"/><path class="cls-3" d="M107.78,210.94a10,10,0,0,0-6.21-2.12,16.21,16.21,0,0,0-3.26.3,11.62,11.62,0,0,0-3,.95,32.38,32.38,0,0,0-2.94,1.62,14,14,0,0,1-3.45,1.57,7.59,7.59,0,0,1-3.93,0,10,10,0,0,1-3.3-1.6c2.38.5,4.7.68,6.56-.22s3.56-2.52,5.93-3.62a11.93,11.93,0,0,1,3.76-1,13.81,13.81,0,0,1,3.85.08C104.31,207.28,106.83,208.74,107.78,210.94Z"/><path class="cls-3" d="M85.2,209.64a12.83,12.83,0,0,0,4.42.19A23.4,23.4,0,0,0,94,208.67a6.19,6.19,0,0,1-4.15,2.38,6.12,6.12,0,0,1-2.52-.18A4.4,4.4,0,0,1,85.2,209.64Z"/><path class="cls-3" d="M87.69,208a9,9,0,0,0,2.29.14c.74,0,1.48-.1,2.23-.19,1.49-.16,3-.45,4.63-.49a9.52,9.52,0,0,1-4.48,1.71,8.13,8.13,0,0,1-2.46-.08A3.87,3.87,0,0,1,87.69,208Z"/><path class="cls-3" d="M292.32,217.08a7.78,7.78,0,1,0,7.77-7.44A7.61,7.61,0,0,0,292.32,217.08Z"/><path class="cls-4" d="M294.3,214.11a2.52,2.52,0,1,0,2.52-2.42A2.46,2.46,0,0,0,294.3,214.11Z"/><path class="cls-3" d="M292.35,210.94c1-2.2,3.48-3.66,6-4.06a13.74,13.74,0,0,1,3.84-.08,12.06,12.06,0,0,1,3.77,1c2.37,1.1,4,2.79,5.92,3.62s4.19.72,6.56.22a10,10,0,0,1-3.31,1.6,7.56,7.56,0,0,1-3.92,0,14,14,0,0,1-3.45-1.57c-1-.6-2-1.18-2.93-1.62a11.69,11.69,0,0,0-3-.95,16.25,16.25,0,0,0-3.25-.3A10.1,10.1,0,0,0,292.35,210.94Z"/><path class="cls-3" d="M315,209.64a4.38,4.38,0,0,1-2.1,1.23,6.29,6.29,0,0,1-6.67-2.2,23.52,23.52,0,0,0,4.33,1.16A12.93,12.93,0,0,0,315,209.64Z"/><path class="cls-3" d="M312.45,208a3.88,3.88,0,0,1-2.2,1.09,8.2,8.2,0,0,1-2.47.08,9.56,9.56,0,0,1-4.48-1.71c1.64,0,3.14.33,4.63.49.75.09,1.5.15,2.23.19A9,9,0,0,0,312.45,208Z"/><path class="cls-2" d="M269.67,255.18c-16.74-44.84-118.74-50.92-139.35,0-11.79,29.14,16,54.3,37.56,56.67,27.19,3,31.3-8.37,32.12-17.49.82,9.12,6.88,23,33.36,16.37C259.41,304.24,280.66,284.61,269.67,255.18Z"/><path class="cls-3" d="M226.69,287.62a1.52,1.52,0,1,1,0,3A1.52,1.52,0,1,1,226.69,287.62Z"/><path class="cls-3" d="M219,289.14a1.51,1.51,0,1,1,0,3A1.51,1.51,0,1,1,219,289.14Z"/><path class="cls-3" d="M215.41,294.32a1.52,1.52,0,1,1,0,3A1.52,1.52,0,1,1,215.41,294.32Z"/><path class="cls-3" d="M224.17,295.07a1.52,1.52,0,1,1,0,3A1.52,1.52,0,1,1,224.17,295.07Z"/><path class="cls-3" d="M231.27,292a1.52,1.52,0,1,1,0,3A1.52,1.52,0,1,1,231.27,292Z"/><path class="cls-3" d="M199.64,283.65c.19,3.67.94,7.3.85,11s-.91,7.78-3.66,10.63a22.26,22.26,0,0,1-9.71,5.84,37.48,37.48,0,0,1-11.1,1.71,50.85,50.85,0,0,1-21.74-4.65,42.1,42.1,0,0,1-17.05-13.9A46.16,46.16,0,0,0,154.8,307,52.73,52.73,0,0,0,176,311.13a40.57,40.57,0,0,0,10.63-1.59,20.55,20.55,0,0,0,9.07-5.26,15.11,15.11,0,0,0,3.75-9.63C199.68,291,199.49,287.33,199.64,283.65Z"/><path class="cls-3" d="M200.25,283.65c.15,3.68,0,7.39.2,11a15,15,0,0,0,3.76,9.63,20.55,20.55,0,0,0,9.07,5.26,40.46,40.46,0,0,0,10.64,1.59A52.67,52.67,0,0,0,245.09,307a46.19,46.19,0,0,0,17.58-12.72,42.08,42.08,0,0,1-17.05,13.9,50.85,50.85,0,0,1-21.74,4.65,37.54,37.54,0,0,1-11.11-1.71,22.31,22.31,0,0,1-9.71-5.84c-2.75-2.84-3.68-6.95-3.66-10.63S200.07,287.33,200.25,283.65Z"/><path class="cls-3" d="M173.35,287.62a1.52,1.52,0,1,0,0,3A1.52,1.52,0,1,0,173.35,287.62Z"/><path class="cls-3" d="M181.1,289.14a1.51,1.51,0,1,0,0,3A1.51,1.51,0,1,0,181.1,289.14Z"/><path class="cls-3" d="M184.65,294.32a1.52,1.52,0,1,0,0,3A1.52,1.52,0,1,0,184.65,294.32Z"/><path class="cls-3" d="M175.88,295.07a1.52,1.52,0,1,0,0,3A1.52,1.52,0,1,0,175.88,295.07Z"/><path class="cls-3" d="M168.77,292a1.52,1.52,0,1,0,0,3A1.52,1.52,0,1,0,168.77,292Z"/><path class="cls-3" d="M234.65,257.69c0,12.12-15.67,31.21-35,31.21s-35-19.09-35-31.21,15.68-14.91,35-14.91S234.65,245.57,234.65,257.69Z"/><path class="cls-5" d="M173.48,254.34c-6.7,6.67.85,25,10.53,18.1a20.8,20.8,0,0,0,5.75-6.46c2.79-4.46,6.45-6.44,11.65-7.52,3.61-.75,11.4-1.36,11.18-6.51C212.29,244.68,182.35,245.51,173.48,254.34Z"/><rect class="cls-6" width="400" height="400"/></g></g></svg>