<svg xmlns="http://www.w3.org/2000/svg" viewBox="0 0 400 400"><defs><style>.cls-1{isolation:isolate;}.cls-2{fill:#939e9e;}.cls-3{fill:#7a8180;}.cls-4{fill:#9ca8a7;}.cls-5{fill:#5e6766;}.cls-6{fill:#fffcfd;}.cls-7{fill:#232827;}.cls-11,.cls-8{fill:none;}.cls-8{stroke:#656e6d;stroke-linecap:round;stroke-linejoin:round;stroke-width:0.64px;mix-blend-mode:multiply;}.cls-9{fill:#d16f86;}.cls-10{fill:#656e6d;}</style></defs><g class="cls-1"><g id="Calque_2" data-name="Calque 2"><g id="Calque_1-2" data-name="Calque 1"><path class="cls-2" d="M343,95.43c-47.44-13.92-77.69,14.81-97,35.9,38.39,16.24,49.54,57.1,49.54,93.8a50.34,50.34,0,0,1-10.19,30.52C375.56,296.33,440.49,124,343,95.43Z"/><path class="cls-3" d="M329.63,117.86c-26.52-7-51.06,6.55-68.85,21.85,26.54,19.45,34.76,54,34.76,85.42a49.88,49.88,0,0,1-8.28,27.74C362.15,283.39,411.22,139.38,329.63,117.86Z"/><path class="cls-2" d="M54.91,96.61c46.76-13.71,76.57,14.6,95.58,35.38-37.83,16-48.82,56.27-48.82,92.44a49.56,49.56,0,0,0,10,30.07C22.81,294.6-41.17,124.79,54.91,96.61Z"/><path class="cls-3" d="M68.07,118.72c26.14-6.9,50.32,6.45,67.85,21.53-26.16,19.16-34.25,53.17-34.25,84.18a49.31,49.31,0,0,0,8.15,27.34C36,281.84-12.32,139.92,68.07,118.72Z"/><path class="cls-4" d="M355.29,319.79c1-3.64,2.53-12.35-2.15-14.87-5.49-3-6.73,1.95-9.48,2.49-14,2.65-28.94-14.39-48.45-34a31.26,31.26,0,0,0,2.51-4.51,96.91,96.91,0,0,0,8.13-20.12C320.42,196.34,322,111.29,198.29,111.29S74.12,194.79,90.71,248.76c13.36,43.48,52.11,68.46,84.51,76.83,3.9,6.7,12,14.86,28.25,13.51,15.9-1.32,22.56-9.27,25.36-15.57A124.8,124.8,0,0,0,251,313.26a72.12,72.12,0,0,1,14.62-2.64c40.38-3.21,36.55,33.18,79.55,15.24,0,0,1.71,6.73,6.69,4.27C357.84,327.2,354.23,323.44,355.29,319.79Z"/><path class="cls-5" d="M196.78,321.75a80.64,80.64,0,0,1-12.68-2.24c1.52,4,6.13,12.1,18.57,11.07,9.32-.78,13.42-5.28,15.24-9.05A83.13,83.13,0,0,1,196.78,321.75Z"/><path class="cls-6" d="M144.32,237.85a9.73,9.73,0,1,1-9.73-9.3A9.53,9.53,0,0,1,144.32,237.85Z"/><path class="cls-7" d="M134.43,234.12a4.93,4.93,0,0,0-5.29,5.07,5.29,5.29,0,1,0,5.29-5.07Zm-2.71,7.15a.94.94,0,1,1,0-1.88.94.94,0,1,1,0,1.88Zm.93-2.3a1.86,1.86,0,1,1,1.94-1.85A1.9,1.9,0,0,1,132.65,239Z"/><path class="cls-8" d="M120.4,227.9c.92-5.09,6.21-8.21,12.42-6.11"/><path class="cls-6" d="M261.05,237.85a9.73,9.73,0,1,0,9.73-9.3A9.53,9.53,0,0,0,261.05,237.85Z"/><path class="cls-7" d="M265.65,239.19a5.29,5.29,0,0,0,10.58,0,4.94,4.94,0,0,0-5.3-5.07A5.18,5.18,0,0,0,265.65,239.19Zm7,1.14a1,1,0,1,1,1,.94A1,1,0,0,1,272.66,240.33Zm-1.88-3.21a1.94,1.94,0,1,1,1.93,1.85A1.89,1.89,0,0,1,270.78,237.12Z"/><path class="cls-8" d="M285,227.9c-.91-5.09-6.22-8.21-12.42-6.11"/><path class="cls-9" d="M201.4,325.24a11.41,11.41,0,0,0-11.92,1.84c2.9,2.32,7.09,4,13.19,3.5a21,21,0,0,0,10.16-3.25C206.7,320.38,201.4,325.24,201.4,325.24Z"/><path class="cls-10" d="M206.78,248.06a47.15,47.15,0,0,1,19-6.44,39.35,39.35,0,0,1,10.17.14,25.54,25.54,0,0,1,9.53,3.35,53.52,53.52,0,0,0-19.42-1A139.49,139.49,0,0,0,206.78,248.06Z"/><path class="cls-10" d="M201.34,236.18a56.37,56.37,0,0,1,17.72-1,37.45,37.45,0,0,1,8.8,1.87c2.76,1,5.85,2.63,7,5.5-2-2.24-4.86-2.91-7.58-3.6a74.69,74.69,0,0,0-8.5-1.25C213.05,237.09,207.25,236.84,201.34,236.18Z"/><path class="cls-10" d="M147.72,292.31c4,8.07,10.73,14.5,18.28,19.17a67.34,67.34,0,0,0,25,8.85,117.82,117.82,0,0,0,26.66,1A72.06,72.06,0,0,0,230.77,319c4.29-1.16,8.44-2.75,12.67-4.3a77.15,77.15,0,0,1,26.61-5.36,45.44,45.44,0,0,1,26.14,7.38c7.67,4.83,14.43,11.11,23.07,12.49s17.34-1.13,25.47-4.45l1.29-.53.38,1.37c.46,1.66,1.57,3.52,2.85,3.81a3,3,0,0,0,2.14-.35,6.22,6.22,0,0,0,2.12-1.54c1.06-1.12.68-2.87.43-5.14a8.92,8.92,0,0,1,0-1.79,9.79,9.79,0,0,1,.38-1.69,28.88,28.88,0,0,0,.6-2.94,19.25,19.25,0,0,0,.1-5.86c-.3-1.88-1.1-3.52-2.61-4.22-1.73-.91-3.24-1-4.64.14a29.2,29.2,0,0,1-2.55,2,5.25,5.25,0,0,1-1,.42,7,7,0,0,1-.94.18,11.34,11.34,0,0,1-1.65.15c-4.58.18-8.74-1.6-12.44-3.67a71.8,71.8,0,0,1-10.3-7.41c-6.42-5.44-12.3-11.37-18.28-17.17-11.93-11.51-24.1-23.28-39.15-30.38-7.45-3.5-15.77-5.46-24-4.65A80,80,0,0,0,225.27,248a58,58,0,0,0-11.71,4.28,58.6,58.6,0,0,1,11.63-4.58,79.19,79.19,0,0,1,12.21-2.81c8.37-1,16.91.79,24.58,4.18s14.69,8.22,21.23,13.43,12.66,10.94,18.72,16.68,12,11.56,18.38,16.85a68.62,68.62,0,0,0,10,7.14c3.5,2,7.39,3.52,11.22,3.34a10.08,10.08,0,0,0,1.46-.14,2.15,2.15,0,0,0,1.07-.32c.67-.39,1.4-1.17,2.32-1.88a5.81,5.81,0,0,1,3.55-1.33,7.75,7.75,0,0,1,3.51.95c2.38,1.11,3.55,3.72,3.87,5.89a21.14,21.14,0,0,1-.07,6.6,27.29,27.29,0,0,1-.64,3.19,9.52,9.52,0,0,0-.3,1.35,6.56,6.56,0,0,0,0,1.33c.08.95.31,2,.31,3.21a5.53,5.53,0,0,1-1.24,3.66,8.76,8.76,0,0,1-2.86,2.16,5.48,5.48,0,0,1-3.9.56,5.59,5.59,0,0,1-3.11-2.35,10.53,10.53,0,0,1-1.5-3.22l1.67.84c-8.3,3.42-17.49,6.27-26.87,4.62A35.07,35.07,0,0,1,306,326.27c-3.85-2.46-7.37-5.24-11.11-7.58a44.61,44.61,0,0,0-11.88-5.48,45.67,45.67,0,0,0-13-1.67,77.25,77.25,0,0,0-25.93,5.07c-4.22,1.47-8.48,3-12.88,4.16A75.33,75.33,0,0,1,217.84,323a120.25,120.25,0,0,1-27-1.38A68.22,68.22,0,0,1,165.66,312C158.13,307.13,151.53,300.48,147.72,292.31Z"/><rect class="cls-11" width="400" height="400"/></g></g></g></svg>