<svg xmlns="http://www.w3.org/2000/svg" viewBox="0 0 400 400"><defs><style>.cls-1{fill:#3a282b;}.cls-2{fill:#917b7d;}.cls-3{fill:#493337;}.cls-4{fill:#fff;}.cls-5{fill:#e84b4d;opacity:0.48;}.cls-6{fill:none;}</style></defs><g id="Calque_2" data-name="Calque 2"><g id="Calque_1-2" data-name="Calque 1"><path class="cls-1" d="M45,155c13.5,18.15,34.2,10.47,56.29-5.9s38.8-27.58,24.56-45.22C100.5,72.5,37,57.07,37,57.07S16,116.07,45,155Z"/><path class="cls-2" d="M59.42,147.6c9,11.21,27.79,11.86,41.84,1.45s18.09-27.94,9-39.14S63.05,77.75,56.1,82.9,50.35,136.39,59.42,147.6Z"/><path class="cls-1" d="M354,155c-13.51,18.15-34.21,10.47-56.29-5.9s-38.8-27.58-24.56-45.22C298.49,72.5,362,57.07,362,57.07S383,116.07,354,155Z"/><path class="cls-2" d="M339.59,147.6c-9.06,11.21-27.8,11.86-41.84,1.45s-18.1-27.94-9-39.14S336,77.75,342.9,82.9,348.64,136.39,339.59,147.6Z"/><path class="cls-1" d="M383.64,214.9c0-21-50-123.7-184.12-123.7S15.37,193.89,15.37,214.9s46.54,130.49,184,130.56h.26C337.09,345.39,383.64,235.91,383.64,214.9Z"/><path class="cls-2" d="M151,214.9c18.44-35.43-51.37-47.59-118.49-40.06-14.1,17-17.15,32.61-17.15,40.06,0,12.38,16.16,55.46,57.54,88.79C107.31,287.69,130.5,254.36,151,214.9Z"/><path class="cls-2" d="M248,214.9c-18.43-35.43,51.51-47.59,118.64-40.06,14.1,17,17,32.61,17,40.06,0,12.38-16.17,55.46-57.56,88.79C291.69,287.69,268.51,254.36,248,214.9Z"/><path class="cls-2" d="M249.35,264c-11.69-31.32-97.13-35.57-111.53,0-4.12,10.18-9.43,44.75,55.56,44.75S253.19,274.27,249.35,264Z"/><path class="cls-1" d="M219.52,279.47a1.47,1.47,0,1,1,0,2.94A1.47,1.47,0,1,1,219.52,279.47Z"/><path class="cls-1" d="M212,280.94a1.47,1.47,0,1,1,0,2.94A1.47,1.47,0,1,1,212,280.94Z"/><path class="cls-1" d="M208.58,286a1.47,1.47,0,1,1,0,2.94A1.47,1.47,0,1,1,208.58,286Z"/><path class="cls-1" d="M217.07,286.69a1.47,1.47,0,1,1,0,2.94A1.47,1.47,0,1,1,217.07,286.69Z"/><path class="cls-1" d="M224,283.75a1.47,1.47,0,1,1,0,2.94A1.47,1.47,0,1,1,224,283.75Z"/><path class="cls-1" d="M193.27,268.82c.37,5.8,2,11.91-.55,17.81a14.85,14.85,0,0,1-6.41,6.59,23.44,23.44,0,0,1-8.76,2.62A30.94,30.94,0,0,1,160,292.33a23,23,0,0,1-6.92-5.78,17.62,17.62,0,0,1-3.49-8.17c1.46,5.81,5.86,10.3,11,12.8a31,31,0,0,0,16.8,3c5.59-.55,11.5-3,14-8.12S192.89,274.67,193.27,268.82Z"/><path class="cls-1" d="M194.08,268.82c.39,5.85-.73,12.08,1.87,17.2s8.44,7.57,14,8.12a30.93,30.93,0,0,0,16.79-3c5.16-2.5,9.57-7,11-12.8a17.4,17.4,0,0,1-3.48,8.17,23.08,23.08,0,0,1-6.92,5.78,31,31,0,0,1-17.58,3.51,23.4,23.4,0,0,1-8.75-2.62,14.93,14.93,0,0,1-6.42-6.59C192.13,280.73,193.72,274.62,194.08,268.82Z"/><path class="cls-1" d="M167.78,279.47a1.47,1.47,0,1,0,0,2.94A1.47,1.47,0,1,0,167.78,279.47Z"/><path class="cls-1" d="M175.28,280.94a1.47,1.47,0,1,0,0,2.94A1.47,1.47,0,1,0,175.28,280.94Z"/><path class="cls-1" d="M178.72,286a1.47,1.47,0,1,0,0,2.94A1.47,1.47,0,1,0,178.72,286Z"/><path class="cls-1" d="M170.22,286.69a1.47,1.47,0,1,0,0,2.94A1.47,1.47,0,1,0,170.22,286.69Z"/><path class="cls-1" d="M163.32,283.75a1.47,1.47,0,1,0,0,2.94A1.47,1.47,0,1,0,163.32,283.75Z"/><path class="cls-1" d="M215.24,257.28c0,7.6-9.83,19.59-22,19.59s-22-12-22-19.59,9.85-12.39,22-12.39S215.24,249.67,215.24,257.28Z"/><path class="cls-3" d="M176.86,253c-4.21,4.18.53,15.68,6.6,11.36a13,13,0,0,0,3.62-4.06c1.74-2.8,4-4,7.31-4.72,2.26-.47,7.15-.85,7-4.08C201.21,247,182.43,247.47,176.86,253Z"/><path class="cls-1" d="M107.35,215.2A7.55,7.55,0,1,1,99.81,208,7.39,7.39,0,0,1,107.35,215.2Z"/><path class="cls-4" d="M105.43,212.32A2.45,2.45,0,1,1,103,210,2.39,2.39,0,0,1,105.43,212.32Z"/><path class="cls-1" d="M107.3,209.25a9.67,9.67,0,0,0-6-2.06,15.18,15.18,0,0,0-3.14.3,11.37,11.37,0,0,0-2.93.91A31.66,31.66,0,0,0,92.34,210,13.43,13.43,0,0,1,89,211.49a7.29,7.29,0,0,1-3.82,0A9.23,9.23,0,0,1,82,210c2.3.48,4.56.65,6.36-.22s3.45-2.44,5.76-3.51a11.71,11.71,0,0,1,3.64-1,13.8,13.8,0,0,1,3.74.07C103.93,205.7,106.37,207.11,107.3,209.25Z"/><path class="cls-1" d="M85.39,208a12.59,12.59,0,0,0,4.29.2,24.27,24.27,0,0,0,4.21-1.13,6.07,6.07,0,0,1-6.46,2.13A4.2,4.2,0,0,1,85.39,208Z"/><path class="cls-1" d="M87.81,206.41a9.37,9.37,0,0,0,2.22.14c.72,0,1.44-.09,2.17-.19,1.44-.15,2.89-.43,4.49-.47a9.16,9.16,0,0,1-4.35,1.66,8.07,8.07,0,0,1-2.4-.08A3.7,3.7,0,0,1,87.81,206.41Z"/><path class="cls-1" d="M291.66,215.2A7.55,7.55,0,1,0,299.2,208,7.39,7.39,0,0,0,291.66,215.2Z"/><path class="cls-4" d="M293.57,212.32A2.45,2.45,0,1,0,296,210,2.4,2.4,0,0,0,293.57,212.32Z"/><path class="cls-1" d="M291.7,209.25c.93-2.14,3.37-3.55,5.82-3.95a13.8,13.8,0,0,1,3.74-.07,11.85,11.85,0,0,1,3.65,1c2.3,1.07,3.94,2.7,5.75,3.51s4.06.7,6.37.22a9.41,9.41,0,0,1-3.2,1.54,7.28,7.28,0,0,1-3.82,0,13.1,13.1,0,0,1-3.34-1.51c-1-.58-1.91-1.15-2.85-1.58a11.37,11.37,0,0,0-2.93-.91,15.24,15.24,0,0,0-3.16-.3A9.68,9.68,0,0,0,291.7,209.25Z"/><path class="cls-1" d="M313.62,208a4.24,4.24,0,0,1-2,1.2,6.08,6.08,0,0,1-6.47-2.13,24.51,24.51,0,0,0,4.21,1.13A12.65,12.65,0,0,0,313.62,208Z"/><path class="cls-1" d="M311.19,206.41a3.73,3.73,0,0,1-2.13,1.06,8.06,8.06,0,0,1-2.4.08,9.2,9.2,0,0,1-4.35-1.66c1.6,0,3.05.32,4.5.47.72.1,1.44.15,2.16.19A9.37,9.37,0,0,0,311.19,206.41Z"/><path class="cls-5" d="M99.14,259.38C99.14,271.32,89,281,76.56,281S54,271.32,54,259.38s10.12-21.61,22.57-21.61S99.14,247.44,99.14,259.38Z"/><path class="cls-5" d="M299.86,259.38c0,11.94,10.11,21.61,22.58,21.61S345,271.32,345,259.38s-10.11-21.61-22.58-21.61S299.86,247.44,299.86,259.38Z"/><rect class="cls-6" width="400" height="400"/></g></g></svg>