<svg xmlns="http://www.w3.org/2000/svg" viewBox="0 0 400 400"><defs><style>.cls-1{isolation:isolate;}.cls-2{fill:#545452;}.cls-3{fill:#cbc2b4;}.cls-4{fill:#f3e8df;}.cls-5{fill:#250b0f;}.cls-6{fill:#e37b8a;}.cls-7{fill:#b53e52;}.cls-8{fill:#444442;}.cls-9{fill:#20211e;}.cls-10{fill:#fffcfd;}.cls-11{fill:#232827;}.cls-12,.cls-13{fill:none;}.cls-12{stroke:#656e6d;stroke-linecap:round;stroke-linejoin:round;stroke-width:1.1px;mix-blend-mode:multiply;}</style></defs><g class="cls-1"><g id="Calque_2" data-name="Calque 2"><g id="Calque_1-2" data-name="Calque 1"><path class="cls-2" d="M349.18,241.33c-13.74,46-50.63,98.43-149.1,98.43S60.52,289.81,51,241.33,37.63,90,200.08,90,362.91,195.29,349.18,241.33Z"/><path class="cls-3" d="M198.88,314.49A36.08,36.08,0,0,1,188,318a12.31,12.31,0,0,0,22.24.07A36.91,36.91,0,0,1,198.88,314.49Z"/><path class="cls-4" d="M222,272.33H175.75c-16.05,0-23.41,10.53-23.41,23.05s10.43,22.67,23.41,23v0s12.35,1.72,23.13-3.93c10.78,5.65,23.13,3.93,23.13,3.93v0c13-.35,23.4-10.51,23.4-23S238.07,272.33,222,272.33Z"/><path class="cls-5" d="M198.88,314.49a74.74,74.74,0,0,1-1.3-14.65,73.3,73.3,0,0,1,1.3-14.65,83.83,83.83,0,0,1,0,29.3Z"/><path class="cls-6" d="M214.82,275.28c0,5-8.57,12.78-15.71,12.78s-14.29-7.8-14.29-12.78h0c0-5,4.21-5.25,9.41-5.25h11.18c5.2,0,9.41.28,9.41,5.25Z"/><path class="cls-5" d="M167.58,286.83a1.2,1.2,0,0,1-1.22,1.18h0a1.19,1.19,0,0,1-1.23-1.18h0a1.19,1.19,0,0,1,1.23-1.18h0a1.2,1.2,0,0,1,1.22,1.18Z"/><path class="cls-5" d="M176.18,286.17a1.2,1.2,0,0,1-1.22,1.18h0a1.22,1.22,0,0,1-1.25-1.18h0A1.22,1.22,0,0,1,175,285h0a1.2,1.2,0,0,1,1.22,1.18Z"/><path class="cls-5" d="M172.15,292.19a1.22,1.22,0,0,1-1.24,1.18h0a1.21,1.21,0,0,1-1.22-1.18h0a1.21,1.21,0,0,1,1.22-1.18h0a1.22,1.22,0,0,1,1.24,1.18Z"/><path class="cls-5" d="M169.69,298.6a1.22,1.22,0,0,1-1.24,1.18h0a1.21,1.21,0,0,1-1.23-1.18h0a1.2,1.2,0,0,1,1.23-1.18h0a1.22,1.22,0,0,1,1.24,1.18Z"/><path class="cls-5" d="M179.92,297.68a1.21,1.21,0,0,1-1.23,1.18h0a1.21,1.21,0,0,1-1.23-1.18h0a1.21,1.21,0,0,1,1.23-1.18h0a1.21,1.21,0,0,1,1.23,1.18Z"/><path class="cls-5" d="M164.75,294.55a1.2,1.2,0,0,1-1.22,1.17h0a1.21,1.21,0,0,1-1.24-1.17h0a1.22,1.22,0,0,1,1.24-1.18h0a1.2,1.2,0,0,1,1.22,1.18Z"/><path class="cls-5" d="M180.9,291.21a1.2,1.2,0,0,1-1.23,1.18h0a1.2,1.2,0,0,1-1.23-1.18h0a1.2,1.2,0,0,1,1.23-1.17h0a1.2,1.2,0,0,1,1.23,1.17Z"/><path class="cls-5" d="M229.89,286.83a1.22,1.22,0,0,0,1.24,1.18h0a1.21,1.21,0,0,0,1.23-1.18h0a1.21,1.21,0,0,0-1.23-1.18h0a1.22,1.22,0,0,0-1.24,1.18Z"/><path class="cls-5" d="M221.29,286.17a1.21,1.21,0,0,0,1.23,1.18h0a1.21,1.21,0,0,0,1.23-1.18h0a1.21,1.21,0,0,0-1.23-1.18h0a1.21,1.21,0,0,0-1.23,1.18Z"/><path class="cls-5" d="M225.31,292.19a1.22,1.22,0,0,0,1.25,1.18h0a1.21,1.21,0,0,0,1.23-1.18h0a1.21,1.21,0,0,0-1.23-1.18h0a1.22,1.22,0,0,0-1.25,1.18Z"/><path class="cls-5" d="M227.79,298.6a1.21,1.21,0,0,0,1.22,1.18h0a1.22,1.22,0,0,0,1.25-1.18h0a1.21,1.21,0,0,0-1.25-1.18h0a1.2,1.2,0,0,0-1.22,1.18Z"/><path class="cls-5" d="M217.56,297.68a1.2,1.2,0,0,0,1.23,1.18h0a1.2,1.2,0,0,0,1.22-1.18h0a1.2,1.2,0,0,0-1.22-1.18h0a1.2,1.2,0,0,0-1.23,1.18Z"/><path class="cls-5" d="M232.71,294.55a1.2,1.2,0,0,0,1.23,1.17h0a1.19,1.19,0,0,0,1.23-1.17h0a1.2,1.2,0,0,0-1.23-1.18h0a1.21,1.21,0,0,0-1.23,1.18Z"/><path class="cls-5" d="M216.57,291.21a1.2,1.2,0,0,0,1.23,1.18h0a1.2,1.2,0,0,0,1.23-1.18h0A1.2,1.2,0,0,0,217.8,290h0a1.2,1.2,0,0,0-1.23,1.17Z"/><path class="cls-7" d="M198.88,314.49a34.52,34.52,0,0,1-7.45,2.81,8.76,8.76,0,0,0,15.26.09A34.56,34.56,0,0,1,198.88,314.49Z"/><path class="cls-8" d="M333.87,148.52c41.88-34.54,10.77-88.28,10.77-88.28s-2.48,9.08-14,12.43c-13.42,3.9-41.55,12.91-49.34,38.14A174.78,174.78,0,0,1,333.87,148.52Z"/><path class="cls-9" d="M328.16,142.81c16.16-10.18,18.31-50.33,9.5-54.13-16.14-7-47.08,18.6-48.53,26A174.76,174.76,0,0,1,328.16,142.81Z"/><path class="cls-8" d="M67.86,148.52C26,114,57.09,60.24,57.09,60.24s2.49,9.08,14,12.43c13.41,3.9,41.55,12.91,49.33,38.14A174.91,174.91,0,0,0,67.86,148.52Z"/><path class="cls-9" d="M73.57,142.81c-16.16-10.18-18.31-50.33-9.5-54.13,16.14-7,47.09,18.6,48.54,26A174.59,174.59,0,0,0,73.57,142.81Z"/><path class="cls-10" d="M133.16,249.45c0,7.49-6.35,13.56-14.18,13.56s-14.17-6.07-14.17-13.56,6.35-13.58,14.17-13.58S133.16,242,133.16,249.45Z"/><path class="cls-11" d="M118.76,244c-5.21,0-7.72,3.65-7.72,7.39a7.72,7.72,0,1,0,7.72-7.39Zm-4,10.43a1.38,1.38,0,1,1,1.45-1.38A1.4,1.4,0,0,1,114.79,254.44Zm1.37-3.37a2.71,2.71,0,1,1,2.82-2.7A2.78,2.78,0,0,1,116.16,251.07Z"/><path class="cls-12" d="M98.31,235c1.32-7.42,9-12,18.08-8.91"/><path class="cls-10" d="M258.68,249.45c0,7.49,6.34,13.56,14.17,13.56S287,256.94,287,249.45s-6.36-13.58-14.18-13.58S258.68,242,258.68,249.45Z"/><path class="cls-11" d="M265.36,251.4a7.73,7.73,0,0,0,15.44,0c0-3.74-2.51-7.39-7.72-7.39A7.56,7.56,0,0,0,265.36,251.4Zm10.23,1.66a1.44,1.44,0,1,1,1.44,1.38A1.4,1.4,0,0,1,275.59,253.06Zm-2.74-4.69a2.83,2.83,0,1,1,2.83,2.7A2.77,2.77,0,0,1,272.85,248.37Z"/><path class="cls-12" d="M293.53,235c-1.32-7.42-9-12-18.09-8.91"/><rect class="cls-13" width="400" height="400"/></g></g></g></svg>