<svg xmlns="http://www.w3.org/2000/svg" viewBox="0 0 400 400"><defs><style>.cls-1{isolation:isolate;}.cls-2{fill:#c55117;}.cls-3{fill:#ee9730;}.cls-4{fill:#f4dfca;}.cls-5{fill:#f4dbbc;}.cls-6{fill:#fffcfd;}.cls-7{fill:#232827;}.cls-12,.cls-8,.cls-9{fill:none;}.cls-8{stroke:#656e6d;stroke-width:0.74px;mix-blend-mode:multiply;}.cls-8,.cls-9{stroke-linecap:round;stroke-linejoin:round;}.cls-9{stroke:#250b0f;stroke-width:0.99px;}.cls-10{fill:#250b0f;}.cls-11{fill:#ba6b24;}</style></defs><g class="cls-1"><g id="Calque_2" data-name="Calque 2"><g id="Calque_1-2" data-name="Calque 1"><path class="cls-2" d="M384.62,214.67a19.58,19.58,0,0,0,.8-16.29,17.45,17.45,0,0,0,.29-15.31,21.31,21.31,0,0,0,2.7-10.35,22,22,0,0,0-10-18.26,27.32,27.32,0,0,0-5.26-16.59,21.25,21.25,0,0,0,.47-4.32c0-11-8.25-20-19.12-21.9-2.07-6-6.82-11.55-12.19-13.65a21.75,21.75,0,0,0-4.8-9.38c0-3.92-1.38-8-4.67-12.06a23.42,23.42,0,0,0-13.12-8.3A17.81,17.81,0,0,0,304,59a18.12,18.12,0,0,0-7.35,1.55,20.42,20.42,0,0,0-7-8.45,17.08,17.08,0,0,0-11.21-2.28c-4.9-4.43-12.75-7.49-20.1-7.65a16.9,16.9,0,0,0-4.75-3.46c-4.43-2.14-10.1-1.51-14.92.81-9.2-4-20.81-4.23-27.94,1.71a25.4,25.4,0,0,0-3.94.46,21.44,21.44,0,0,0-10.06-3.56,26.82,26.82,0,0,0-15.36,4,34.16,34.16,0,0,0-5-1.55,22.77,22.77,0,0,0-15.26-4.75c-6.94.21-12.28,3.13-15.7,7.5-.58-.07-1.17-.15-1.8-.19-.35,0-.7,0-1.06,0a19.7,19.7,0,0,0-5.47-2.47c-8.47-2.37-20.63,3.34-23.74,11a23.28,23.28,0,0,0-13.66,9.73,20.13,20.13,0,0,0-7,.12c-4,.84-8.38,3.82-10,7.48a13.94,13.94,0,0,0-1.14,5.56,17.4,17.4,0,0,0-7.57,8.14c-5.57-.2-10.84,1.6-14,7a16.75,16.75,0,0,0-1.84,5.16,12.32,12.32,0,0,0-4.69,9.57c-6.42-.91-12.65-.47-15,6.91a11.66,11.66,0,0,0-.18,6,21.73,21.73,0,0,0-7.28,15c-7.72,2.28-14.44,6.65-15.47,15.33a18.64,18.64,0,0,0,3.78,13.9,21.28,21.28,0,0,0-3.16,11.13A21.54,21.54,0,0,0,17.43,180c-3.83,3-5.75,11.71-5.91,14.75-.38,6.58,2.15,11.27,6.41,13.7a20.15,20.15,0,0,0,2.32,6.88,13.1,13.1,0,0,0-.61,8.47,22.6,22.6,0,0,0,2.64,6.64,21.31,21.31,0,0,0-2.21,9.43,21.69,21.69,0,0,0,7.42,16.27c-3.13,3.34-4.46,7.63-1.47,12.32a13.38,13.38,0,0,0,6,5c-1.3,4.06.27,9.3,3.4,13.32a19.22,19.22,0,0,0,8.47,6.33A21.42,21.42,0,0,0,63.51,309.2a31.29,31.29,0,0,0,8,8.83c5.06,3.6,10.49,5.27,15.29,4.67A22.28,22.28,0,0,0,98.94,335c.93,4.34,4.93,8.13,10.94,10.29,5.67,2,12.07,2,17-.21a23.36,23.36,0,0,0,30.86-2.32,15.33,15.33,0,0,0,14,8.83A15.49,15.49,0,0,0,184,345.75a15.18,15.18,0,0,0,15,11.7,15.46,15.46,0,0,0,12.07-5.74,22.81,22.81,0,0,0,38.07,4,24.46,24.46,0,0,0,9.86,1.41,10.07,10.07,0,0,0,2.62-.51,18.24,18.24,0,0,0,4.28.5,18,18,0,0,0,15.52-8.63c5.72,1.16,12.53-.42,15.8-4.39h.19c11.4,0,20.79-8,22.44-18.47A12.49,12.49,0,0,0,331.29,321,28.69,28.69,0,0,0,337,309.06a22.07,22.07,0,0,0,2.6.2c10.41,0,19.11-7,21.2-16.43a8.69,8.69,0,0,0,3.84-2.77,14.63,14.63,0,0,0,2.85-9.22c4.83-.75,8.45-4,8.86-10.41A18.45,18.45,0,0,0,373,259.05a22.07,22.07,0,0,0,11.51-19.17,22.52,22.52,0,0,0-.36-3.7C389.47,229.69,390.11,218.39,384.62,214.67Z"/><path class="cls-3" d="M302.91,179.3c37.12-6.41,13-89.47,7.43-71.74s-48.51,8.44-46.79,36.33C279.51,151.32,291.88,167.83,302.91,179.3Z"/><path class="cls-4" d="M299.49,168.46c23.7,1.87,20.1-64.64,12.61-46.55-5.58,13.52-36,2.92-42.57,24.93A134.42,134.42,0,0,1,299.49,168.46Z"/><path class="cls-3" d="M97.4,179.3c-37.11-6.41-13-89.47-7.42-71.74s48.51,8.44,46.79,36.33C120.8,151.32,108.44,167.83,97.4,179.3Z"/><path class="cls-4" d="M100.82,168.46c-23.69,1.87-20.09-64.64-12.6-46.55,5.58,13.52,36,2.92,42.56,24.93A134.19,134.19,0,0,0,100.82,168.46Z"/><path class="cls-3" d="M312.46,255.08c0,28-38.09,82.29-112.23,82.29S88,282.52,88,255.08s23.11-115.29,112.2-115.29S312.46,227.05,312.46,255.08Z"/><path class="cls-5" d="M264.59,277.16c-14.61-24.9-49.49-6.31-66.09-6.31s-47.92-21.87-64.24,3.82c-10.14,16,.09,52.7,64.24,52.7S279.21,302.06,264.59,277.16Z"/><path class="cls-6" d="M158.64,238.84a9.4,9.4,0,1,1-9.41-9A9.2,9.2,0,0,1,158.64,238.84Z"/><path class="cls-7" d="M149.09,235.23a4.76,4.76,0,0,0-5.11,4.9,5.12,5.12,0,1,0,5.11-4.9Zm-2.61,6.92a.92.92,0,1,1,0-1.83.92.92,0,1,1,0,1.83Zm.9-2.23a1.8,1.8,0,1,1,1.85-1.78A1.83,1.83,0,0,1,147.38,239.92Z"/><path class="cls-8" d="M135.55,229.23c.87-4.92,6-7.94,12-5.9"/><path class="cls-6" d="M241.84,238.84a9.4,9.4,0,1,0,9.39-9A9.2,9.2,0,0,0,241.84,238.84Z"/><path class="cls-7" d="M246.28,240.13a5.12,5.12,0,0,0,10.23,0,4.77,4.77,0,0,0-5.12-4.9A5,5,0,0,0,246.28,240.13Zm6.77,1.11a1,1,0,1,1,.95.91A.94.94,0,0,1,253.05,241.24Zm-1.82-3.1a1.87,1.87,0,1,1,1.87,1.78A1.84,1.84,0,0,1,251.23,238.14Z"/><path class="cls-8" d="M264.94,229.23c-.88-4.92-6-7.94-12-5.9"/><path class="cls-9" d="M180.79,307.56s4,8.47,19.37,2.21V285.71"/><path class="cls-9" d="M219.63,307.56s-4,8.88-19.37,2.21V285.71"/><path class="cls-10" d="M151.68,282.8a1.63,1.63,0,0,1-1.66,1.58h0a1.63,1.63,0,0,1-1.66-1.58h0a1.63,1.63,0,0,1,1.66-1.6h0a1.63,1.63,0,0,1,1.66,1.6Z"/><path class="cls-10" d="M163.26,281.89a1.62,1.62,0,0,1-1.66,1.59h0a1.63,1.63,0,0,1-1.66-1.59h0a1.63,1.63,0,0,1,1.66-1.58h0a1.62,1.62,0,0,1,1.66,1.58Z"/><path class="cls-10" d="M157.82,290a1.62,1.62,0,0,1-1.65,1.59h0a1.63,1.63,0,0,1-1.66-1.59h0a1.62,1.62,0,0,1,1.66-1.58h0a1.61,1.61,0,0,1,1.65,1.58Z"/><path class="cls-10" d="M154.51,298.64a1.62,1.62,0,0,1-1.65,1.59h0a1.63,1.63,0,0,1-1.67-1.59h0a1.63,1.63,0,0,1,1.67-1.59h0a1.62,1.62,0,0,1,1.65,1.59Z"/><path class="cls-10" d="M168.3,297.41a1.62,1.62,0,0,1-1.67,1.58h0a1.63,1.63,0,0,1-1.66-1.58h0a1.64,1.64,0,0,1,1.66-1.6h0a1.63,1.63,0,0,1,1.67,1.6Z"/><path class="cls-10" d="M147.87,293.19a1.62,1.62,0,0,1-1.65,1.58h0a1.62,1.62,0,0,1-1.67-1.58h0a1.63,1.63,0,0,1,1.67-1.59h0a1.62,1.62,0,0,1,1.65,1.59Z"/><path class="cls-10" d="M169.62,288.69a1.62,1.62,0,0,1-1.66,1.59h0a1.61,1.61,0,0,1-1.65-1.59h0a1.61,1.61,0,0,1,1.65-1.58h0a1.62,1.62,0,0,1,1.66,1.58Z"/><path class="cls-10" d="M237,284.13a1.62,1.62,0,0,1-1.66,1.58h0a1.64,1.64,0,0,1-1.67-1.58h0a1.64,1.64,0,0,1,1.67-1.6h0a1.62,1.62,0,0,1,1.66,1.6Z"/><path class="cls-10" d="M248.61,283.23a1.63,1.63,0,0,1-1.66,1.58h0a1.63,1.63,0,0,1-1.66-1.58h0a1.63,1.63,0,0,1,1.66-1.59h0a1.64,1.64,0,0,1,1.66,1.59Z"/><path class="cls-10" d="M243.17,291.34a1.63,1.63,0,0,1-1.67,1.59h0a1.62,1.62,0,0,1-1.65-1.59h0a1.62,1.62,0,0,1,1.65-1.58h0a1.63,1.63,0,0,1,1.67,1.58Z"/><path class="cls-10" d="M239.85,300a1.61,1.61,0,0,1-1.65,1.58h0a1.62,1.62,0,0,1-1.66-1.58h0a1.61,1.61,0,0,1,1.66-1.58h0a1.61,1.61,0,0,1,1.65,1.58Z"/><path class="cls-10" d="M253.64,298.73a1.62,1.62,0,0,1-1.65,1.59h0a1.62,1.62,0,0,1-1.66-1.59h0a1.62,1.62,0,0,1,1.66-1.59h0a1.62,1.62,0,0,1,1.65,1.59Z"/><path class="cls-10" d="M233.22,294.52a1.62,1.62,0,0,1-1.67,1.58h0a1.61,1.61,0,0,1-1.65-1.58h0a1.62,1.62,0,0,1,1.65-1.59h0a1.63,1.63,0,0,1,1.67,1.59Z"/><path class="cls-10" d="M255,290a1.62,1.62,0,0,1-1.66,1.59h0a1.63,1.63,0,0,1-1.66-1.59h0a1.63,1.63,0,0,1,1.66-1.58h0A1.62,1.62,0,0,1,255,290Z"/><path class="cls-11" d="M169.71,162.84c22,14.4,15.07,35.56,9.55,57s-10.82,47.58-10.82,47.58L200.23,266h0l31.82,1.47s-5.32-26.12-10.84-47.58-12.5-42.61,9.56-57a42.47,42.47,0,0,1,28.07-6.79c-15.3-9.85-34.51-16.26-58.61-16.26s-43.15,6.4-58.41,16.25A42.36,42.36,0,0,1,169.71,162.84Z"/><path class="cls-10" d="M232.26,270c0,10.63-18.3,27.28-33.55,27.28S168.22,280.65,168.22,270h0c0-10.63,9-11.21,20.1-11.21h23.84c11.1,0,20.1.58,20.1,11.21Z"/><rect class="cls-12" width="400" height="400"/></g></g></g></svg>