<svg xmlns="http://www.w3.org/2000/svg" viewBox="0 0 400 400"><defs><style>.cls-1{fill:#cb6b32;}.cls-2{fill:#f5cb9c;}.cls-3{fill:#3d2115;}.cls-4{fill:#fff;}.cls-5{fill:#ae6047;opacity:0.48;}.cls-6{fill:#ececec;}.cls-7{fill:#c6c6c5;}.cls-8{fill:#663b2e;}.cls-9{fill:none;}</style></defs><g id="Calque_2" data-name="Calque 2"><g id="Calque_1-2" data-name="Calque 1"><path class="cls-1" d="M19.46,143.37c12.71,19.47,42.79,23.4,67.19,8.81S120.52,110,107.81,90.49,59,50.73,25.93,77.07C8.21,91.21,6.75,123.91,19.46,143.37Z"/><path class="cls-2" d="M43.92,146.58C52,159,71.14,161.46,86.65,152.18S108.19,125.33,100.1,113,71.7,84.71,48,104.41C37,113.63,35.83,134.19,43.92,146.58Z"/><path class="cls-1" d="M380.4,143.37c-12.71,19.47-42.78,23.4-67.18,8.81S279.34,110,292.05,90.49s48.86-39.76,81.89-13.42C391.66,91.21,393.11,123.91,380.4,143.37Z"/><path class="cls-2" d="M356,146.58c-8.09,12.37-27.22,14.88-42.73,5.6S291.67,125.33,299.76,113s28.41-28.24,52.08-8.54C362.9,113.63,364,134.19,356,146.58Z"/><path class="cls-2" d="M365.49,218c0,51-32,121.41-165.56,121.41S34.37,269.75,34.37,218c0-77.6,74.13-130.86,165.56-130.86S365.49,140.37,365.49,218Z"/><path class="cls-3" d="M106.84,232.62a7.78,7.78,0,1,1-7.77-7.44A7.61,7.61,0,0,1,106.84,232.62Z"/><path class="cls-4" d="M104.86,229.66a2.52,2.52,0,1,1-2.52-2.42A2.47,2.47,0,0,1,104.86,229.66Z"/><path class="cls-3" d="M106.79,226.5a9.94,9.94,0,0,0-6.22-2.13,15.56,15.56,0,0,0-3.25.31,11.6,11.6,0,0,0-3,.94,32.26,32.26,0,0,0-2.93,1.62,14,14,0,0,1-3.45,1.57,7.59,7.59,0,0,1-3.93,0,10.13,10.13,0,0,1-3.3-1.6c2.37.5,4.7.68,6.56-.22s3.55-2.51,5.93-3.61a11.89,11.89,0,0,1,3.75-1.06,13.81,13.81,0,0,1,3.85.08C103.32,222.84,105.83,224.29,106.79,226.5Z"/><path class="cls-3" d="M84.22,225.18a12.59,12.59,0,0,0,4.42.21A24.27,24.27,0,0,0,93,224.22a6.24,6.24,0,0,1-4.16,2.39,6.43,6.43,0,0,1-2.51-.18A4.39,4.39,0,0,1,84.22,225.18Z"/><path class="cls-3" d="M86.71,223.57a9.38,9.38,0,0,0,2.28.14c.75,0,1.49-.09,2.24-.19,1.49-.16,3-.44,4.62-.49a9.32,9.32,0,0,1-4.47,1.71,7.89,7.89,0,0,1-2.47-.08A3.81,3.81,0,0,1,86.71,223.57Z"/><path class="cls-3" d="M293,232.62a7.78,7.78,0,1,0,7.77-7.44A7.61,7.61,0,0,0,293,232.62Z"/><path class="cls-4" d="M295,229.66a2.52,2.52,0,1,0,2.52-2.42A2.47,2.47,0,0,0,295,229.66Z"/><path class="cls-3" d="M293.08,226.5c1-2.21,3.47-3.66,6-4.07a13.74,13.74,0,0,1,3.84-.08,11.87,11.87,0,0,1,3.76,1.06c2.37,1.1,4.05,2.78,5.93,3.61s4.18.72,6.55.22a9.93,9.93,0,0,1-3.3,1.6,7.6,7.6,0,0,1-3.93,0,14.09,14.09,0,0,1-3.44-1.57,32.26,32.26,0,0,0-2.93-1.62,11.56,11.56,0,0,0-3-.94,15.5,15.5,0,0,0-3.25-.31A9.91,9.91,0,0,0,293.08,226.5Z"/><path class="cls-3" d="M315.65,225.18a4.39,4.39,0,0,1-2.09,1.25,6.48,6.48,0,0,1-2.52.18,6.21,6.21,0,0,1-4.15-2.39,24.18,24.18,0,0,0,4.33,1.17A12.66,12.66,0,0,0,315.65,225.18Z"/><path class="cls-3" d="M313.15,223.57a3.76,3.76,0,0,1-2.19,1.09,7.89,7.89,0,0,1-2.47.08A9.39,9.39,0,0,1,304,223c1.65.05,3.14.33,4.63.49.75.1,1.49.15,2.22.19A9.38,9.38,0,0,0,313.15,223.57Z"/><path class="cls-5" d="M139.87,275.77c0,12.3-10.41,22.27-23.25,22.27s-23.26-10-23.26-22.27,10.42-22.26,23.26-22.26S139.87,263.48,139.87,275.77Z"/><path class="cls-5" d="M306.5,275.77c0,12.3-10.41,22.27-23.25,22.27S260,288.07,260,275.77s10.4-22.26,23.25-22.26S306.5,263.48,306.5,275.77Z"/><path class="cls-1" d="M174.55,258.75h50.12c20.22-62.18,59.79-136.3,113.29-115.4-29.65-35.07-80.4-56.24-138-56.24s-108.38,21.17-138,56.24C112.39,119,153.33,195.24,174.55,258.75Z"/><path class="cls-6" d="M213.6,304.59h-.07c-5.12,0-8.46-3.32-11-6.23a3.29,3.29,0,0,1-.43-.7,9.35,9.35,0,0,0-.2-1,1.62,1.62,0,0,0-.56-.83c-.59-1.72-1.14-3.71-1.4-4.37v4h0v-4c-.44,1.09-1.62,5.82-2.59,6.93-2.55,2.91-5.89,6.23-11,6.23h-.06c-1,0-1.85.82-2.69.66v2.3c0,2.94,2.91,13.36,16.35,13.36s16.36-10.42,16.36-13.36v-2.3C215.45,305.41,214.57,304.59,213.6,304.59Z"/><path class="cls-7" d="M199.88,291.43c.19,4.92.14,9.83.22,14.74-.08,4.92,0,9.83-.22,14.74-.19-4.91-.14-9.82-.22-14.74C199.74,301.26,199.69,296.35,199.88,291.43Z"/><path class="cls-3" d="M226.59,289.93a1.51,1.51,0,1,1,0,3A1.51,1.51,0,1,1,226.59,289.93Z"/><path class="cls-3" d="M218.85,291.43a1.52,1.52,0,1,1,0,3A1.52,1.52,0,1,1,218.85,291.43Z"/><path class="cls-3" d="M215.31,296.62a1.52,1.52,0,1,1,0,3A1.52,1.52,0,1,1,215.31,296.62Z"/><path class="cls-3" d="M224.07,297.37a1.51,1.51,0,1,1,0,3A1.51,1.51,0,1,1,224.07,297.37Z"/><path class="cls-3" d="M231.17,294.34a1.52,1.52,0,1,1,0,3A1.52,1.52,0,1,1,231.17,294.34Z"/><path class="cls-3" d="M199.55,279c.38,6,2,12.27-.57,18.33a15.18,15.18,0,0,1-6.61,6.79,23.76,23.76,0,0,1-9,2.7,31.71,31.71,0,0,1-18.1-3.61,23.43,23.43,0,0,1-7.13-5.95,18,18,0,0,1-3.6-8.41c1.5,6,6,10.6,11.35,13.18a31.84,31.84,0,0,0,17.3,3c5.77-.56,11.85-3.1,14.46-8.36a19.4,19.4,0,0,0,1.8-8.59C199.56,285.06,199.35,282,199.55,279Z"/><path class="cls-3" d="M200.39,279c.39,6-.77,12.44,1.91,17.71s8.7,7.8,14.46,8.36a31.84,31.84,0,0,0,17.3-3c5.32-2.58,9.86-7.2,11.35-13.18a18.07,18.07,0,0,1-3.59,8.41,23.79,23.79,0,0,1-7.13,5.95,31.76,31.76,0,0,1-18.11,3.61,23.81,23.81,0,0,1-9-2.7,15.18,15.18,0,0,1-6.61-6.79C198.36,291.23,200,284.93,200.39,279Z"/><path class="cls-3" d="M173.29,289.93a1.51,1.51,0,1,0,0,3A1.51,1.51,0,1,0,173.29,289.93Z"/><path class="cls-3" d="M181,291.43a1.52,1.52,0,1,0,0,3A1.52,1.52,0,1,0,181,291.43Z"/><path class="cls-3" d="M184.56,296.62a1.52,1.52,0,1,0,0,3A1.52,1.52,0,1,0,184.56,296.62Z"/><path class="cls-3" d="M175.8,297.37a1.51,1.51,0,1,0,0,3A1.51,1.51,0,1,0,175.8,297.37Z"/><path class="cls-3" d="M168.7,294.34a1.52,1.52,0,1,0,0,3A1.52,1.52,0,1,0,168.7,294.34Z"/><path class="cls-3" d="M226.43,263.27c0,9.31-12,24-26.88,24s-26.88-14.66-26.88-24,12-11.44,26.88-11.44S226.43,254,226.43,263.27Z"/><path class="cls-8" d="M179.47,260.71c-5.15,5.12.65,19.18,8.07,13.9a16,16,0,0,0,4.42-5c2.15-3.43,5-5,9-5.79,2.76-.57,8.74-1,8.58-5C209.26,253.29,186.28,253.93,179.47,260.71Z"/><rect class="cls-9" width="400" height="400"/></g></g></svg>