<svg xmlns="http://www.w3.org/2000/svg" viewBox="0 0 400 400"><defs><style>.cls-1{isolation:isolate;}.cls-2{fill:#b198a0;}.cls-3{fill:#cbadb5;}.cls-4{fill:#6b5c60;}.cls-5{fill:#fffcfd;}.cls-6{fill:#232827;}.cls-10,.cls-11,.cls-7{fill:none;}.cls-7{stroke:#656e6d;stroke-linejoin:round;stroke-width:0.73px;mix-blend-mode:color-burn;}.cls-10,.cls-7{stroke-linecap:round;}.cls-8{fill:#a89098;}.cls-9{fill:#948087;}.cls-10{stroke:#a89098;stroke-miterlimit:10;stroke-width:0.85px;}</style></defs><g class="cls-1"><g id="Calque_2" data-name="Calque 2"><g id="Calque_1-2" data-name="Calque 1"><path class="cls-2" d="M317.73,213.17c-18.73,49.69-72.32,58-117.67,58s-93-7.42-117.69-54.67c-35.73-68.3-13.83-142.4,117.68-142.4S342.86,146.56,317.73,213.17Z"/><path class="cls-3" d="M301.38,206a15.24,15.24,0,0,0,1.28-6.14c0-8.83-7.47-16-16.68-16a16.38,16.38,0,0,0-16.58,14.74c-18.81-2.76-41.57-4-68.94-3.6-27.62.42-50.66,2.39-69.72,5.76,0-.3.09-.6.09-.91,0-8.83-7.47-16-16.69-16s-16.69,7.16-16.69,16a15.49,15.49,0,0,0,2.69,8.66c-44.14,15.61-53.38,44-42.95,81.69,15.89,57.43,97.91,62.41,143.27,62.41s129.77.35,143.26-62.41C352.49,249.36,343.93,220.58,301.38,206Z"/><path class="cls-4" d="M293.14,199.81A7.17,7.17,0,1,1,286,193,7,7,0,0,1,293.14,199.81Z"/><path class="cls-5" d="M164.71,177.08a10.79,10.79,0,1,1-10.77-10.32A10.55,10.55,0,0,1,164.71,177.08Z"/><path class="cls-6" d="M153.76,172.94a5.46,5.46,0,0,0-5.86,5.62,5.87,5.87,0,1,0,5.86-5.62Zm-3,7.93a1,1,0,1,1,1.1-1.05A1.07,1.07,0,0,1,150.76,180.87Zm1-2.55a2.06,2.06,0,1,1,2.15-2.06A2.09,2.09,0,0,1,151.79,178.32Z"/><path class="cls-7" d="M138.23,166.06c1-5.64,6.88-9.11,13.75-6.77"/><path class="cls-5" d="M235.4,177.08a10.79,10.79,0,1,0,10.77-10.32A10.54,10.54,0,0,0,235.4,177.08Z"/><path class="cls-6" d="M240.48,178.56a5.87,5.87,0,0,0,11.73,0,5.46,5.46,0,0,0-5.85-5.62A5.76,5.76,0,0,0,240.48,178.56Zm7.77,1.26a1.1,1.1,0,1,1,1.1,1.05A1.07,1.07,0,0,1,248.25,179.82Zm-2.08-3.56a2.15,2.15,0,1,1,2.15,2.06A2.12,2.12,0,0,1,246.17,176.26Z"/><path class="cls-7" d="M261.9,166.06c-1-5.64-6.87-9.11-13.76-6.77"/><path class="cls-8" d="M267.19,86.12a114.37,114.37,0,0,1,36.74,26.63s0,0,0,0c34.57-5.31,32.75-49.86-6-56.18s-30.83,29.49-30.83,29.49Z"/><path class="cls-9" d="M300.35,109c17.71-6,15.2-31-7.84-34.79-17.78-2.89-20.11,8.13-20,14.52A114.85,114.85,0,0,1,300.35,109Z"/><path class="cls-8" d="M132.92,86.12a114.48,114.48,0,0,0-36.74,26.63h0c-34.56-5.31-32.75-49.86,6-56.18s30.82,29.49,30.82,29.49A.24.24,0,0,0,132.92,86.12Z"/><path class="cls-9" d="M99.77,109c-17.72-6-15.2-31,7.83-34.79,17.78-2.89,20.11,8.13,20,14.52A114.6,114.6,0,0,0,99.77,109Z"/><path class="cls-5" d="M109,282.44v23.48a8,8,0,0,0,8.22,7.87l16.47,3.2a8.06,8.06,0,0,0,8.23-7.87v-13.3C127.51,292.32,116.86,287.54,109,282.44Z"/><path class="cls-5" d="M258.23,294.76v14.36a8.05,8.05,0,0,0,8.22,7.87l16.48-3.2a8,8,0,0,0,8.22-7.87V281.6c0-.3-.06-.61-.09-.92C283.14,285.93,272.48,291,258.23,294.76Z"/><path class="cls-10" d="M86.24,252.47s3.9,49.18,111.47,49.18,116.17-49.18,116.17-49.18"/><path class="cls-4" d="M121.3,199.81a7.17,7.17,0,1,1-7.16-6.86A7,7,0,0,1,121.3,199.81Z"/><rect class="cls-11" width="400" height="400"/></g></g></g></svg>