<svg xmlns="http://www.w3.org/2000/svg" viewBox="0 0 400 400"><defs><style>.cls-1{fill:#e85320;}.cls-2{fill:#e5e1c5;}.cls-3{fill:#3d2115;}.cls-4{fill:#663b2e;}.cls-5{fill:#fff;}.cls-6{fill:#f29e8f;opacity:0.48;}.cls-7{fill:none;}</style></defs><g id="Calque_2" data-name="Calque 2"><g id="Calque_1-2" data-name="Calque 1"><path class="cls-1" d="M52.71,170.07c12,17.87,33.41,7.14,52.93-10.21s34.28-29.29,19.27-45C102.31,91.34,21.6,56.14,10.7,67.23S33.27,141.16,52.71,170.07Z"/><path class="cls-2" d="M65.78,161.91c9.6,9.9,27.44,9,39.86-2s14.68-28,5.07-37.91S47,92.62,40.87,98.08,56.17,152,65.78,161.91Z"/><path class="cls-1" d="M347.29,170.07c-12,17.87-33.41,7.14-52.92-10.21s-34.28-29.29-19.27-45c22.59-23.57,103.3-58.77,114.19-47.68S366.73,141.16,347.29,170.07Z"/><path class="cls-2" d="M334.22,161.91c-9.59,9.9-27.44,9-39.85-2s-14.68-28-5.07-37.91S353,92.62,359.14,98.08,343.83,152,334.22,161.91Z"/><path class="cls-2" d="M352.39,196.54c-31.77,79.08-116.2,111.72-153.23,111.72S77.08,281.37,45.93,196.54c-27.62-75.21,68.33-83.33,153-83.33S381.33,124.45,352.39,196.54Z"/><path class="cls-1" d="M201.62,308.15a33.79,33.79,0,0,0,3.71-.53c10.16-122.79,95.95-127.27,149.61-149.87-15.21-37.64-89.59-52.09-155.87-52.09-67,0-141.08,12.65-155.35,52.08,53.64,22.67,139.78,27.33,150,150,1.22.21,2.4.35,3.53.44.67,0,1.32.08,2,.08h.14C200.06,308.26,200.84,308.21,201.62,308.15Z"/><path class="cls-3" d="M226.28,292.55c0,9.34-12.06,24-26.95,24s-27-14.7-27-24,12.06-11.47,27-11.47S226.28,283.23,226.28,292.55Z"/><path class="cls-4" d="M179.19,290c-5.16,5.13.66,19.24,8.1,13.94a15.89,15.89,0,0,0,4.43-5c2.15-3.44,5-5,9-5.79,2.78-.58,8.77-1,8.6-5C209.06,282.54,186,283.18,179.19,290Z"/><path class="cls-3" d="M115.87,240.52a7.2,7.2,0,1,1-7.19-6.88A7,7,0,0,1,115.87,240.52Z"/><path class="cls-5" d="M114,237.78a2.33,2.33,0,1,1-2.33-2.24A2.28,2.28,0,0,1,114,237.78Z"/><path class="cls-3" d="M115.82,234.86a9.1,9.1,0,0,0-5.75-2,14.61,14.61,0,0,0-3,.28,10.73,10.73,0,0,0-2.78.87c-.91.41-1.77,1-2.72,1.5A13.34,13.34,0,0,1,98.37,237a7,7,0,0,1-3.63,0,9,9,0,0,1-3.06-1.48c2.2.47,4.35.63,6.07-.2S101,233,103.24,232a11,11,0,0,1,3.47-1,12.87,12.87,0,0,1,3.56.08C112.62,231.47,114.93,232.81,115.82,234.86Z"/><path class="cls-3" d="M94.93,233.64a11.48,11.48,0,0,0,4.1.18,22.2,22.2,0,0,0,4-1.07A5.69,5.69,0,0,1,99.2,235a5.84,5.84,0,0,1-2.32-.16A4.16,4.16,0,0,1,94.93,233.64Z"/><path class="cls-3" d="M97.24,232.15a9.05,9.05,0,0,0,2.12.13c.69,0,1.37-.09,2.06-.18,1.38-.15,2.76-.41,4.29-.45a8.93,8.93,0,0,1-4.15,1.58,7,7,0,0,1-2.28-.08A3.53,3.53,0,0,1,97.24,232.15Z"/><path class="cls-3" d="M282.8,240.52a7.19,7.19,0,1,0,7.18-6.88A7,7,0,0,0,282.8,240.52Z"/><path class="cls-5" d="M284.62,237.78a2.34,2.34,0,1,0,2.34-2.24A2.29,2.29,0,0,0,284.62,237.78Z"/><path class="cls-3" d="M282.83,234.86c.89-2.05,3.22-3.39,5.56-3.76A12.87,12.87,0,0,1,292,231a11,11,0,0,1,3.48,1c2.19,1,3.75,2.58,5.48,3.35s3.87.67,6.06.2a8.79,8.79,0,0,1-3,1.48,7,7,0,0,1-3.64,0,13.34,13.34,0,0,1-3.19-1.45c-1-.55-1.81-1.09-2.71-1.5a10.8,10.8,0,0,0-2.79-.87,14.64,14.64,0,0,0-3-.28A9.16,9.16,0,0,0,282.83,234.86Z"/><path class="cls-3" d="M303.73,233.64a4.07,4.07,0,0,1-2,1.15,5.85,5.85,0,0,1-2.32.16,5.71,5.71,0,0,1-3.84-2.2,22.1,22.1,0,0,0,4,1.07A11.53,11.53,0,0,0,303.73,233.64Z"/><path class="cls-3" d="M301.41,232.15a3.47,3.47,0,0,1-2,1,7,7,0,0,1-2.28.08,8.93,8.93,0,0,1-4.15-1.58c1.53,0,2.91.3,4.29.45.69.09,1.37.14,2.06.18A8.94,8.94,0,0,0,301.41,232.15Z"/><path class="cls-6" d="M277,260.48c-11.89,0-21.52,9.22-21.52,20.6a19.83,19.83,0,0,0,3.41,11.1,205.32,205.32,0,0,0,36.32-22.05A21.72,21.72,0,0,0,277,260.48Z"/><path class="cls-6" d="M136.58,292.63a19.86,19.86,0,0,0,3.71-11.55c0-11.38-9.63-20.6-21.52-20.6a21.69,21.69,0,0,0-18.53,10.15A185.52,185.52,0,0,0,136.58,292.63Z"/><rect class="cls-7" width="400" height="400"/></g></g></svg>