<svg xmlns="http://www.w3.org/2000/svg" viewBox="0 0 400 400"><defs><style>.cls-1{fill:#b2764e;}.cls-2{fill:#f5cb9c;}.cls-3{fill:#f3f9fc;}.cls-13,.cls-4{fill:none;}.cls-4{stroke:#2e2a2b;stroke-linecap:round;stroke-linejoin:round;stroke-width:0.75px;}.cls-5{fill:#282125;}.cls-6{fill:#1f1a1c;}.cls-7{fill:#fff7ef;}.cls-8{fill:#f0a674;}.cls-9{fill:#885c3b;}.cls-10{fill:#443e42;}.cls-11{fill:#2e2a2b;}.cls-12{fill:#524a50;}</style></defs><g id="Calque_2" data-name="Calque 2"><g id="Calque_1-2" data-name="Calque 1"><path class="cls-1" d="M346.56,64.91c-33.13-24.06-50.92,6.72-57.63,29.92-.16.55,20.87,13.18,26.44,17,6.16,4.17,21.49,9.13,22.13,8.7C348,113.2,379.7,89,346.56,64.91Z"/><path class="cls-2" d="M338.63,76.18C314.85,58,303.27,80.84,298.6,97c-.11.39,14.5,9.16,18.37,11.78,4.28,2.9,14.94,6.34,15.36,6C339.64,109.71,362.42,94.39,338.63,76.18Z"/><path class="cls-1" d="M76.07,127.22c.62.43,16-4.54,22.12-8.7,5.58-3.77,26.6-16.41,26.43-17-6.71-23.21-24.49-54-57.62-29.92S65.55,119.93,76.07,127.22Z"/><path class="cls-2" d="M81.22,121.51c.43.31,11.09-3.15,15.37-6,3.87-2.62,18.47-11.4,18.36-11.77-4.67-16.12-16.24-39-40-20.79S73.92,116.45,81.22,121.51Z"/><path class="cls-2" d="M365.75,150.59c-20-31.26-38.43-47.82-75.68-60.91-80-28.14-184.91-14.94-250.18,68.5C12.69,195,17.36,224,56.58,262.6c74,72.81,216.81,89.7,289.15,9C395.5,216,390.85,189.84,365.75,150.59Z"/><path class="cls-1" d="M290.07,89.68c-80-28.14-184.91-14.94-250.18,68.5-2.33,3.14-4.4,6.22-6.25,9.26,173.66-19.35,93.71,94.9,169.76,94.9S218.67,134,361.87,144.68C343.28,117.2,324.9,101.93,290.07,89.68Z"/><path class="cls-3" d="M212.33,287.93c-2.63.48-6.71.6-8.09-1.91-.5-.89-.69-1.14-1.05-1a9,9,0,0,1-5.11,2.82,2.46,2.46,0,0,1-1.11,0,7.63,7.63,0,0,1-5.44-.31,2.64,2.64,0,0,1-.29-.15,11.54,11.54,0,0,1-1.16-.5v9.63c0,.44,1.93,5.62,13.46,5.62s13-5.18,13-5.62v-9.41A13.25,13.25,0,0,1,212.33,287.93Z"/><path class="cls-4" d="M203.51,267.41v15.28c0,5.13-8.33,10.6-16.64-.94"/><path class="cls-4" d="M203.3,267.41v15.28c0,5.13,8.32,10.6,16.64-.94"/><path class="cls-5" d="M147.6,223.13c0,12.37-10.47,22.4-23.39,22.4s-23.39-10-23.39-22.4,10.47-22.39,23.39-22.39S147.6,210.77,147.6,223.13Z"/><path class="cls-6" d="M138.51,227.4A11.93,11.93,0,1,1,126.59,216,11.68,11.68,0,0,1,138.51,227.4Z"/><path class="cls-7" d="M108.25,226.87c0-10.06,8.52-18.22,19-18.22a19,19,0,0,1,18.18,12.78c-1.62-9.18-10-16.19-20-16.19-11.21,0-20.31,8.71-20.31,19.45A19.49,19.49,0,0,0,118,242.75,18.1,18.1,0,0,1,108.25,226.87Z"/><path class="cls-7" d="M126.38,218a5,5,0,1,1-5-4.78A4.88,4.88,0,0,1,126.38,218Z"/><path class="cls-7" d="M119.72,226a3.33,3.33,0,1,1-3.33-3.2A3.25,3.25,0,0,1,119.72,226Z"/><path class="cls-5" d="M259.2,223.13c0,12.37,10.47,22.4,23.38,22.4s23.39-10,23.39-22.4-10.47-22.39-23.39-22.39S259.2,210.77,259.2,223.13Z"/><path class="cls-6" d="M268.28,227.4A11.94,11.94,0,1,0,280.21,216,11.69,11.69,0,0,0,268.28,227.4Z"/><path class="cls-7" d="M298.55,226.87c0-10.06-8.52-18.22-19-18.22a19,19,0,0,0-18.17,12.78c1.61-9.18,10-16.19,20-16.19,11.21,0,20.31,8.71,20.31,19.45a19.48,19.48,0,0,1-12.83,18.06A18.09,18.09,0,0,0,298.55,226.87Z"/><path class="cls-7" d="M280.42,218a5,5,0,1,0,5-4.78A4.88,4.88,0,0,0,280.42,218Z"/><path class="cls-7" d="M287.07,226a3.33,3.33,0,1,0,3.32-3.2A3.26,3.26,0,0,0,287.07,226Z"/><path class="cls-8" d="M171.16,270.78c0,8-6.72,14.39-15,14.39s-15-6.44-15-14.39,6.72-14.37,15-14.37S171.16,262.84,171.16,270.78Z"/><path class="cls-8" d="M265.67,270.78c0,8-6.72,14.39-15,14.39s-15-6.44-15-14.39,6.71-14.37,15-14.37S265.67,262.84,265.67,270.78Z"/><path class="cls-9" d="M58.48,157.38c3.63,0,7.09,1.48,10.72,1.33a.15.15,0,0,0,0-.29c-3.6-.19-7.1-1.33-10.72-1.34a.15.15,0,0,0,0,.3Z"/><path class="cls-9" d="M67.1,146.34c3.38.94,6.47,2.75,9.9,3.51a.14.14,0,0,0,.07-.27c-3.33-1.08-6.5-2.65-9.88-3.55a.16.16,0,0,0-.09.31Z"/><path class="cls-9" d="M73.69,131.75a32.12,32.12,0,0,1,7.41,2.59.13.13,0,0,0,.12-.22,21.39,21.39,0,0,0-7.43-2.72c-.24,0-.34.31-.1.35Z"/><path class="cls-9" d="M87.71,142.79a19.38,19.38,0,0,1,3.44,1c1.21.48,2.36,1.09,3.54,1.63a.15.15,0,0,0,.15-.25,19.88,19.88,0,0,0-7-2.7c-.21,0-.3.28-.09.32Z"/><path class="cls-9" d="M91.37,124.66c1.12.5,2.2,1,3.27,1.64s2.2,1.31,3.33,1.88c.16.08.37-.14.21-.26a20.31,20.31,0,0,0-3.3-2c-1.09-.57-2.21-1.11-3.35-1.59-.21-.08-.36.27-.16.36Z"/><path class="cls-9" d="M112.72,128.66a13.7,13.7,0,0,1,1.23,1.61,12.8,12.8,0,0,0,1.31,1.87c.11.11.33,0,.27-.16a8.89,8.89,0,0,0-1.16-2,13,13,0,0,0-1.29-1.65c-.23-.25-.59.12-.36.36Z"/><path class="cls-9" d="M108.27,113.09l1.84,2a24.86,24.86,0,0,0,1.88,2c.09.08.27,0,.19-.15-.56-.71-1.2-1.35-1.82-2l-1.9-2c-.12-.12-.3.06-.19.19Z"/><path class="cls-9" d="M122.68,100.34c2.52,1.9,3.74,4.82,5.29,7.45.12.21.48.07.4-.16a18.2,18.2,0,0,0-2.21-4.24A13.38,13.38,0,0,0,122.9,100c-.23-.16-.43.2-.22.36Z"/><path class="cls-9" d="M125.88,117.55c.63.89,1.25,1.79,1.85,2.7s1.24,2,2,3c.08.12.33.06.26-.11a16.62,16.62,0,0,0-1.76-3.09c-.61-.93-1.24-1.83-1.88-2.74-.18-.26-.61,0-.43.25Z"/><path class="cls-9" d="M139.6,91.38c.59.92,1.2,1.82,1.82,2.73s1.2,1.78,1.89,2.61c.1.12.29,0,.21-.17a32.09,32.09,0,0,0-1.81-2.67c-.62-.88-1.25-1.76-1.91-2.62-.09-.11-.28,0-.2.12Z"/><path class="cls-9" d="M143.65,109.51a15.86,15.86,0,0,0,1.15,4,12.68,12.68,0,0,0,2.21,3.58c.12.14.33,0,.24-.18a38.09,38.09,0,0,1-2-3.58,15.76,15.76,0,0,1-1.24-3.91c0-.24-.38-.13-.35.1Z"/><path class="cls-9" d="M159.77,101.05a30.81,30.81,0,0,0,1.68,8c.05.12.23,0,.2-.09-.26-1.34-.6-2.67-.87-4s-.51-2.64-.75-4c0-.14-.28-.11-.26,0Z"/><path class="cls-9" d="M171.37,85.58c.78,2.64,1.22,5.35,2.07,8,0,.08.15,0,.13,0-.77-2.64-1.21-5.35-2-8,0-.09-.18-.05-.15,0Z"/><path class="cls-9" d="M173.77,101.09c.2,1.4.38,2.81.62,4.22a21,21,0,0,0,1,4.19.15.15,0,0,0,.28-.08c-.31-1.41-.65-2.81-.92-4.22s-.49-2.8-.72-4.19c0-.2-.31-.11-.29.08Z"/><path class="cls-9" d="M158.06,85.62a30.17,30.17,0,0,0,.89,4.07,17.47,17.47,0,0,0,1.61,3.93.19.19,0,0,0,.34-.15c-.45-1.34-1-2.64-1.48-4a29.88,29.88,0,0,1-1-4c0-.25-.41-.14-.38.11Z"/><path class="cls-9" d="M186.55,79.85c.41,2.8.75,5.62,1.26,8.4,0,.14.26.11.25,0-.25-2.84-.76-5.64-1.23-8.45,0-.19-.3-.1-.28.08Z"/><path class="cls-9" d="M204.71,80.28a69.25,69.25,0,0,1,.4,7,.14.14,0,0,0,.27,0,28.23,28.23,0,0,0-.42-7.11c0-.17-.28-.09-.25.06Z"/><path class="cls-9" d="M223.26,82.91c0,1.47-.08,3,0,4.42a.11.11,0,1,0,.21,0c.09-1.47,0-3,0-4.42a.13.13,0,0,0-.25,0Z"/><path class="cls-9" d="M248,87.74c-.48,2.86-1.31,5.62-2.05,8.42,0,.11.13.15.17,0a46.51,46.51,0,0,0,2.1-8.4c0-.14-.2-.2-.22-.06Z"/><path class="cls-9" d="M270.68,89.48c-1.94,3.4-2.64,7.37-3.71,11.09-.05.16.19.22.24.07,1.45-3.6,2-7.52,3.69-11,.07-.14-.14-.27-.22-.13Z"/><path class="cls-9" d="M289.07,110.86c1.74-3.21,3.86-6.18,5.75-9.31.09-.15-.13-.26-.23-.13a77.91,77.91,0,0,0-5.8,9.28c-.09.18.18.35.28.16Z"/><path class="cls-9" d="M307.6,119.83a71.67,71.67,0,0,1,7.8-4.49c.15-.08.05-.35-.12-.28a36.42,36.42,0,0,0-7.92,4.37c-.24.17,0,.57.24.4Z"/><path class="cls-9" d="M328.55,135.3c2.79-.4,5.5-1.2,8.24-1.83.14,0,.12-.27,0-.25-2.83.24-5.52,1.24-8.31,1.71-.24,0-.13.4.1.37Z"/><path class="cls-9" d="M95.59,155.69c4.42-.31,8.19,1.9,12.3,3.1.24.07.41-.31.17-.42-3.92-1.73-8.07-3.59-12.47-3.13-.28,0-.29.47,0,.45Z"/><path class="cls-9" d="M112,144.17c2.55,1.84,4.94,4.11,7.91,5.28.19.07.31-.24.14-.33a36.52,36.52,0,0,1-4-2.55c-1.27-.93-2.5-1.91-3.77-2.82-.26-.19-.5.24-.25.42Z"/><path class="cls-9" d="M137,135.19a21.77,21.77,0,0,0,3.45,5.79c.12.14.35,0,.25-.19A34.59,34.59,0,0,1,137.5,135c-.13-.33-.67-.19-.54.15Z"/><path class="cls-9" d="M156.7,125.91c1.2,3.42,2.4,6.87,3.86,10.19.08.2.39.05.34-.15-.92-3.48-2.38-6.82-3.58-10.21-.14-.39-.76-.22-.62.17Z"/><path class="cls-9" d="M178.65,121.46c.4,1.69.81,3.38,1.18,5.09s.64,3.37,1,5.06c0,.16.28.13.27,0-.18-3.47-1.2-6.88-2-10.24a.22.22,0,0,0-.42.12Z"/><path class="cls-9" d="M193.47,99.28c.41,3.86,1.46,7.61,1.73,11.5a.16.16,0,0,0,.32,0c.22-3.88-1.16-7.67-1.59-11.5,0-.29-.49-.3-.46,0Z"/><path class="cls-9" d="M213.33,106.8c0,2.8,0,5.6.09,8.41,0,.1.15.1.16,0,.06-2.81.08-5.61.08-8.41a.17.17,0,0,0-.33,0Z"/><path class="cls-9" d="M239.62,111.22c-.41,3.23-.41,6.49-.68,9.73,0,.12.19.15.21,0,.48-3.24.55-6.51,1-9.76,0-.32-.47-.32-.51,0Z"/><path class="cls-9" d="M211,97.06a33.79,33.79,0,0,0-.49,8,.11.11,0,0,0,.22,0c.14-2.66,0-5.32.34-8a0,0,0,1,0-.07,0Z"/><path class="cls-9" d="M227.32,96.67c.78,4.68.47,9.41.8,14.11a.22.22,0,0,0,.43,0,61,61,0,0,0-.85-14.21c0-.25-.42-.15-.38.1Z"/><path class="cls-9" d="M197.59,126.33c2,5.41,1.77,11.29,3.35,16.8a.18.18,0,0,0,.35-.1c-1-5.62-1.18-11.46-3.24-16.82-.11-.29-.57-.17-.46.12Z"/><path class="cls-9" d="M248.44,129.76a15.32,15.32,0,0,0-2.45,6.67c0,.08.11.11.13,0a16.89,16.89,0,0,1,2.5-6.59.11.11,0,1,0-.18-.11Z"/><path class="cls-9" d="M229.87,128.92c-.46,3.69-1,7.36-1.64,11a.11.11,0,0,0,.21.06,66.85,66.85,0,0,0,1.65-11.09c0-.14-.2-.14-.22,0Z"/><path class="cls-9" d="M260.31,101.05c.26,4.63-1.69,8.85-2.86,13.23-.06.2.24.27.31.08,1.56-4.32,3.36-8.61,2.9-13.31,0-.23-.37-.24-.35,0Z"/><path class="cls-9" d="M276.85,116.94c-2.14,5.3-5.06,10.25-7.37,15.47-.05.12.11.22.17.1,2.53-5.15,5.43-10.11,7.45-15.5.06-.16-.19-.22-.25-.07Z"/><path class="cls-9" d="M290.5,132.42c-2.16,3.22-5.06,5.9-7,9.3a.06.06,0,1,0,.1.06c2-3.33,4.86-6.05,7-9.27.06-.1-.1-.19-.17-.09Z"/><path class="cls-9" d="M307,139c-3.06,3.21-6.44,6.08-9.49,9.29a.16.16,0,0,0,.22.22,97.91,97.91,0,0,0,9.47-9.31c.12-.13-.08-.33-.2-.2Z"/><path class="cls-9" d="M266.58,145.24c-1.67,3-3.93,5.54-5.82,8.37-.1.15.13.33.25.2a40.25,40.25,0,0,0,5.76-8.46c.06-.12-.12-.23-.19-.11Z"/><path class="cls-9" d="M124.42,161.74c3.84,1.5,7.13,4.19,11.12,5.33a.11.11,0,0,0,.06-.21,42,42,0,0,1-5.82-2.78,33.87,33.87,0,0,0-5.31-2.51c-.11,0-.15.13,0,.17Z"/><path class="cls-9" d="M138,154.72c3.68,2.37,6.05,6.16,9.51,8.8.09.07.21-.09.12-.16-3.27-2.83-5.65-6.75-9.47-8.92a.16.16,0,0,0-.16.28Z"/><path class="cls-9" d="M155.29,150.62a91.71,91.71,0,0,0,5,10.64c.05.09.17,0,.13-.08-1.58-3.56-3.61-6.93-4.94-10.61,0-.09-.19,0-.15.05Z"/><path class="cls-9" d="M171.34,144.88a119.84,119.84,0,0,0,4.12,13.27c0,.11.24.07.2-.06-1.46-4.4-2.85-8.8-4.11-13.27a.11.11,0,0,0-.21.06Z"/><path class="cls-9" d="M183.24,144.89c.8,4.41,1.46,8.83,2.08,13.27,0,.15.28.11.27,0a97.18,97.18,0,0,0-2-13.32c0-.2-.36-.11-.32.09Z"/><path class="cls-9" d="M207.58,146.62c0,3.25-.09,6.49-.36,9.73a.08.08,0,0,0,.16,0,52.94,52.94,0,0,0,.47-9.75.14.14,0,1,0-.27,0Z"/><path class="cls-9" d="M210.89,126.71c0,2.65-.09,5.31,0,8a.1.1,0,0,0,.19,0c.13-2.65,0-5.31,0-8a.13.13,0,0,0-.26,0Z"/><path class="cls-9" d="M222.39,151.93c-.23,2.06-.45,4.12-.62,6.19a35.58,35.58,0,0,0-.16,6.19.13.13,0,0,0,.26,0c.19-2.05.22-4.13.35-6.19s.32-4.13.52-6.19c0-.23-.32-.22-.35,0Z"/><path class="cls-9" d="M237.28,155a57.29,57.29,0,0,1-1.62,7.09.09.09,0,0,0,.18,0,35.67,35.67,0,0,0,1.68-7.07c0-.16-.21-.23-.24-.07Z"/><path class="cls-9" d="M246,165.17c-.88,1.44-1.57,3-2.43,4.44,0,0,0,.08.06,0,.91-1.42,1.6-3,2.49-4.4a.07.07,0,1,0-.12-.07Z"/><path class="cls-9" d="M181.24,179.41c2.16,3.77,3.12,8,5,12,.05.1.23,0,.19-.08-1.45-4-2.79-8.27-5-12-.06-.11-.23,0-.17.1Z"/><path class="cls-9" d="M193.15,170.56c.75,5.08,2.63,9.92,3.32,15,0,.14.25.11.24,0-.17-5.19-2.4-10-3.27-15.07,0-.2-.31-.11-.29.08Z"/><path class="cls-9" d="M211.6,181.51A47.38,47.38,0,0,0,210.46,194a.14.14,0,0,0,.27,0,89.47,89.47,0,0,1,1.37-12.32c.06-.32-.43-.46-.5-.13Z"/><path class="cls-9" d="M193.18,210c.41.88.82,1.76,1.28,2.62,0,.08.18,0,.14-.06-.36-.91-.78-1.8-1.18-2.7-.07-.17-.32,0-.24.14Z"/><path class="cls-9" d="M199.74,200.19c.4,2.51.81,5,1.29,7.51,0,.1.19.08.18,0-.3-2.54-.79-5-1.18-7.56,0-.19-.31-.11-.29.07Z"/><path class="cls-9" d="M201,220.06c0,3.81-.17,7.83.84,11.53,0,.15.24.08.22-.06-.27-1.94-.58-3.86-.69-5.82s-.13-3.76-.14-5.65c0-.14-.22-.14-.23,0Z"/><path class="cls-9" d="M212.57,205.88a68,68,0,0,0-2.06,14.63c0,.11.16.1.17,0,.54-4.87.82-9.83,2.07-14.58a.09.09,0,0,0-.18-.05Z"/><path class="cls-9" d="M224.6,190c-1.3,4.84-2.67,9.69-3.76,14.59a.07.07,0,0,0,.13,0c1.4-4.81,2.51-9.73,3.67-14.61,0,0,0,0,0,0Z"/><path class="cls-9" d="M236.54,176.68A74.52,74.52,0,0,0,232,189.51a.08.08,0,0,0,.15.05c.74-2.19,1.38-4.4,2.15-6.58s1.52-4.19,2.35-6.27c0,0-.06-.07-.08,0Z"/><path class="cls-9" d="M223.65,173.56c-.78,4.25-1,8.59-1.57,12.86,0,.09.12.13.14,0,.93-4.22.95-8.57,1.72-12.82,0-.19-.26-.27-.29-.08Z"/><path class="cls-9" d="M204.8,164.75c-.07,2.22-.11,4.43-.14,6.64s-.1,4.43.05,6.64a.13.13,0,0,0,.25,0c.14-2.21.08-4.43,0-6.64s-.08-4.42-.14-6.64a0,0,0,1,0-.07,0Z"/><path class="cls-9" d="M170.53,168.32A40.89,40.89,0,0,0,174.25,179c.05.07.19,0,.15-.07a93.17,93.17,0,0,1-3.7-10.61.09.09,0,0,0-.17,0Z"/><path class="cls-9" d="M156.13,174.1a61.1,61.1,0,0,0,4.61,4.35,47.48,47.48,0,0,1,4.43,4.54c.1.12.29,0,.21-.17a18.29,18.29,0,0,0-4.31-4.6,62.6,62.6,0,0,1-4.83-4.22.07.07,0,0,0-.11.1Z"/><path class="cls-9" d="M170.14,193.14c2,1.82,3.08,4.37,4.52,6.62a.1.1,0,1,0,.17-.1c-1.17-2.41-2.46-4.9-4.57-6.64-.08-.07-.2,0-.12.12Z"/><path class="cls-9" d="M181.7,198.84a39.37,39.37,0,0,0,3.25,8c.06.11.25,0,.2-.08-1.07-2.67-2.4-5.23-3.35-7.95a.05.05,0,0,0-.1,0Z"/><path class="cls-9" d="M264.1,159.4c-1.69,2.68-3.92,4.95-5.76,7.52-.06.09.08.2.15.11a62,62,0,0,0,5.79-7.53c.07-.11-.11-.21-.18-.1Z"/><path class="cls-9" d="M249.56,144.73c-1.65,3.55-3.44,7.06-4.9,10.69-.07.18.21.29.3.13,1.85-3.43,3.38-7,5-10.58.13-.28-.28-.52-.41-.24Z"/><path class="cls-9" d="M279.24,146.06c-2,2.92-3.74,6-5.67,8.9a.13.13,0,0,0,.2.16c2.36-2.64,4-5.87,5.89-8.82.17-.26-.25-.5-.42-.24Z"/><path class="cls-9" d="M280.83,95.67c-.72,2-1.57,3.85-2.34,5.78-.06.14.18.24.25.11a49.46,49.46,0,0,0,2.63-5.74c.13-.34-.42-.49-.54-.15Z"/><path class="cls-9" d="M155,186.2a46.15,46.15,0,0,1,2.31,4.34c.71,1.51,1.35,3.07,2.19,4.51.11.17.41.06.34-.14a48,48,0,0,0-2-4.61,30.56,30.56,0,0,0-2.46-4.35.24.24,0,0,0-.41.25Z"/><path class="cls-9" d="M162.55,208.89c.71,1.56,1.51,3.08,2.27,4.62s1.45,3.28,2.15,4.94a.16.16,0,0,0,.31-.09,20.44,20.44,0,0,0-2-4.91c-.81-1.57-1.68-3.11-2.45-4.71-.08-.17-.33,0-.25.15Z"/><path class="cls-9" d="M170.75,208.12a20.61,20.61,0,0,0,2.16,3.9,34.47,34.47,0,0,1,2.27,3.95.11.11,0,0,0,.21-.08,14.85,14.85,0,0,0-2.14-3.85,21.55,21.55,0,0,1-2.33-4c0-.1-.21-.06-.17,0Z"/><path class="cls-9" d="M172.55,223.47c.61,1.33,1.35,2.61,2,3.95s1.11,2.79,1.68,4.18c.08.19.43.2.4,0a13.64,13.64,0,0,0-1.44-4.24,23.5,23.5,0,0,0-2.32-4,.17.17,0,0,0-.29.17Z"/><path class="cls-9" d="M184.65,217a22.23,22.23,0,0,0,1.27,5.69c.64,1.94,1.33,3.86,2.1,5.75a.26.26,0,0,0,.5-.14,34.9,34.9,0,0,0-1.82-5.72,29.11,29.11,0,0,1-1.48-5.66c-.05-.32-.59-.24-.57.08Z"/><path class="cls-9" d="M216.18,223c0,.94,0,1.89-.05,2.83s-.14,1.9-.18,2.84c0,.18.24.19.3,0a8.77,8.77,0,0,0,.49-2.83c0-1,0-1.92,0-2.88a.3.3,0,0,0-.6,0Z"/><path class="cls-9" d="M233.34,222.62c-1.17,2.84-1.33,5.95-2.18,8.88,0,.18.22.3.3.13,1.36-2.8,1.25-6,2.29-8.9.09-.26-.31-.36-.41-.11Z"/><path class="cls-9" d="M226.58,213.43c0,1.25-.17,2.49-.32,3.73a31,31,0,0,0-.37,3.73.23.23,0,0,0,.45.06,19.46,19.46,0,0,0,.66-3.72,30.11,30.11,0,0,0,.15-3.8.29.29,0,0,0-.57,0Z"/><path class="cls-9" d="M242.58,207.75c-.05,1.66-.18,3.32-.38,5s-.5,3.31-.69,5c0,.23.32.25.39.05a21.13,21.13,0,0,0,1-4.93,38.86,38.86,0,0,0,.2-5.06.25.25,0,0,0-.5,0Z"/><path class="cls-9" d="M237.05,198.1a33.37,33.37,0,0,0-1.45,8.23.18.18,0,0,0,.35,0c.59-2.72.76-5.49,1.5-8.17a.21.21,0,0,0-.4-.11Z"/><path class="cls-9" d="M252.28,183.48a12.59,12.59,0,0,0-2,4.21,31.23,31.23,0,0,0-1,4.78c0,.22.3.24.37.05.52-1.49.73-3.08,1.13-4.61a12.39,12.39,0,0,1,1.86-4.2c.17-.24-.22-.46-.39-.23Z"/><path class="cls-9" d="M245.21,175.71a52.31,52.31,0,0,0-1.8,6.77.16.16,0,0,0,.31.08c.85-2.18,1.16-4.52,1.9-6.74.09-.26-.31-.36-.41-.11Z"/><path class="cls-9" d="M270.5,167.44a24.88,24.88,0,0,0-4.05,7.23c-.05.13.17.22.23.1a33.12,33.12,0,0,1,4.13-7c.19-.22-.13-.53-.31-.32Z"/><path class="cls-9" d="M139.89,175.2a37.46,37.46,0,0,0,7.49,6c.15.08.33-.13.19-.24-2.47-2-5-3.89-7.4-6.06-.18-.17-.45.1-.28.27Z"/><path class="cls-9" d="M83.22,160.27c.88.18,1.76.38,2.64.58a21,21,0,0,0,2.59.48c.15,0,.18-.22,0-.26-.85-.25-1.72-.39-2.59-.57s-1.73-.34-2.61-.49c-.17,0-.24.22-.07.26Z"/><path class="cls-9" d="M51,149.24c3.66,0,7.13,1.25,10.72,1.77.14,0,.2-.18.06-.21A45.93,45.93,0,0,0,51,149a.12.12,0,0,0,0,.23Z"/><path class="cls-9" d="M43.93,160.75c3.12.07,6.15,1,9.27,1,.24,0,.3-.37.06-.42a44.48,44.48,0,0,0-9.33-1.12.26.26,0,0,0,0,.52Z"/><path class="cls-9" d="M314.2,131.14a11.35,11.35,0,0,1,3.34-2.35c1.32-.69,2.69-1.27,4-1.92.15-.07.05-.32-.11-.27a28.35,28.35,0,0,0-4.21,1.8,10.47,10.47,0,0,0-3.3,2.48c-.15.18.1.44.26.26Z"/><path class="cls-9" d="M317.08,140.74a20.17,20.17,0,0,1,3.68-.74.12.12,0,0,0,0-.23,6.29,6.29,0,0,0-1.88.18,18,18,0,0,0-1.88.5.15.15,0,0,0,.08.29Z"/><path class="cls-9" d="M344.17,138.62c1.23-.4,2.5-.67,3.7-1.14a.08.08,0,0,0-.05-.15c-1.25.29-2.5.6-3.73,1-.2.06-.11.37.08.31Z"/><path class="cls-9" d="M329.78,122.69c.8-.38,1.62-.72,2.44-1.06a13.72,13.72,0,0,0,2.34-1.15c.13-.09.05-.34-.12-.28a23.77,23.77,0,0,0-2.46,1c-.82.35-1.64.7-2.44,1.09-.29.13,0,.55.24.42Z"/><path class="cls-9" d="M301.41,112a19.83,19.83,0,0,1,2.34-3.06c.91-1,1.87-1.94,2.7-3,.14-.19-.05-.55-.29-.37a19.25,19.25,0,0,0-3.08,2.77,13.3,13.3,0,0,0-2.33,3.28.38.38,0,0,0,.66.38Z"/><path class="cls-9" d="M264.15,121.72c-.3,1.6-.6,3.2-1,4.79a32.85,32.85,0,0,0-.89,4.5.19.19,0,0,0,.35.09,19.88,19.88,0,0,0,1.25-4.48,34.61,34.61,0,0,0,.63-4.85.19.19,0,0,0-.38,0Z"/><path class="cls-9" d="M259.53,85.43A86.48,86.48,0,0,0,257.8,94a.24.24,0,0,0,.47.13c1-2.72,1.27-5.68,2-8.48a.38.38,0,0,0-.73-.21Z"/><path class="cls-9" d="M292.15,118.54a40.83,40.83,0,0,0-4.9,6.72c-.07.11.1.25.19.14,1.73-2.15,3-4.64,4.76-6.8,0,0,0-.09-.05-.06Z"/><path class="cls-9" d="M302.1,127a47.19,47.19,0,0,0-3.69,6.77c0,.09.09.17.14.08,1.26-2.23,2.29-4.61,3.73-6.74.08-.11-.1-.21-.18-.11Z"/><path class="cls-10" d="M235.89,251.47c-4.7,6.74-12.74,12.88-22.11,16.27-4.83,1.74-15.91,1.76-20.73,0-9.36-3.37-17.41-9.49-22.12-16.22-2.83-4-9.24-23.4,32.46-23.4S238.7,247.46,235.89,251.47Z"/><path class="cls-11" d="M192.13,267.41a8.33,8.33,0,0,0,3.14-6.53c0-5.66-5.07-10.25-16.71-10.25a31.67,31.67,0,0,0-7.68.84C175.44,258,183.13,264,192.13,267.41Z"/><path class="cls-11" d="M235.89,251.47a31.61,31.61,0,0,0-7.68-.84c-11.64,0-16.7,4.59-16.7,10.25a8.35,8.35,0,0,0,3.13,6.54C223.64,264,231.34,258,235.89,251.47Z"/><path class="cls-12" d="M221.74,234s-8.87-7-30.71-1.68c-19.18,4.64-19.21,15-17.62,15.05s13.28-2.67,21,4S179.89,238.64,221.74,234Z"/><rect class="cls-13" width="400" height="400"/></g></g></svg>