<svg xmlns="http://www.w3.org/2000/svg" viewBox="0 0 400 400"><defs><style>.cls-1{fill:#e0dddd;}.cls-2{fill:#433c40;}.cls-3{fill:#777;}.cls-4{fill:#d7d5d5;}.cls-5{fill:#7a7b7a;}.cls-15,.cls-6{fill:none;}.cls-6{stroke:#2e2a2b;stroke-linecap:round;stroke-linejoin:round;stroke-width:0.69px;}.cls-7{fill:#443e42;}.cls-8{fill:#2e2a2b;}.cls-9{fill:#524a50;}.cls-10{fill:#282125;}.cls-11{fill:#1f1a1c;}.cls-12{fill:#fff7ef;}.cls-13{fill:#ddb6b3;}.cls-14{fill:#646564;}</style></defs><g id="Calque_2" data-name="Calque 2"><g id="Calque_1-2" data-name="Calque 1"><path class="cls-1" d="M348.87,59.1C336.18,51.57,281.2,68,272.28,98.87c-.22.73,27.72,17.51,35.13,22.53,8.2,5.54,28.58,12.13,29.4,11.56C350.79,123.28,366,69.31,348.87,59.1Z"/><path class="cls-2" d="M338.34,74.07c-8.81-5.24-47,6.2-53.2,27.62-.16.52,19.25,12.18,24.4,15.66,5.7,3.84,19.85,8.42,20.43,8C339.67,118.65,350.26,81.16,338.34,74.07Z"/><path class="cls-3" d="M60.61,143.27c.86.59,21.87-6.22,30.32-11.92,7.64-5.16,36.43-22.48,36.22-23.23-9.2-31.79-65.88-48.76-78.95-41C30.51,77.65,46.22,133.29,60.61,143.27Z"/><path class="cls-2" d="M67.69,135.45c.58.41,15.17-4.32,21-8.28,5.32-3.59,25.31-15.62,25.16-16.14-6.38-22.09-45.75-33.87-54.84-28.47C46.76,89.87,57.67,128.51,67.69,135.45Z"/><path class="cls-4" d="M360.32,156.74c-19.71-30.82-37.88-47.14-74.61-60.05C206.85,69,103.44,82,39.09,164.22c-26.81,36.3-22.21,64.88,16.44,102.93,73,71.78,213.74,88.43,285,8.82C389.65,221.2,385.05,195.42,360.32,156.74Z"/><path class="cls-5" d="M285.71,96.69C206.85,69,103.44,82,39.09,164.22c-2.29,3.09-4.34,6.14-6.18,9.12,46.69-10.29,119.91-31.89,167.37,77,0,0,15.06-110,156.21-99.4C338.17,123.82,320,108.76,285.71,96.69Z"/><path class="cls-2" d="M141.28,268.28c35.72-11.47,31.18-78-25.84-77s-85.37,44-85.37,44h0c5.53,10.08,14,20.54,25.46,31.83A195.49,195.49,0,0,0,80,287.41C80.18,287.33,105.72,279.68,141.28,268.28Z"/><path class="cls-2" d="M288.27,191.27c-57-1-61.55,65.54-25.84,77,29.45,9.44,57.08,17.35,65.89,19.84A147.84,147.84,0,0,0,340.58,276c15.08-16.83,25.08-30.91,31-43.48C364.09,222.89,336.39,192.13,288.27,191.27Z"/><path class="cls-6" d="M200.38,271.89v36.27c0,5.07-8.21,10.45-16.4-.92"/><path class="cls-6" d="M200.17,271.89v36.27c0,5.07,8.2,10.45,16.4-.92"/><path class="cls-7" d="M232.3,256.19c-4.63,6.63-12.56,12.68-21.79,16-4.76,1.73-15.7,1.74-20.43,0-9.23-3.32-17.16-9.35-21.81-16-2.8-4-9.11-23.05,32-23.05S235.07,252.22,232.3,256.19Z"/><path class="cls-8" d="M189.15,271.89a8.18,8.18,0,0,0,3.1-6.44c0-5.58-5-10.1-16.46-10.1a30.78,30.78,0,0,0-7.57.84C172.71,262.62,180.29,268.5,189.15,271.89Z"/><path class="cls-8" d="M232.3,256.19a30.67,30.67,0,0,0-7.57-.84c-11.47,0-16.47,4.52-16.47,10.1a8.22,8.22,0,0,0,3.1,6.44C220.23,268.5,227.81,262.62,232.3,256.19Z"/><path class="cls-9" d="M218.34,238.93s-8.73-6.87-30.27-1.66c-18.89,4.57-18.93,14.74-17.36,14.83s13.1-2.64,20.69,3.91S177.11,243.53,218.34,238.93Z"/><path class="cls-10" d="M145.26,228.24c0,12.19-10.32,22.08-23.06,22.08s-23-9.89-23-22.08,10.33-22.07,23-22.07S145.26,216.05,145.26,228.24Z"/><path class="cls-11" d="M136.3,232.45a11.76,11.76,0,1,1-11.74-11.25A11.51,11.51,0,0,1,136.3,232.45Z"/><path class="cls-12" d="M106.48,231.93c0-9.92,8.4-18,18.76-18a18.69,18.69,0,0,1,17.91,12.61c-1.59-9.06-9.8-16-19.73-16-11,0-20,8.58-20,19.18a19.19,19.19,0,0,0,12.64,17.79A17.84,17.84,0,0,1,106.48,231.93Z"/><path class="cls-12" d="M124.34,223.19a4.92,4.92,0,1,1-4.92-4.71A4.81,4.81,0,0,1,124.34,223.19Z"/><path class="cls-12" d="M117.79,231a3.28,3.28,0,1,1-3.28-3.14A3.21,3.21,0,0,1,117.79,231Z"/><path class="cls-10" d="M255.28,228.24c0,12.19,10.32,22.08,23.06,22.08s23.05-9.89,23.05-22.08-10.32-22.07-23.05-22.07S255.28,216.05,255.28,228.24Z"/><path class="cls-11" d="M264.23,232.45A11.77,11.77,0,1,0,276,221.2,11.51,11.51,0,0,0,264.23,232.45Z"/><path class="cls-12" d="M294.07,231.93c0-9.92-8.41-18-18.77-18a18.68,18.68,0,0,0-17.9,12.61c1.59-9.06,9.8-16,19.71-16,11.06,0,20,8.58,20,19.18a19.19,19.19,0,0,1-12.64,17.79A17.84,17.84,0,0,0,294.07,231.93Z"/><path class="cls-12" d="M276.19,223.19a4.92,4.92,0,1,0,4.93-4.71A4.82,4.82,0,0,0,276.19,223.19Z"/><path class="cls-12" d="M282.75,231A3.28,3.28,0,1,0,286,227.9,3.22,3.22,0,0,0,282.75,231Z"/><path class="cls-13" d="M168.48,289.39c0,7.83-6.62,14.18-14.79,14.18s-14.81-6.35-14.81-14.18,6.63-14.17,14.81-14.17S168.48,281.57,168.48,289.39Z"/><path class="cls-13" d="M261.66,289.39c0,7.83-6.63,14.18-14.81,14.18s-14.8-6.35-14.8-14.18,6.63-14.17,14.8-14.17S261.66,281.57,261.66,289.39Z"/><path class="cls-14" d="M57.42,155.3c3.56,0,7,1.44,10.56,1.17a.25.25,0,0,0,0-.5c-3.53-.31-7-1.18-10.56-1.18a.26.26,0,0,0,0,.51Z"/><path class="cls-14" d="M65.88,145.59c3.31.83,6.39,2.54,9.76,3.07a.23.23,0,0,0,.13-.45A102.29,102.29,0,0,0,66,145.06a.28.28,0,0,0-.15.53Z"/><path class="cls-14" d="M72.38,132.78a26,26,0,0,1,3.65.91c1.24.4,2.45.9,3.68,1.34.24.08.37-.28.17-.4a19.79,19.79,0,0,0-7.34-2.45c-.39-.06-.56.54-.16.6Z"/><path class="cls-14" d="M86.19,142.48a20.4,20.4,0,0,1,3.45.92c1.18.43,2.3,1,3.48,1.39.28.09.42-.31.19-.46a10.66,10.66,0,0,0-1.71-.89c-.57-.24-1.14-.46-1.73-.66a21.36,21.36,0,0,0-3.53-.85c-.35-.05-.51.48-.15.55Z"/><path class="cls-14" d="M89.84,126.58c1.1.45,2.18,1,3.24,1.49a27.38,27.38,0,0,0,3.27,1.59.29.29,0,0,0,.28-.49,13.15,13.15,0,0,0-3.24-1.85c-1.11-.51-2.23-1-3.37-1.4-.41-.15-.57.49-.18.66Z"/><path class="cls-14" d="M110.76,130.07a13.32,13.32,0,0,1,1.19,1.4c.2.27.4.55.59.83a5.58,5.58,0,0,0,.38.47,1.85,1.85,0,0,0,.44.34.28.28,0,0,0,.41-.31,2.43,2.43,0,0,0-.46-1l-.64-.87a12.2,12.2,0,0,0-1.29-1.49.44.44,0,1,0-.62.62Z"/><path class="cls-14" d="M106.43,116.3l1.82,1.81c.3.3.59.61.9.89l.45.43a3.63,3.63,0,0,0,.55.39c.16.11.39-.11.27-.27A4.82,4.82,0,0,0,110,119l-.44-.43c-.31-.3-.64-.59-1-.89L106.75,116a.23.23,0,0,0-.32.32Z"/><path class="cls-14" d="M120.63,105.17a11.34,11.34,0,0,1,2.93,3.09c.4.57.77,1.17,1.13,1.77.17.29.33.58.5.86a8.94,8.94,0,0,0,.65.84c.23.3.72,0,.62-.36a7.13,7.13,0,0,0-.36-1c-.16-.33-.35-.65-.53-1a19.43,19.43,0,0,0-1.26-1.85,12.46,12.46,0,0,0-3.31-3c-.41-.25-.75.36-.37.62Z"/><path class="cls-14" d="M123.77,120.32c.61.79,1.22,1.57,1.81,2.38a16.92,16.92,0,0,0,2,2.56A.25.25,0,0,0,128,125a9.77,9.77,0,0,0-1.71-2.83c-.61-.83-1.26-1.64-1.9-2.46a.43.43,0,0,0-.59,0,.42.42,0,0,0,0,.59Z"/><path class="cls-14" d="M137.31,97.17c.56.84,1.15,1.64,1.75,2.44a17.53,17.53,0,0,0,1.91,2.3.24.24,0,0,0,.37-.28,18.28,18.28,0,0,0-1.78-2.41c-.63-.78-1.27-1.54-1.94-2.28-.15-.16-.43,0-.31.23Z"/><path class="cls-14" d="M141.24,113.11a13.13,13.13,0,0,0,1.12,3.57,9,9,0,0,0,2.25,3.15.27.27,0,0,0,.42-.32c-.6-1.09-1.36-2.08-1.94-3.18a12.8,12.8,0,0,1-1.25-3.39c-.08-.4-.66-.22-.6.17Z"/><path class="cls-14" d="M157.17,105.64c.15,1.2.28,2.41.52,3.6.12.6.26,1.2.41,1.79a6.13,6.13,0,0,0,.29.92c.13.27.31.53.46.79s.39.1.36-.1-.05-.6-.09-.89a6.09,6.09,0,0,0-.25-.93c-.16-.57-.31-1.14-.44-1.72-.27-1.17-.56-2.34-.82-3.52-.05-.25-.47-.2-.44.06Z"/><path class="cls-14" d="M168.65,92.05c.74,2.32,1.18,4.72,2,7,.06.13.27.08.22-.06-.72-2.33-1.16-4.72-2-7-.06-.15-.3-.09-.25.07Z"/><path class="cls-14" d="M171,105.71c.19,1.26.35,2.53.59,3.78a12.63,12.63,0,0,0,1.07,3.66c.14.25.49.07.45-.19-.22-1.25-.59-2.47-.86-3.72s-.51-2.45-.76-3.67c-.06-.33-.54-.18-.49.14Z"/><path class="cls-14" d="M155.44,92.11a22.78,22.78,0,0,0,.86,3.65A10.33,10.33,0,0,0,158,99.24c.21.25.6,0,.52-.3-.33-1.22-1-2.35-1.41-3.53a22.32,22.32,0,0,1-1-3.48c-.08-.44-.71-.24-.65.18Z"/><path class="cls-14" d="M183.57,87c.37,2.47.65,5,1.24,7.39a.22.22,0,0,0,.43-.06,57.06,57.06,0,0,0-1.19-7.46c-.06-.32-.53-.18-.48.13Z"/><path class="cls-14" d="M201.48,87.41c.34,2,.14,4.12.38,6.17a.23.23,0,0,0,.45,0,18.25,18.25,0,0,0-.41-6.29c-.07-.27-.47-.15-.42.12Z"/><path class="cls-14" d="M219.76,89.68l0,1.95,0,1a7.61,7.61,0,0,0,.08,1,.19.19,0,0,0,.37,0,7.14,7.14,0,0,0,.08-.92l0-1,0-1.95a.22.22,0,0,0-.43,0Z"/><path class="cls-14" d="M244.17,93.91c-.47,2.52-1.34,4.93-2,7.41,0,.16.21.28.28.11A30.66,30.66,0,0,0,244.54,94c0-.24-.33-.35-.37-.1Z"/><path class="cls-14" d="M266.52,95.41c-2,2.89-2.75,6.47-3.67,9.78-.07.24.28.4.39.17,1.57-3.11,2.11-6.62,3.65-9.73a.22.22,0,0,0-.37-.22Z"/><path class="cls-14" d="M284.83,114.33c.85-1.39,1.77-2.74,2.73-4.06s2-2.7,2.92-4.13c.13-.22-.19-.47-.36-.28a47.94,47.94,0,0,0-3.07,4c-.94,1.36-1.86,2.75-2.69,4.18a.27.27,0,0,0,.47.27Z"/><path class="cls-14" d="M303.07,122.32a41.14,41.14,0,0,1,3.72-2.09c1.31-.64,2.66-1.22,3.94-1.92a.26.26,0,0,0-.2-.48,30.56,30.56,0,0,0-7.86,3.81c-.42.27,0,1,.4.68Z"/><path class="cls-14" d="M323.61,135.91a57,57,0,0,0,8.18-1.65.22.22,0,0,0-.06-.44c-2.8,0-5.46,1-8.21,1.46-.35.06-.28.68.09.63Z"/><path class="cls-14" d="M94,153.88a18.61,18.61,0,0,1,6.36,1c1.92.58,3.76,1.36,5.74,1.75.4.08.72-.51.3-.7-3.84-1.76-8.11-3.24-12.4-2.78-.48,0-.5.79,0,.77Z"/><path class="cls-14" d="M110,143.73c1.27.82,2.49,1.71,3.76,2.53a15.18,15.18,0,0,0,4.09,2.08.31.31,0,0,0,.24-.56c-1.34-.74-2.68-1.47-4-2.3s-2.46-1.67-3.71-2.47c-.45-.29-.87.43-.42.72Z"/><path class="cls-14" d="M134.63,135.83a15.58,15.58,0,0,0,1.52,2.7c.29.41.6.8.91,1.19a12.32,12.32,0,0,0,1.05,1.12.27.27,0,0,0,.43-.33,37.47,37.47,0,0,1-3-5,.47.47,0,1,0-.87.36Z"/><path class="cls-14" d="M154,127.57c.6,1.53,1.23,3,1.86,4.55a37.68,37.68,0,0,0,2.05,4.42.32.32,0,0,0,.59-.25,28.51,28.51,0,0,0-1.61-4.54q-.93-2.22-1.82-4.47c-.25-.66-1.33-.37-1.07.29Z"/><path class="cls-14" d="M175.73,123.64c.39,1.49.8,3,1.16,4.47s.61,3,1,4.43a.24.24,0,0,0,.47-.06,19.65,19.65,0,0,0-.72-4.49c-.37-1.52-.8-3-1.2-4.55a.37.37,0,0,0-.71.2Z"/><path class="cls-14" d="M190.31,104.08c.2,1.69.57,3.34.92,5s.62,3.41.84,5.12a.28.28,0,0,0,.55,0,14.78,14.78,0,0,0-.49-5c-.37-1.7-.81-3.39-1-5.12-.06-.49-.84-.51-.79,0Z"/><path class="cls-14" d="M209.94,110.7v3.69c0,1.23.09,2.46.14,3.7a.14.14,0,0,0,.28,0c0-1.24.14-2.47.14-3.7V110.7a.28.28,0,0,0-.56,0Z"/><path class="cls-14" d="M235.81,114.47c-.41,2.88-.39,5.77-.57,8.67a.18.18,0,0,0,.35,0c.28-1.43.49-2.86.63-4.31s.22-2.78.43-4.17c.08-.55-.76-.78-.84-.23Z"/><path class="cls-14" d="M207.72,102.12a21.54,21.54,0,0,0-.53,7,.19.19,0,0,0,.37,0c.24-2.33,0-4.68.29-7,0-.08-.11-.09-.13,0Z"/><path class="cls-14" d="M223.71,101.83a41.88,41.88,0,0,1,.55,6.52,56,56,0,0,0,.24,5.94.37.37,0,0,0,.71,0,30.38,30.38,0,0,0,0-6.18,54.2,54.2,0,0,0-.88-6.46c-.08-.42-.74-.24-.66.18Z"/><path class="cls-14" d="M194.39,127.92c2,4.72,1.56,10,3.34,14.76a.31.31,0,0,0,.6-.16c-.73-5-1.17-10.22-3.19-14.92-.18-.42-.93-.11-.75.32Z"/><path class="cls-14" d="M244.64,130.8a11.8,11.8,0,0,0-1.57,2.65,13.2,13.2,0,0,0-.85,3.28c0,.14.18.2.21.06a14.33,14.33,0,0,1,2.5-5.77c.12-.17-.17-.39-.29-.22Z"/><path class="cls-14" d="M226.3,130.1c-.49,3.25-1.1,6.48-1.62,9.72a.18.18,0,0,0,.35.1c1.1-3.1,1.27-6.52,1.64-9.77,0-.2-.34-.25-.37-.05Z"/><path class="cls-14" d="M256.24,105.64c.2,4.09-1.79,7.74-2.8,11.59-.07.29.37.51.5.21,1.69-3.75,3.44-7.58,2.92-11.8-.05-.38-.64-.41-.62,0Z"/><path class="cls-14" d="M272.62,119.54c-1.08,2.31-2.36,4.52-3.62,6.74s-2.53,4.54-3.65,6.89c-.1.2.18.37.29.17,2.57-4.5,5.4-8.82,7.38-13.64.09-.22-.29-.39-.4-.16Z"/><path class="cls-14" d="M286.07,133.18c-2.13,2.86-5,5.14-6.85,8.2-.07.11.1.21.18.1A41.64,41.64,0,0,1,283,137.2a47.75,47.75,0,0,0,3.39-3.86c.12-.16-.15-.33-.28-.16Z"/><path class="cls-14" d="M302.3,138.93c-1.5,1.37-3.05,2.69-4.61,4a55.34,55.34,0,0,0-4.75,4.17c-.2.2.06.57.31.4a44.58,44.58,0,0,0,4.9-4q2.3-2.07,4.49-4.24c.22-.22-.11-.55-.34-.34Z"/><path class="cls-14" d="M289.68,126.45c-.18.17-.37.35-.54.53l-.42.51a5.25,5.25,0,0,0-.6,1c-.08.18.16.33.26.16a4.72,4.72,0,0,1,.7-.9l.44-.41.55-.52a.29.29,0,0,0,0-.39.28.28,0,0,0-.39,0Z"/><path class="cls-14" d="M262.48,144.45a36.29,36.29,0,0,1-2.89,3.75,37.92,37.92,0,0,0-2.87,3.59c-.18.27.21.53.43.33a27.08,27.08,0,0,0,5.65-7.48.19.19,0,0,0-.32-.19Z"/><path class="cls-14" d="M122.4,159.08c3.73,1.38,7,3.84,11,4.71a.19.19,0,0,0,.1-.36c-2-.72-3.84-1.57-5.71-2.48a31.91,31.91,0,0,0-5.27-2.17c-.19-.05-.26.23-.08.3Z"/><path class="cls-14" d="M135.72,153a28.36,28.36,0,0,1,4.83,3.85,31,31,0,0,0,4.55,3.85c.17.1.38-.15.22-.28-3.14-2.55-5.6-6.13-9.33-7.9a.28.28,0,0,0-.27.48Z"/><path class="cls-14" d="M152.79,149.25a65,65,0,0,0,4.89,9.36c.08.15.29,0,.22-.13-1.5-3.16-3.51-6.07-4.85-9.3-.06-.16-.32-.1-.26.07Z"/><path class="cls-14" d="M168.6,144.2c.61,2,1.22,4,1.88,6a45,45,0,0,0,2.21,5.76c.08.17.37.05.31-.13-.68-2-1.46-3.89-2.14-5.85s-1.29-3.88-1.91-5.83c-.07-.22-.42-.13-.35.1Z"/><path class="cls-14" d="M180.28,144.23c.39,1.94.79,3.89,1.13,5.84s.57,3.89,1,5.82c0,.26.46.2.46-.06a33.61,33.61,0,0,0-.76-5.82c-.37-2-.81-4-1.24-5.93-.08-.36-.61-.21-.54.15Z"/><path class="cls-14" d="M204.29,145.71c0,2.86-.16,5.71-.3,8.56a.14.14,0,0,0,.27,0,35.27,35.27,0,0,0,.5-8.59.24.24,0,0,0-.47,0Z"/><path class="cls-14" d="M207.56,128.2c0,2.33-.15,4.69.06,7a.16.16,0,0,0,.32,0c.22-2.31.08-4.67.07-7a.23.23,0,0,0-.45,0Z"/><path class="cls-14" d="M218.86,150.38c-.24,1.85-.48,3.69-.66,5.55a19.94,19.94,0,0,0-.08,5.4.23.23,0,0,0,.44,0,46.4,46.4,0,0,0,.42-5.4c.13-1.85.3-3.7.48-5.55,0-.38-.55-.37-.6,0Z"/><path class="cls-14" d="M233.58,153.05a58.49,58.49,0,0,1-1.56,6.23.16.16,0,0,0,.29.12,25.28,25.28,0,0,0,1.69-6.24c.06-.27-.36-.39-.42-.11Z"/><path class="cls-14" d="M242.22,162c-.86,1.27-1.55,2.64-2.38,3.92-.05.07.06.13.11.06.91-1.23,1.6-2.6,2.48-3.86.09-.12-.12-.25-.21-.12Z"/><path class="cls-14" d="M178.38,174.58a33.19,33.19,0,0,1,2.56,5.26,43.16,43.16,0,0,0,2.3,5.26c.09.16.39.05.32-.14-.65-1.83-1.42-3.62-2.2-5.39a33.26,33.26,0,0,0-2.69-5.16c-.12-.18-.41,0-.29.17Z"/><path class="cls-14" d="M190.07,166.79c.69,4.49,2.43,8.75,3.28,13.21a.21.21,0,0,0,.41-.05c0-4.63-2.3-8.84-3.2-13.3-.06-.33-.54-.18-.49.14Z"/><path class="cls-14" d="M208.17,176.32a32.31,32.31,0,0,0-1,11,.23.23,0,0,0,.45,0c.23-1.83.33-3.67.53-5.5a44.78,44.78,0,0,1,.9-5.28c.12-.56-.73-.79-.86-.24Z"/><path class="cls-14" d="M190.11,201.47c.2.39.41.77.62,1.15l.32.57c.1.19.24.37.36.56s.31.05.25-.1a6.14,6.14,0,0,0-.27-.64l-.28-.58-.59-1.2c-.13-.28-.56,0-.41.24Z"/><path class="cls-14" d="M196.57,192.86c.4,2.19.76,4.42,1.3,6.58,0,.18.34.14.32,0-.23-2.24-.75-4.46-1.14-6.67-.05-.32-.54-.19-.48.13Z"/><path class="cls-14" d="M197.84,210.29c0,1.72-.05,3.44,0,5.16a17.3,17.3,0,0,0,.78,5c.07.19.41.18.38-.05-.17-1.69-.52-3.35-.65-5.06s-.15-3.37-.17-5.06a.19.19,0,0,0-.38,0Z"/><path class="cls-14" d="M209.25,197.81a47.56,47.56,0,0,0-2,12.87c0,.16.26.21.29,0,.61-4.27.85-8.66,2-12.82.06-.2-.24-.28-.31-.09Z"/><path class="cls-14" d="M221.16,183.83q-1,3.18-1.94,6.39c-.61,2.13-1.32,4.26-1.8,6.43a.12.12,0,0,0,.23.07c.74-2.1,1.26-4.28,1.86-6.42s1.18-4.29,1.73-6.45a0,0,0,0,0-.08,0Z"/><path class="cls-14" d="M232.92,172.13c-.88,1.77-1.74,3.55-2.49,5.38a35.25,35.25,0,0,0-2.06,5.9c0,.14.19.26.25.11.79-1.83,1.37-3.75,2.09-5.6s1.51-3.83,2.33-5.72c0-.08-.08-.16-.12-.07Z"/><path class="cls-14" d="M220.14,169.37c-.77,3.74-1,7.58-1.5,11.36,0,.13.2.15.24,0,1-3.67,1-7.53,1.76-11.25.07-.32-.43-.46-.5-.14Z"/><path class="cls-14" d="M201.62,161.66c-.1,2-.17,3.89-.23,5.84a39.13,39.13,0,0,0,.08,5.83.22.22,0,0,0,.43,0,36.62,36.62,0,0,0,.08-5.83c0-1.95-.12-3.89-.23-5.84,0-.08-.12-.08-.13,0Z"/><path class="cls-14" d="M167.82,164.81a29.34,29.34,0,0,0,1.43,4.79,25,25,0,0,0,2.25,4.58c.08.13.31,0,.25-.1-.65-1.58-1.36-3.13-2-4.71s-1.13-3.07-1.65-4.63a.14.14,0,0,0-.28.07Z"/><path class="cls-14" d="M153.64,169.92a59.3,59.3,0,0,0,4.49,3.89c.76.61,1.51,1.24,2.23,1.89s1.41,1.41,2.15,2.07a.23.23,0,0,0,.37-.28c-.91-1.7-2.66-2.94-4.17-4.07a60.48,60.48,0,0,1-4.88-3.68.13.13,0,0,0-.19.18Z"/><path class="cls-14" d="M167.46,186.67c1.91,1.61,2.92,3.92,4.45,5.85.12.16.34-.05.26-.21a15,15,0,0,0-4.54-5.87c-.13-.1-.3.12-.17.23Z"/><path class="cls-14" d="M178.85,191.64a23.49,23.49,0,0,0,1.31,3.54,24.92,24.92,0,0,0,1.87,3.54c.11.16.42.06.33-.15-.48-1.21-1.12-2.35-1.71-3.52s-1.14-2.3-1.64-3.48c0-.09-.19,0-.16.07Z"/><path class="cls-14" d="M260.05,156.9c-1.7,2.37-3.93,4.3-5.67,6.63-.11.15.13.32.25.19,1.07-1.06,2.1-2.17,3.09-3.31a34.15,34.15,0,0,0,2.64-3.33c.13-.19-.18-.36-.31-.18Z"/><path class="cls-14" d="M245.64,144q-1.26,2.37-2.5,4.74a49.2,49.2,0,0,0-2.31,4.73c-.12.31.35.47.52.22a50.36,50.36,0,0,0,2.56-4.6l2.43-4.68c.23-.46-.46-.87-.7-.41Z"/><path class="cls-14" d="M274.88,145.11c-1.94,2.55-3.78,5.19-5.52,7.88-.14.22.17.43.36.27a18.77,18.77,0,0,0,3-3.6c.94-1.38,1.85-2.78,2.83-4.13.32-.44-.4-.84-.72-.42Z"/><path class="cls-14" d="M276.4,100.84c-.69,1.72-1.52,3.39-2.19,5.12-.1.26.29.39.43.18a32.45,32.45,0,0,0,2.65-4.93.48.48,0,1,0-.89-.37Z"/><rect class="cls-15" width="400" height="400"/></g></g></svg>