<svg xmlns="http://www.w3.org/2000/svg" viewBox="0 0 400 400"><defs><style>.cls-1{fill:#fcddc9;}.cls-2{fill:#e5503e;}.cls-3{fill:#462d24;}.cls-4{fill:#ba3b1e;}.cls-5{fill:#362e35;}.cls-6{fill:#282125;}.cls-7{fill:#40373f;}.cls-8{fill:#1f1a1c;}.cls-9{fill:#fff7ef;}.cls-10{fill:none;}</style></defs><g id="Calque_2" data-name="Calque 2"><g id="Calque_1-2" data-name="Calque 1"><path class="cls-1" d="M390.49,88.69c-47-7.49-102.28,17.83-113.57,41.4-.28.55,19.82,17.46,25.07,22.37,5.81,5.45,16.49,12.67,17.29,12.89C360.28,176.89,397.74,89.86,390.49,88.69Z"/><path class="cls-2" d="M302,152.46c.84.8,1.81,1.64,2.82,2.48,19.51-49.91,55.35-62.72,85.68-66.25-47-7.49-102.28,17.83-113.57,41.4,0,0,0,0,.05.11C278,131.78,296.92,147.71,302,152.46Z"/><path class="cls-3" d="M379.2,121.61c9.55-17,14.31-32.44,11.29-32.92-16.39-2.61-33.77-1.23-49.95,2.66,4.13,2.38,11.25,4.25,23.33,3.21,0,0,25.74-9,23.59-1.89S379.22,121.52,379.2,121.61Z"/><path class="cls-1" d="M79.49,168c.8-.22,11.48-7.44,17.29-12.87,5.25-4.94,25.34-21.82,25.07-22.38-11.3-23.58-66.56-48.9-113.56-41.4C1,92.48,38.49,179.52,79.49,168Z"/><path class="cls-2" d="M96.78,155.1c-.85.79-1.82,1.62-2.82,2.47C74.45,107.66,38.61,94.86,8.29,91.32c47-7.5,102.26,17.82,113.56,41.4,0,0,0,.05,0,.11C120.78,134.41,101.85,150.34,96.78,155.1Z"/><path class="cls-3" d="M19.58,124.24C10,107.25,5.26,91.81,8.29,91.32,24.67,88.71,42.05,90.08,58.22,94,54.1,96.36,47,98.22,34.89,97.19c0,0-25.74-9-23.6-1.88S19.55,124.15,19.58,124.24Z"/><path class="cls-1" d="M381.19,250.16l-18.53-15.9,12.47-1.35c-25-39.51-57.12-70.61-68.57-81.14C295.71,140.54,283,132.69,264.33,126c-59.11-21.34-135.21-13.7-187.58,41.69l-.16-.35s-43.78,41-57.13,67.23l12.48,1.34L13.4,251.78l27.16-3-8.62,12.49s114.54,52.33,162,52.33,168.74-53.94,168.74-53.94L354,247.12Z"/><path class="cls-2" d="M306.56,149.61c-10.85-11.23-23.59-19.08-42.23-25.81-59.11-21.34-135.21-13.7-187.58,41.69l-.16-.35s-43.45,40.73-57,66.94c3.24-2.43,52.62,3.94,105.46,34,40.39,23,68.77,40.51,74.55,45.05l1.52-.15c3-5,33.35-23.7,61.32-43.41,57.94-40.83,112.66-36.81,112.66-36.81C350.11,191.25,318,160.13,306.56,149.61Z"/><path class="cls-4" d="M144,123.91c.46.67.94,1.32,1.42,2a13.94,13.94,0,0,0,1.56,1.87.19.19,0,0,0,.29-.23,14.52,14.52,0,0,0-1.44-2c-.51-.63-1-1.25-1.58-1.84-.12-.13-.35,0-.25.19Z"/><path class="cls-4" d="M148.93,136.5a10.87,10.87,0,0,0,.91,2.9,7.14,7.14,0,0,0,1.82,2.55.21.21,0,0,0,.33-.26c-.48-.88-1.09-1.68-1.56-2.57a10.45,10.45,0,0,1-1-2.75c-.07-.32-.54-.18-.49.13Z"/><path class="cls-4" d="M160.15,130.76c.11,1,.21,2,.41,2.92.1.5.21,1,.34,1.48a4.37,4.37,0,0,0,.22.7c.11.23.26.44.38.66s.31,0,.29-.12,0-.53-.09-.78-.14-.5-.21-.74c-.13-.45-.24-.9-.35-1.36-.21-.94-.43-1.87-.64-2.81,0-.19-.38-.15-.35,0Z"/><path class="cls-4" d="M169.44,119.76c.61,1.88,1,3.82,1.66,5.67.05.11.22.07.18-.05-.58-1.88-.94-3.83-1.64-5.68,0-.12-.24-.07-.2.06Z"/><path class="cls-4" d="M171.32,130.82c.15,1,.28,2.05.48,3.07a10.19,10.19,0,0,0,.87,3c.11.21.39.06.36-.15-.18-1-.48-2-.7-3s-.41-2-.61-3c-.05-.27-.43-.15-.4.11Z"/><path class="cls-4" d="M158.74,119.8a17.93,17.93,0,0,0,.7,3,8.4,8.4,0,0,0,1.35,2.83c.17.2.48,0,.42-.25a30.5,30.5,0,0,0-1.13-2.87,19.27,19.27,0,0,1-.82-2.81c-.07-.35-.57-.2-.52.14Z"/><path class="cls-4" d="M181.54,115.68c.3,2,.53,4,1,6a.18.18,0,0,0,.35,0,47.76,47.76,0,0,0-1-6c-.05-.25-.43-.14-.39.11Z"/><path class="cls-4" d="M196.06,116c.28,1.65.12,3.34.31,5a.19.19,0,0,0,.37,0,14.73,14.73,0,0,0-.35-5.08c0-.23-.37-.13-.33.09Z"/><path class="cls-4" d="M210.88,117.84l0,1.57v.82a6.32,6.32,0,0,0,.06.75.15.15,0,0,0,.3,0,4.74,4.74,0,0,0,.06-.75v-.82l0-1.57a.18.18,0,0,0-.35,0Z"/><path class="cls-4" d="M230.66,121.26c-.39,2-1.09,4-1.62,6,0,.13.17.22.22.09a25.09,25.09,0,0,0,1.7-6c0-.2-.26-.28-.3-.08Z"/><path class="cls-4" d="M157.59,148.54c.48,1.24,1,2.47,1.5,3.69a31.32,31.32,0,0,0,1.65,3.58.26.26,0,0,0,.48-.2,22.94,22.94,0,0,0-1.29-3.68c-.5-1.2-1-2.41-1.47-3.63-.21-.53-1.08-.3-.87.24Z"/><path class="cls-4" d="M175.18,145.35c.32,1.21.65,2.41.95,3.63s.49,2.41.8,3.6a.2.2,0,0,0,.39-.05,16.17,16.17,0,0,0-.59-3.65c-.3-1.23-.65-2.46-1-3.69a.3.3,0,0,0-.58.16Z"/><path class="cls-4" d="M187,129.5c.16,1.37.46,2.7.74,4.05s.5,2.76.68,4.15a.22.22,0,0,0,.44,0,12.33,12.33,0,0,0-.39-4c-.3-1.38-.65-2.75-.83-4.15-.05-.4-.68-.41-.64,0Z"/><path class="cls-4" d="M202.9,134.86v3c0,1,.08,2,.12,3a.11.11,0,1,0,.22,0c0-1,.12-2,.12-3v-3a.23.23,0,0,0-.46,0Z"/><path class="cls-4" d="M223.88,137.92c-.33,2.34-.32,4.68-.46,7,0,.16.25.2.28,0,.22-1.16.4-2.32.51-3.5s.17-2.26.35-3.38c.06-.45-.62-.63-.68-.19Z"/><path class="cls-4" d="M201.12,127.91a17,17,0,0,0-.44,5.69.15.15,0,0,0,.3,0c.19-1.89,0-3.79.24-5.67,0-.06-.09-.07-.1,0Z"/><path class="cls-4" d="M214.07,127.69a34.51,34.51,0,0,1,.44,5.28,45.4,45.4,0,0,0,.19,4.81.3.3,0,0,0,.58,0,25.31,25.31,0,0,0,0-5,44,44,0,0,0-.71-5.24c-.07-.34-.59-.2-.53.15Z"/><path class="cls-4" d="M190.3,148.83c1.61,3.82,1.27,8.1,2.71,11.95a.25.25,0,0,0,.49-.13c-.6-4.06-.95-8.27-2.59-12.08-.15-.34-.75-.09-.61.26Z"/><path class="cls-4" d="M231,151.16a9.85,9.85,0,0,0-1.26,2.15,10.56,10.56,0,0,0-.69,2.65c0,.12.15.17.17,0a11.75,11.75,0,0,1,2-4.67c.1-.13-.13-.32-.24-.18Z"/><path class="cls-4" d="M216.17,150.59c-.39,2.64-.89,5.25-1.32,7.88a.15.15,0,1,0,.28.08,34.17,34.17,0,0,0,1.33-7.92c0-.17-.27-.21-.29,0Z"/><path class="cls-4" d="M169.4,162c.49,1.61,1,3.23,1.53,4.83a37,37,0,0,0,1.79,4.66c.07.14.3,0,.25-.1-.54-1.6-1.18-3.15-1.73-4.74s-1.05-3.15-1.55-4.73c-.06-.18-.35-.1-.29.08Z"/><path class="cls-4" d="M178.87,162c.32,1.58.64,3.16.91,4.74s.47,3.15.78,4.71c0,.21.38.16.37-.05a26.77,26.77,0,0,0-.62-4.71c-.3-1.61-.65-3.21-1-4.81-.06-.29-.49-.16-.44.12Z"/><path class="cls-4" d="M198.34,163.25c0,2.31-.13,4.62-.25,6.93,0,.13.19.15.22,0a28,28,0,0,0,.41-7,.19.19,0,0,0-.38,0Z"/><path class="cls-4" d="M201,149.05a56.62,56.62,0,0,0,0,5.68.13.13,0,0,0,.26,0c.17-1.88.06-3.79,0-5.68a.18.18,0,0,0-.36,0Z"/><path class="cls-4" d="M210.14,167c-.2,1.5-.39,3-.53,4.5a16,16,0,0,0-.06,4.37.18.18,0,0,0,.35,0,37.47,37.47,0,0,0,.34-4.37c.1-1.51.24-3,.38-4.5,0-.31-.44-.3-.48,0Z"/><path class="cls-4" d="M222.07,169.19a44,44,0,0,1-1.27,5.06c-.05.14.17.23.24.1a20.56,20.56,0,0,0,1.37-5.07c0-.22-.3-.32-.34-.09Z"/><path class="cls-4" d="M177.33,186.65a26.65,26.65,0,0,1,2.08,4.26,35.87,35.87,0,0,0,1.86,4.26c.08.14.32.05.26-.11-.52-1.48-1.15-2.94-1.78-4.38a27.09,27.09,0,0,0-2.18-4.17.14.14,0,0,0-.24.14Z"/><path class="cls-4" d="M186.81,180.32c.56,3.65,2,7.1,2.66,10.71,0,.19.34.14.34,0,0-3.75-1.87-7.16-2.6-10.78-.05-.26-.44-.14-.4.11Z"/><path class="cls-4" d="M201.46,188.06a26.59,26.59,0,0,0-.81,8.92.18.18,0,0,0,.36,0c.18-1.48.27-3,.43-4.45a38.58,38.58,0,0,1,.71-4.28c.1-.45-.59-.64-.69-.19Z"/><path class="cls-4" d="M186.84,208.44l.51.93c.08.15.17.3.25.46s.19.3.29.45.25,0,.2-.09a5.49,5.49,0,0,0-.21-.51c-.07-.15-.15-.31-.23-.46-.16-.33-.32-.65-.47-1s-.46,0-.34.2Z"/><path class="cls-4" d="M192.07,201.45c.32,1.78.63,3.59,1.06,5.34,0,.14.27.12.25,0-.17-1.82-.61-3.62-.92-5.42,0-.25-.43-.14-.39.11Z"/><path class="cls-4" d="M193.1,215.58c0,1.4,0,2.79,0,4.18a14.36,14.36,0,0,0,.64,4.07c.06.15.33.14.31,0-.14-1.38-.43-2.72-.53-4.1s-.12-2.74-.14-4.11a.16.16,0,0,0-.31,0Z"/><path class="cls-4" d="M202.36,205.46a38.9,38.9,0,0,0-1.65,10.44c0,.13.21.16.23,0,.51-3.46.7-7,1.67-10.4,0-.16-.2-.23-.25-.07Z"/><path class="cls-4" d="M212,194.13c-.54,1.73-1.07,3.45-1.57,5.18s-1.07,3.46-1.46,5.21a.1.1,0,0,0,.19.06c.59-1.7,1-3.47,1.51-5.2s1-3.48,1.4-5.23c0,0,0-.06-.07,0Z"/><path class="cls-4" d="M218.36,183.55c-.71,1.44-1.41,2.88-2,4.36a27.15,27.15,0,0,0-1.66,4.79c0,.11.15.21.2.08.63-1.48,1.1-3,1.68-4.54s1.23-3.1,1.9-4.63c0-.07-.07-.13-.1-.06Z"/><path class="cls-4" d="M211.17,182.42c-.62,3-.81,6.14-1.21,9.21,0,.11.16.12.19,0,.83-3,.8-6.1,1.43-9.12,0-.26-.35-.37-.41-.11Z"/><path class="cls-4" d="M196.17,176.17c-.08,1.58-.14,3.15-.18,4.73a30,30,0,0,0,.06,4.74.18.18,0,0,0,.35,0,30,30,0,0,0,.06-4.74c0-1.58-.1-3.15-.18-4.73a.06.06,0,0,0-.11,0Z"/><path class="cls-4" d="M171.24,176.52a24,24,0,0,0,1.16,3.88,19.68,19.68,0,0,0,1.83,3.71c.06.1.25,0,.2-.08-.53-1.28-1.11-2.54-1.63-3.82s-.91-2.49-1.33-3.75a.12.12,0,0,0-.23.06Z"/><path class="cls-4" d="M179.44,200a20.89,20.89,0,0,0,1.06,2.86,20.65,20.65,0,0,0,1.51,2.87c.09.13.34,0,.27-.12-.38-1-.88-1.88-1.35-2.8s-.94-1.89-1.35-2.85a.07.07,0,0,0-.14,0Z"/><path class="cls-4" d="M205.85,223.1c-.39,1.51-.67,3.05-1,4.57,0,.12.15.18.18.05.44-1.5.79-3,1.18-4.53a.18.18,0,0,0-.35-.09Z"/><path class="cls-4" d="M184.18,225.25c.19,2.08.37,4.17.61,6.24a46.18,46.18,0,0,0,1,6.07c0,.17.34.14.32-.05-.2-2-.54-4.08-.78-6.13s-.43-4.09-.61-6.13c0-.32-.52-.32-.5,0Z"/><path class="cls-4" d="M183.2,242.77a41.55,41.55,0,0,0,.1,5.35,18.35,18.35,0,0,0,.94,5.2c.08.19.39.19.39,0a49,49,0,0,0-.69-5.25c-.21-1.75-.39-3.5-.47-5.25a.14.14,0,1,0-.27,0Z"/><path class="cls-4" d="M191.83,240.31c-.06,1.77-.14,3.54-.16,5.31a17.61,17.61,0,0,0,.2,4.92.26.26,0,0,0,.5,0,17.61,17.61,0,0,0,.2-4.92c0-1.77-.1-3.54-.16-5.31a.29.29,0,0,0-.58,0Z"/><path class="cls-4" d="M203.94,240.59a36.09,36.09,0,0,0-.86,4.71c-.09.79-.15,1.58-.23,2.37a10.57,10.57,0,0,0,0,2.45.29.29,0,0,0,.56.08,16,16,0,0,0,.57-4.63,37.33,37.33,0,0,1,.52-4.83c.07-.34-.43-.49-.52-.15Z"/><path class="cls-4" d="M194.73,228.67a8.68,8.68,0,0,0,0,1.69c0,.54,0,1.07.08,1.61l.12,1.6a3.37,3.37,0,0,0,.27,1.64.3.3,0,0,0,.52,0,2.7,2.7,0,0,0,.17-1.64c0-.53-.09-1.07-.14-1.6s-.12-1.07-.18-1.61-.07-1.13-.16-1.69a.33.33,0,0,0-.64,0Z"/><path class="cls-4" d="M174.18,201.78c.34,1.28.59,2.58.83,3.88a24,24,0,0,0,.92,3.85.1.1,0,0,0,.19,0c-.28-1.29-.62-2.57-.91-3.86s-.6-2.57-1-3.83c0,0,0,0,0,0Z"/><path class="cls-4" d="M174.77,214.43c.35,1.32.67,2.64,1,4,.15.65.33,1.29.5,1.94a7.26,7.26,0,0,0,.67,1.88.23.23,0,0,0,.43-.11,7.83,7.83,0,0,0-.44-2c-.19-.63-.37-1.28-.57-1.91-.42-1.29-.83-2.59-1.26-3.88a.16.16,0,0,0-.31.08Z"/><path class="cls-4" d="M165.24,175.9c.36,1,.64,2.11.92,3.17a11,11,0,0,0,1,2.81.14.14,0,0,0,.25-.11c-.11-.46-.29-.9-.43-1.36s-.3-1-.44-1.5c-.29-1-.57-2.08-.93-3.1-.08-.21-.42-.12-.34.09Z"/><path class="cls-4" d="M235.47,130.61c-.53,1.29-.87,2.66-1.3,4s-.92,2.69-1.29,4.06a.23.23,0,0,0,.41.18,31.46,31.46,0,0,0,2.57-8.18c0-.24-.31-.23-.39,0Z"/><path class="cls-4" d="M202.58,260.59a35.26,35.26,0,0,0-1,4.65,39.5,39.5,0,0,0-.52,4.85c0,.21.33.26.37.05.62-3.13.71-6.35,1.42-9.47a.15.15,0,0,0-.29-.08Z"/><path class="cls-4" d="M195.92,256.37c-.22,1.25-.4,2.5-.54,3.77s-.37,2.62-.56,3.93c0,.23.31.44.43.18,1.09-2.43.82-5.23,1.13-7.82,0-.26-.41-.32-.46-.06Z"/><path class="cls-4" d="M184.19,260.63c.28,3.64.44,7.41,1.52,10.91.07.21.42.18.4-.05-.39-3.63-1-7.24-1.44-10.86,0-.29-.5-.31-.48,0Z"/><path class="cls-4" d="M190.57,272.53a42.31,42.31,0,0,0-.12,6.66c.07,2.22.11,4.45.38,6.65a.19.19,0,0,0,.38,0,40.28,40.28,0,0,0,0-6.77c-.11-2.19-.18-4.39-.47-6.56,0-.11-.17-.07-.18,0Z"/><path class="cls-4" d="M198.16,278.44a26.33,26.33,0,0,0-1.89,9.51c0,.28.43.35.49.07.37-1.55.5-3.13.76-4.7a37.23,37.23,0,0,1,1-4.78c.07-.23-.28-.32-.36-.1Z"/><path class="cls-4" d="M187.05,288.3a19.76,19.76,0,0,0,.23,2.76c.08.49.16,1,.25,1.47a5,5,0,0,0,.41,1.47c.09.18.33.07.35-.09a5.1,5.1,0,0,0-.14-1.56c-.08-.45-.16-.91-.23-1.37a18.55,18.55,0,0,1-.25-2.68.31.31,0,0,0-.62,0Z"/><path class="cls-4" d="M196.32,270.09l0,2.68a16.27,16.27,0,0,0,.08,2.61c0,.13.26.13.28,0a16.27,16.27,0,0,0,.08-2.61l0-2.68a.2.2,0,0,0-.4,0Z"/><path class="cls-4" d="M211,221.39c-.21,1.78-.43,3.55-.73,5.32-.14.82-.28,1.64-.43,2.46a13.65,13.65,0,0,0-.36,2.39c0,.23.37.36.47.12a15.84,15.84,0,0,0,.95-4.88c.18-1.8.33-3.61.51-5.41,0-.26-.38-.25-.41,0Z"/><path class="cls-4" d="M214.21,204.87a20.84,20.84,0,0,0-.86,3c-.09.46-.16.93-.21,1.4a7.83,7.83,0,0,0,.07,1.6.14.14,0,0,0,.27,0c.06-.5.16-1,.21-1.5a14.21,14.21,0,0,1,.19-1.46,21.21,21.21,0,0,1,.78-2.94c.1-.29-.35-.4-.45-.12Z"/><path class="cls-4" d="M256.67,126.11c-1.6,2.33-2.23,5.23-3,7.92-.05.18.23.31.32.13,1.27-2.52,1.7-5.36,3-7.88a.18.18,0,0,0-.31-.17Z"/><path class="cls-4" d="M248.34,134.38c.17,3.32-1.47,6.28-2.26,9.41-.06.24.3.41.4.17,1.35-3.05,2.78-6.15,2.35-9.58,0-.3-.51-.32-.49,0Z"/><path class="cls-4" d="M259.64,140.13c-.88,1.88-1.91,3.67-2.94,5.47s-2,3.68-3,5.59c-.07.16.15.3.24.14,2.09-3.65,4.38-7.15,6-11.06.07-.18-.24-.32-.32-.14Z"/><path class="cls-4" d="M264.69,130.5c-.57,1.4-1.24,2.75-1.79,4.16-.08.21.23.31.34.15a26.71,26.71,0,0,0,2.16-4,.39.39,0,1,0-.71-.3Z"/><path class="cls-4" d="M247,150.57c-1.36,3.64-3.37,7.05-4.44,10.79-.07.23.26.31.35.1,1.51-3.57,3.14-7.13,4.35-10.82.06-.16-.2-.23-.26-.07Z"/><path class="cls-4" d="M253.85,158c-1.18,1.68-2.21,3.45-3.41,5.12-.1.13.12.3.24.18a16.09,16.09,0,0,0,1.76-2.4c.57-.91,1.12-1.83,1.73-2.71.14-.2-.18-.38-.32-.19Z"/><path class="cls-4" d="M125.27,134.33a9.44,9.44,0,0,1,2.38,2.5c.31.46.61.94.9,1.42.14.25.28.5.43.74s.34.44.51.66.59,0,.5-.29a5.82,5.82,0,0,0-.29-.83c-.13-.26-.27-.51-.42-.76a15.55,15.55,0,0,0-1-1.51,10.07,10.07,0,0,0-2.68-2.44c-.32-.2-.6.29-.29.51Z"/><path class="cls-4" d="M127.82,146.62q.75.94,1.47,1.92a13.32,13.32,0,0,0,1.58,2.07.2.2,0,0,0,.33-.2,7.58,7.58,0,0,0-1.36-2.28c-.5-.67-1-1.33-1.54-2a.34.34,0,0,0-.48,0,.35.35,0,0,0,0,.48Z"/><path class="cls-4" d="M137.18,136.85a16.24,16.24,0,0,0,1.2,2c.41.69.79,1.4,1.18,2.11.78,1.43,1.46,2.91,2.29,4.33a.29.29,0,0,0,.53-.23,19.26,19.26,0,0,0-2-4.5c-.4-.7-.85-1.37-1.31-2a9.94,9.94,0,0,0-1.52-1.94c-.15-.12-.46,0-.37.22Z"/><path class="cls-4" d="M136.7,150.86c1,1.28,1.92,2.55,2.88,3.82.47.63.92,1.27,1.38,1.91a20.85,20.85,0,0,0,1.41,1.84.22.22,0,0,0,.37-.21,13.67,13.67,0,0,0-2.46-4c-1-1.27-2.07-2.49-3.1-3.73-.22-.27-.69.09-.48.37Z"/><path class="cls-4" d="M147.74,152.54c.8,1.34,1.5,2.75,2.22,4.14a18.7,18.7,0,0,0,2.39,3.86.31.31,0,0,0,.52-.3,21.86,21.86,0,0,0-2-4.12c-.78-1.37-1.62-2.68-2.51-4a.39.39,0,0,0-.67.4Z"/><path class="cls-4" d="M150.46,170.14a4,4,0,0,0-.05-.7,2,2,0,0,0-.08-.33.63.63,0,0,0-.29-.33.15.15,0,0,0-.17.1.33.33,0,0,0,0,.17.76.76,0,0,0,0,.21l0,.15a.13.13,0,0,1,0,.06v.05h0c0,.21,0,.41,0,.62a.25.25,0,0,0,.24.25.25.25,0,0,0,.25-.25Z"/><path class="cls-4" d="M145.47,164.08a14.44,14.44,0,0,1,3.68,4.32c.5.81,1,1.64,1.44,2.47a10.74,10.74,0,0,0,1.45,2.24c.12.13.28,0,.22-.17a25.71,25.71,0,0,0-1.39-2.45c-.5-.87-1-1.74-1.54-2.58a11.07,11.07,0,0,0-3.77-4,.09.09,0,0,0-.09.15Z"/><path class="cls-4" d="M156.3,163.66c.47,1,.93,2.09,1.38,3.14a15,15,0,0,0,1.59,3c.1.14.36.06.29-.13a24,24,0,0,0-1.39-3.11c-.52-1-1-2.06-1.65-3.05a.13.13,0,0,0-.22.13Z"/><path class="cls-4" d="M155.48,181.45c.81,1.68,1.64,3.35,2.4,5.05.39.87.76,1.76,1.09,2.65.15.43.3.87.43,1.31a4.31,4.31,0,0,0,.47,1.27c.09.12.34.14.37,0a5.73,5.73,0,0,0-.62-2.61,27.32,27.32,0,0,0-1.12-2.61c-.87-1.75-1.9-3.41-2.86-5.11-.06-.11-.22,0-.16.1Z"/><path class="cls-4" d="M164.9,185.7a13.23,13.23,0,0,0,1.32,4.87c.32.78.7,1.54,1,2.31a14.82,14.82,0,0,0,1.17,2.32c.1.14.37.11.35-.09a6.51,6.51,0,0,0-.7-2.24q-.56-1.17-1.14-2.34c-.4-.8-.81-1.6-1.14-2.43s-.53-1.61-.76-2.42a.07.07,0,0,0-.14,0Z"/><path class="cls-4" d="M221.2,202.34c.51-1.43.82-2.92,1.31-4.35s1.21-2.8,1.84-4.2c.1-.2-.16-.46-.33-.26a13.08,13.08,0,0,0-2.19,4.12,18,18,0,0,0-1.1,4.62c0,.29.39.31.47.07Z"/><path class="cls-4" d="M226.46,183.49c.48-1.58,1-3.15,1.48-4.71a.14.14,0,0,0-.26-.11,16.32,16.32,0,0,0-1.52,4.74.16.16,0,0,0,.3.08Z"/><path class="cls-4" d="M234.52,179c.78-1,1.6-2,2.37-3a25.52,25.52,0,0,0,2.19-3.17c.11-.19-.15-.4-.3-.23a25.1,25.1,0,0,0-2.32,3c-.74,1-1.41,2.14-2.13,3.19-.08.12.1.26.19.15Z"/><path class="cls-4" d="M232.05,169.38a9.8,9.8,0,0,1,1-2.78,12.4,12.4,0,0,0,1.12-2.76c0-.16-.19-.28-.27-.12-.48.92-.94,1.86-1.36,2.81a9.78,9.78,0,0,0-.86,2.8c0,.22.36.27.39,0Z"/><path class="cls-4" d="M238.66,149.88a4,4,0,0,1,.32-1.45,4.9,4.9,0,0,1,.32-.65l.39-.69a.15.15,0,0,0-.24-.18,3.44,3.44,0,0,0-.85,1.39,4.32,4.32,0,0,0-.28,1.58.17.17,0,0,0,.34,0Z"/><path class="cls-4" d="M174.73,230.35a18.44,18.44,0,0,1,1.92,6.12c0,.08.16.06.15,0a13.92,13.92,0,0,0-1.94-6.18c-.05-.09-.18,0-.13.08Z"/><path class="cls-4" d="M178.3,253.84c.23,1.88.88,3.67,1.15,5.54,0,.05.11,0,.1,0-.18-1.86-.78-3.66-1-5.52,0-.17-.3-.17-.27,0Z"/><path class="cls-4" d="M179.05,270.82a38.92,38.92,0,0,0,.85,5.13c.19.83.37,1.65.52,2.48A11.08,11.08,0,0,0,181,281c.09.21.4.13.46-.06a5.83,5.83,0,0,0-.1-2.56c-.15-.83-.35-1.65-.56-2.47-.44-1.71-1-3.39-1.29-5.13,0-.25-.47-.2-.45.06Z"/><path class="cls-4" d="M207.15,267.47a44.42,44.42,0,0,0-1.89,5c-.28.86-.54,1.73-.77,2.61a6,6,0,0,0-.39,2.54.2.2,0,0,0,.37.05,4,4,0,0,0,.38-1.12c.12-.43.22-.86.33-1.28.23-.88.49-1.75.75-2.62a45.28,45.28,0,0,0,1.5-5.07c0-.16-.2-.28-.28-.12Z"/><path class="cls-4" d="M208.82,245.81c-.18.76-.43,1.5-.6,2.26s-.35,1.58-.51,2.38-.31,1.53-.46,2.3a14,14,0,0,0-.34,2.32.16.16,0,0,0,.3.08,14,14,0,0,0,1.27-4.49c.14-.77.27-1.54.38-2.32s.16-1.63.31-2.43c0-.23-.3-.33-.35-.1Z"/><path class="cls-4" d="M215.76,229.42a7.4,7.4,0,0,0-1.63,3.46,19.15,19.15,0,0,0-.66,4c0,.27.36.29.45.06a22.62,22.62,0,0,0,.84-3.75,12.44,12.44,0,0,1,1.15-3.62.1.1,0,0,0-.15-.12Z"/><path class="cls-4" d="M166.53,203.33a11.21,11.21,0,0,0,.67,2.18c.27.74.6,1.46.9,2.19.59,1.43,1.06,2.93,1.77,4.32a.26.26,0,0,0,.48-.13,13,13,0,0,0-1.46-4.44c-.32-.7-.64-1.39-1-2.08s-.67-1.48-1.1-2.16a.16.16,0,0,0-.29.12Z"/><path class="cls-4" d="M72.31,177.8c2.89,0,5.68,1.15,8.57.93a.2.2,0,0,0,0-.4c-2.86-.25-5.68-1-8.57-1a.21.21,0,0,0,0,.42Z"/><path class="cls-4" d="M79.17,169.91c2.67.69,5.17,2.08,7.91,2.5a.19.19,0,0,0,.1-.37c-2.61-.87-5.21-1.93-7.9-2.55a.22.22,0,0,0-.11.42Z"/><path class="cls-4" d="M84.43,159.54a20.34,20.34,0,0,1,3,.74c1,.33,2,.73,3,1.08.19.07.3-.22.13-.32a16.19,16.19,0,0,0-5.94-2c-.32,0-.46.44-.14.49Z"/><path class="cls-4" d="M92.84,167.56a16.9,16.9,0,0,1,2.79.75c1,.35,1.86.79,2.81,1.12a.2.2,0,0,0,.16-.37,8.23,8.23,0,0,0-1.38-.72c-.46-.19-.93-.37-1.4-.53a17.53,17.53,0,0,0-2.86-.69c-.28-.05-.41.38-.12.44Z"/><path class="cls-4" d="M97.93,152.62c.89.37,1.76.78,2.62,1.21a20.82,20.82,0,0,0,2.65,1.28.24.24,0,0,0,.23-.39,11.26,11.26,0,0,0-2.64-1.5c-.89-.4-1.8-.78-2.72-1.12-.33-.13-.46.39-.14.52Z"/><path class="cls-4" d="M115.54,157.35a9.48,9.48,0,0,1,1,1.13l.48.67c.1.13.2.26.31.38a1.87,1.87,0,0,0,.35.28.23.23,0,0,0,.34-.26,2.12,2.12,0,0,0-.37-.79l-.52-.71a12.14,12.14,0,0,0-1-1.21.36.36,0,0,0-.51.51Z"/><path class="cls-4" d="M112,146.18c.5.49,1,1,1.48,1.48l.73.72.36.34a4.6,4.6,0,0,0,.45.32c.13.09.32-.09.22-.22a3.15,3.15,0,0,0-.31-.41l-.36-.35c-.25-.25-.51-.48-.77-.72l-1.54-1.41c-.17-.16-.43.09-.26.25Z"/><path class="cls-4" d="M90.76,178.42a15,15,0,0,1,5.15.77,45.07,45.07,0,0,0,4.64,1.42c.33.07.59-.41.24-.57-3.11-1.41-6.56-2.62-10-2.25-.39.05-.41.65,0,.63Z"/><path class="cls-4" d="M103.6,161.65c1,.66,2,1.37,3.05,2a12.18,12.18,0,0,0,3.31,1.69.25.25,0,0,0,.19-.46c-1.08-.59-2.16-1.18-3.2-1.86s-2-1.35-3-2c-.37-.23-.71.35-.34.59Z"/><path class="cls-4" d="M271.5,141.43c.69-1.12,1.45-2.21,2.22-3.28s1.64-2.19,2.37-3.35c.11-.17-.15-.38-.29-.22a39.36,39.36,0,0,0-2.49,3.25c-.76,1.11-1.51,2.23-2.2,3.38a.22.22,0,0,0,.39.22Z"/><path class="cls-4" d="M286.3,147.91a30.54,30.54,0,0,1,3-1.69c1.06-.52,2.15-1,3.19-1.55a.22.22,0,0,0-.17-.39,24.87,24.87,0,0,0-6.35,3.08c-.35.22,0,.77.32.55Z"/><path class="cls-4" d="M302.93,158.93a47.18,47.18,0,0,0,6.65-1.34.18.18,0,0,0-.05-.36c-2.28,0-4.44.82-6.67,1.19-.28.05-.22.55.07.51Z"/><path class="cls-4" d="M285.32,138.42c-1.73,2.31-4.05,4.16-5.56,6.65-.06.1.09.17.15.09,1.67-2.39,3.89-4.29,5.63-6.61.1-.13-.12-.26-.22-.13Z"/><path class="cls-4" d="M283.47,156.8c-1.22,1.11-2.47,2.19-3.73,3.24a47.36,47.36,0,0,0-3.85,3.37c-.16.17.05.47.25.33a35.2,35.2,0,0,0,4-3.23c1.23-1.12,2.45-2.25,3.63-3.43a.19.19,0,0,0-.27-.28Z"/><path class="cls-4" d="M296.79,167.11a30,30,0,0,1-2.35,3,30.82,30.82,0,0,0-2.32,2.91c-.14.22.17.43.35.27a22.52,22.52,0,0,0,4.58-6.07.15.15,0,0,0-.26-.15Z"/><path class="cls-4" d="M299.1,152.93c-1.38,1.91-3.18,3.47-4.6,5.36-.09.12.1.26.21.16.86-.86,1.69-1.76,2.5-2.68a27.87,27.87,0,0,0,2.14-2.7c.1-.15-.14-.29-.25-.14Z"/><path class="cls-4" d="M271.37,149.67c-1.57,2.07-3.06,4.21-4.47,6.38-.12.19.13.35.28.23,2-1.73,3.25-4.16,4.78-6.27.25-.36-.33-.68-.59-.34Z"/><path class="cls-4" d="M261.11,169.87a8.24,8.24,0,0,1,.64-1.34c.24-.47.55-.91.82-1.36.07-.11-.1-.25-.18-.15a9.66,9.66,0,0,0-1.69,2.73c-.1.26.32.38.41.12Z"/><path class="cls-4" d="M278.94,191.59c2.52-2.09,4.93-4.3,7.45-6.37.14-.11,0-.34-.19-.24-2.77,1.77-5.1,4.14-7.61,6.25-.25.21.1.56.35.36Z"/><path class="cls-4" d="M304.3,186a27.13,27.13,0,0,1,4.31-2.83c.15-.07.05-.31-.11-.27a16.09,16.09,0,0,0-4.51,2.58c-.31.22,0,.75.31.52Z"/><path class="cls-4" d="M305.29,170c.3-.3.59-.62.91-.9a4.23,4.23,0,0,1,1.13-.69c.14-.06,0-.26-.09-.23a5.38,5.38,0,0,0-2.35,1.42c-.27.25.13.66.4.4Z"/><path class="cls-4" d="M317.72,187l2.07-.45,1.06-.25a6.09,6.09,0,0,0,1-.35.24.24,0,0,0-.11-.44,14.58,14.58,0,0,0-2.1.33c-.7.14-1.39.29-2.07.46a.36.36,0,0,0,.19.7Z"/><path class="cls-4" d="M312.52,174.39l.46-.24.23-.12.22-.15c.14-.09.3-.16.45-.25s.28-.21.42-.31a.24.24,0,0,0-.19-.44,4.43,4.43,0,0,0-.49.13l-.48.2-.25.07-.23.1-.48.2a.6.6,0,0,0-.27.2.47.47,0,0,0,0,.4.45.45,0,0,0,.63.21Z"/><path class="cls-4" d="M319.24,204.5l3.57-.46c1.21-.14,2.43-.25,3.63-.49.16,0,.12-.29,0-.29-1.27.06-2.54.25-3.8.41s-2.31.3-3.47.46c-.24,0-.13.4.11.37Z"/><path class="cls-4" d="M321.7,217.69c.88,0,1.77.06,2.66.05s1.77,0,2.66-.12a.11.11,0,0,0,0-.22c-.89-.08-1.77-.11-2.66-.12s-1.78,0-2.66.05a.18.18,0,0,0,0,.36Z"/><path class="cls-4" d="M316.22,231.26a33.68,33.68,0,0,0,4.33,1.73,12.56,12.56,0,0,0,4.59.91.19.19,0,0,0,.05-.37c-1.45-.44-2.95-.65-4.4-1.1a32.79,32.79,0,0,1-4.29-1.66c-.33-.15-.61.33-.28.49Z"/><path class="cls-4" d="M302.11,227.68a22.91,22.91,0,0,0,7.33,2.87.14.14,0,0,0,.07-.28,44.75,44.75,0,0,1-7.09-3.12c-.35-.19-.66.34-.31.53Z"/><path class="cls-4" d="M306.56,216.33a46.77,46.77,0,0,0,5.42.44.15.15,0,0,0,0-.3,42.67,42.67,0,0,0-5.29-.77c-.41-.07-.58.56-.17.63Z"/><path class="cls-4" d="M303.29,204.32l3.29-.45a30.18,30.18,0,0,0,3.27-.56.21.21,0,0,0-.06-.41,30.68,30.68,0,0,0-3.31.34l-3.36.46c-.41.05-.23.67.17.62Z"/><path class="cls-4" d="M287.56,198.11c1.4-.28,2.69-.89,4.06-1.25a0,0,0,1,0,0-.09c-1.39.31-2.69.89-4.09,1.14-.13,0-.08.23.05.2Z"/><path class="cls-4" d="M269.74,184.32a10.28,10.28,0,0,1,2.14-3.11c.44-.46.92-.88,1.35-1.35s.89-1,1.31-1.49c.16-.18-.05-.53-.27-.36-.54.4-1.08.8-1.59,1.23a14.87,14.87,0,0,0-1.49,1.48A11.13,11.13,0,0,0,269,184.1a.4.4,0,0,0,.28.49.41.41,0,0,0,.49-.27Z"/><path class="cls-4" d="M64.61,185.63c2.44.82,4.14,2.83,6.42,3.94a.08.08,0,0,0,.08-.14c-1.12-.69-2.18-1.48-3.26-2.24a9.58,9.58,0,0,0-3.22-1.62s-.06.05,0,.06Z"/><path class="cls-4" d="M59.86,199.7a16.92,16.92,0,0,1,3.88.64c1.19.33,2.36.74,3.57,1a.11.11,0,0,0,.06-.22,21.45,21.45,0,0,0-7.51-1.63.12.12,0,0,0,0,.23Z"/><path class="cls-4" d="M56.47,212.73a42.1,42.1,0,0,0,6.83,0,.15.15,0,0,0,0-.29,42.1,42.1,0,0,0-6.83,0,.14.14,0,0,0,0,.27Z"/><path class="cls-4" d="M57.49,223.43a26.34,26.34,0,0,0,5.47.08.19.19,0,0,0,0-.37,25.66,25.66,0,0,0-5.47.08.11.11,0,0,0,0,.21Z"/><path class="cls-4" d="M66.31,236.17a83.89,83.89,0,0,0,10.87,0,.17.17,0,0,0,0-.33,82.15,82.15,0,0,0-10.87,0,.16.16,0,0,0,0,.32Z"/><path class="cls-4" d="M73.11,226.11a23.37,23.37,0,0,1,4.09.44c1.35.26,2.67.63,4,.82a.15.15,0,0,0,.08-.29,26.49,26.49,0,0,0-4.14-1,23.92,23.92,0,0,0-4-.37.19.19,0,0,0,0,.37Z"/><path class="cls-4" d="M71.41,210.15a22.21,22.21,0,0,1,3.35.32c1,.18,2,.47,3.07.64.15,0,.27-.19.11-.27a10.44,10.44,0,0,0-3.11-.82,23.07,23.07,0,0,0-3.42-.19.16.16,0,0,0,0,.32Z"/><path class="cls-4" d="M80.88,189a52.79,52.79,0,0,1,8.47,3.82.12.12,0,0,0,.12-.2,34.11,34.11,0,0,0-8.49-4,.19.19,0,0,0-.1.36Z"/><path class="cls-4" d="M88,212.44c1.2.83,2.39,1.66,3.6,2.47a26.35,26.35,0,0,0,3.92,2.34c.12.05.27-.1.15-.2-1.19-.92-2.51-1.69-3.78-2.51s-2.46-1.62-3.69-2.44c-.21-.14-.4.2-.2.34Z"/><path class="cls-4" d="M82.91,197.83A13.17,13.17,0,0,1,86.75,199c1.25.6,2.41,1.34,3.6,2,.16.09.36-.14.21-.27a15.14,15.14,0,0,0-7.6-3.33c-.23,0-.28.37,0,.4Z"/><path class="cls-4" d="M107.68,202c1.06.68,2.14,1.32,3.22,2s2.14,1.33,3.26,1.9c.12.07.21-.1.1-.18a28.42,28.42,0,0,0-3.19-2c-1.09-.64-2.17-1.27-3.23-1.95-.17-.11-.33.16-.16.27Z"/><path class="cls-4" d="M98.88,190.63c.51.15,1,.25,1.54.42s1,.33,1.41.52c1,.39,1.88.84,2.81,1.27a.11.11,0,0,0,.11-.19,14.28,14.28,0,0,0-1.3-.82,15.82,15.82,0,0,0-1.45-.67,9.47,9.47,0,0,0-3.08-.84c-.17,0-.2.26,0,.31Z"/><path class="cls-4" d="M113.43,181.2c1.28.92,2.42,2.06,3.77,2.87.11.07.24-.09.14-.18-1.2-1-2.43-2.08-3.72-3-.2-.14-.39.19-.19.32Z"/><path class="cls-4" d="M125,168.23c2.79,1.77,4.09,4.93,6.1,7.42.14.17.38-.05.29-.22a29.1,29.1,0,0,0-2.64-4.26,12.27,12.27,0,0,0-3.53-3.32.22.22,0,0,0-.22.38Z"/><path class="cls-4" d="M125.21,188a20.57,20.57,0,0,0,3.06,3.66c.57.55,1.15,1.11,1.74,1.66a15.32,15.32,0,0,0,1.75,1.57c.19.12.39-.12.29-.29a7.57,7.57,0,0,0-1.5-1.75c-.56-.54-1.14-1.07-1.71-1.6a22.64,22.64,0,0,1-3.22-3.49c-.17-.25-.57,0-.41.24Z"/><path class="cls-4" d="M115.45,167.84a29.7,29.7,0,0,1,4.41,4.83c.1.16.32,0,.25-.15-.89-2.08-2.81-3.43-4.42-4.92-.16-.15-.4.08-.24.24Z"/><path class="cls-4" d="M116.17,194.77c.94,1,2,1.85,3,2.73a14.84,14.84,0,0,0,3.11,2.25c.19.1.43-.15.24-.3-1-.83-2-1.61-3-2.42a30.77,30.77,0,0,0-3.17-2.41c-.1-.05-.2.08-.12.15Z"/><path class="cls-4" d="M97.81,208.47a48.64,48.64,0,0,0,6.16,4.22.11.11,0,0,0,.11-.19c-2-1.43-4.13-2.69-6.06-4.24-.15-.11-.36.09-.21.21Z"/><path class="cls-4" d="M95.42,233c2.46,1.34,5,2.65,7.51,3.81a.13.13,0,0,0,.13-.22c-2.35-1.53-5-2.65-7.41-4-.26-.14-.49.26-.23.4Z"/><path class="cls-4" d="M92.39,224.13c.82.47,1.68.89,2.54,1.3s1.71.85,2.58,1.23a.11.11,0,0,0,.11-.18,16.88,16.88,0,0,0-2.51-1.36c-.86-.41-1.72-.83-2.54-1.3a.18.18,0,0,0-.18.31Z"/><path class="cls-4" d="M113.87,222.64c2.74.11,4.77,2.21,7,3.47a.22.22,0,0,0,.26-.34c-1.83-2-4.47-3.76-7.29-3.71a.29.29,0,0,0,0,.58Z"/><path class="cls-4" d="M260.74,201.61c1-1.82,2.36-3.4,3.36-5.22.08-.13-.11-.24-.2-.12a41.55,41.55,0,0,0-3.41,5.2c-.08.16.16.3.25.14Z"/><path class="cls-4" d="M248.88,196c.07-3.33,2.43-5.8,3.7-8.71a.14.14,0,0,0-.25-.14c-1.68,2.66-3.76,5.57-3.77,8.85a.16.16,0,0,0,.32,0Z"/><path class="cls-4" d="M280.75,173.08c.91-.69,1.85-1.34,2.81-2s2-1.27,2.94-2c.11-.08,0-.23-.14-.17a28,28,0,0,0-3.05,1.87c-.94.63-1.86,1.28-2.76,2-.19.15,0,.48.2.33Z"/><path class="cls-4" d="M265.74,215.25c2.43-1.25,4.5-3.09,6.82-4.52.11-.07,0-.23-.11-.18-2.46,1.2-4.42,3.2-6.78,4.58a.07.07,0,0,0,.07.12Z"/><path class="cls-4" d="M276.93,216.87a18.66,18.66,0,0,1,5.77-2c.05,0,0-.1,0-.1a16,16,0,0,0-5.8,2c-.05,0,0,.12.05.09Z"/><path class="cls-4" d="M290.27,192.31A22,22,0,0,1,297,191a.17.17,0,0,0,0-.34,12.72,12.72,0,0,0-6.91,1.28c-.26.13,0,.52.23.4Z"/><path class="cls-4" d="M280.65,224.25a45.49,45.49,0,0,0,4.67-.23,20.72,20.72,0,0,0,4.55-.83c.19-.07.18-.41-.06-.39-1.53.12-3.05.46-4.58.63a43.8,43.8,0,0,1-4.58.27.28.28,0,0,0,0,.55Z"/><path class="cls-4" d="M290.25,211.31A22.58,22.58,0,0,0,296,209.5c.19-.09.05-.37-.15-.34-2,.39-3.83,1.14-5.82,1.46-.45.08-.26.77.19.69Z"/><path class="cls-4" d="M238,213.94c.65-1.85,1.32-3.69,2-5.54,0-.13-.17-.22-.23-.09a54.32,54.32,0,0,0-2.12,5.53c-.08.24.3.34.38.1Z"/><path class="cls-4" d="M250.57,212.42a27.39,27.39,0,0,0,4.39-5.28c.08-.14-.12-.3-.22-.18-.71.9-1.39,1.81-2.13,2.68s-1.52,1.69-2.34,2.48c-.2.19.1.49.3.3Z"/><path class="cls-4" d="M126.36,204.84c1,1.36,2,2.72,3.16,4a24.57,24.57,0,0,0,3.62,3.59c.18.14.34-.14.22-.29-1.05-1.31-2.32-2.45-3.47-3.68s-2.31-2.44-3.39-3.74c-.07-.07-.21,0-.14.12Z"/><path class="cls-4" d="M142.39,191.33a50.77,50.77,0,0,0,6,9.39c.16.19.46-.06.34-.27-.89-1.6-1.89-3.13-2.85-4.69s-1.9-3.19-2.76-4.83c-.24-.46-.94-.06-.7.4Z"/><path class="cls-4" d="M144.29,215.27c.85,1.17,1.6,2.4,2.37,3.62a15.73,15.73,0,0,0,2.42,3.24c.13.11.35,0,.25-.19-.76-1.12-1.58-2.19-2.33-3.32s-1.57-2.38-2.42-3.51c-.13-.17-.41,0-.29.16Z"/><path class="cls-4" d="M124,211.45a20.2,20.2,0,0,1,4.08,3.81c1.22,1.44,2.31,3,3.66,4.32.18.18.5-.05.36-.27a30.48,30.48,0,0,0-3.64-4.53,21.55,21.55,0,0,0-4.27-3.65c-.21-.13-.39.19-.19.32Z"/><path class="cls-4" d="M108.62,235c.69.49,1.38,1,2.09,1.44a22.63,22.63,0,0,0,2.41,1.33.13.13,0,0,0,.14-.23c-1.47-1-2.89-2-4.32-3.08-.33-.24-.66.31-.32.54Z"/><path class="cls-4" d="M290.16,239.39a32.71,32.71,0,0,0,8.17-2.31c.11-.05.07-.22-.05-.18a47.65,47.65,0,0,1-8.12,2.24c-.16,0-.16.26,0,.25Z"/><path class="cls-4" d="M266.19,231.54a14.62,14.62,0,0,1,3.67-3.69c1.43-1.09,3-2,4.43-3.06a.19.19,0,0,0-.19-.33,28.82,28.82,0,0,0-4.7,3,10.85,10.85,0,0,0-3.5,3.91.17.17,0,0,0,.29.17Z"/><path class="cls-4" d="M246.86,228.63c1.79-3.35,4.64-5.9,7.06-8.78.11-.14-.07-.33-.2-.2-2.71,2.61-5.46,5.4-7.22,8.78-.12.23.23.44.36.2Z"/><path class="cls-4" d="M230.71,222.25c-.69,2.63-1.66,5.18-2.16,7.86a.14.14,0,1,0,.27.07c.87-2.57,1.87-5.11,2.59-7.73a.36.36,0,0,0-.7-.2Z"/><path class="cls-4" d="M160,218.54a37,37,0,0,1,3.88,10.19c0,.11.19.06.16,0-.78-3.58-1.69-7.24-3.8-10.28-.1-.15-.33,0-.24.13Z"/><path class="cls-4" d="M131.76,228.82a19.82,19.82,0,0,0,5.53,4.75c.15.08.33-.13.19-.25-1.84-1.57-3.8-3-5.49-4.73-.15-.15-.37.08-.23.23Z"/><path class="cls-4" d="M115.56,246.53a44.32,44.32,0,0,1,4.17,2.28.18.18,0,0,0,.21-.29,10.38,10.38,0,0,0-4.16-2.51c-.3-.09-.51.39-.22.52Z"/><path class="cls-4" d="M160.47,238.28c.58,1.11,1,2.29,1.72,3.35.08.11.29,0,.23-.1a37.43,37.43,0,0,0-1.55-3.49c-.14-.27-.54,0-.4.24Z"/><path class="cls-4" d="M169,249.5c.27,1,.48,2.09.68,3.14a19.5,19.5,0,0,0,.73,3.13.15.15,0,0,0,.28-.08c-.16-1.06-.42-2.1-.63-3.15s-.43-2.11-.7-3.14a.19.19,0,0,0-.36.1Z"/><path class="cls-4" d="M161.56,268.39a33.44,33.44,0,0,0,1.48,3.15c.54,1.06,1.07,2.12,1.61,3.17a.15.15,0,0,0,.28-.12,17.15,17.15,0,0,0-1.41-3.12,34.82,34.82,0,0,1-1.56-3.19c-.1-.24-.5-.14-.4.11Z"/><path class="cls-4" d="M153.59,275c1.38,2.1,2.68,4.29,4.24,6.25.1.13.28,0,.21-.16-.59-1.1-1.28-2.15-2-3.2l-2-3.15c-.18-.28-.63,0-.45.26Z"/><path class="cls-4" d="M172.4,283.9c.27.81.55,1.61.83,2.42.13.39.27.79.41,1.18a11,11,0,0,0,.52,1.17c.13.25.5.07.44-.19a10.4,10.4,0,0,0-.32-1.25c-.14-.38-.27-.76-.4-1.14-.28-.79-.55-1.58-.82-2.37-.15-.41-.8-.23-.66.18Z"/><path class="cls-4" d="M211.9,282.59a18.88,18.88,0,0,0-1.28,3.8.21.21,0,0,0,.38.16,9.28,9.28,0,0,0,.81-1.89,11.61,11.61,0,0,1,.68-1.72c.2-.39-.39-.74-.59-.35Z"/><path class="cls-4" d="M224.3,283.86a12.34,12.34,0,0,0-1.1,1.67,8.13,8.13,0,0,0-.77,1.91.19.19,0,0,0,.35.15,25.9,25.9,0,0,1,2-3.28.34.34,0,0,0,0-.45.33.33,0,0,0-.45,0Z"/><path class="cls-4" d="M212.54,294.38a13.53,13.53,0,0,0,1.39-2.46,20.36,20.36,0,0,0,1.18-2.81.18.18,0,0,0-.33-.14,25.4,25.4,0,0,0-1.32,2.73,24.3,24.3,0,0,0-1.09,2.58c0,.1.11.19.17.1Z"/><path class="cls-4" d="M202.83,294.31a13.36,13.36,0,0,1,.67-3.36c.32-1,.65-2.09.87-3.16a.13.13,0,0,0-.25-.07c-.35,1.08-.83,2.11-1.19,3.19a10.36,10.36,0,0,0-.56,3.4.23.23,0,0,0,.46,0Z"/><path class="cls-4" d="M216.23,276.52a16.87,16.87,0,0,1,1-3.12,25.88,25.88,0,0,0,1.19-3.18.19.19,0,0,0-.35-.14,25.55,25.55,0,0,0-1.41,3.16,12,12,0,0,0-.8,3.23c0,.21.35.27.39,0Z"/><path class="cls-4" d="M227.77,277.22c1-1.23,1.94-2.58,2.91-3.87a30.23,30.23,0,0,0,2.85-4.09.27.27,0,0,0-.42-.33,37.26,37.26,0,0,0-3.15,3.83,21.6,21.6,0,0,0-2.68,4.08c-.13.29.24.67.49.38Z"/><path class="cls-4" d="M236.28,279.23a20.6,20.6,0,0,1,3.21-3.77c1.24-1.15,2.59-2.17,3.86-3.28.22-.2-.06-.51-.3-.39a15.63,15.63,0,0,0-4.11,3.21,22.48,22.48,0,0,0-3.12,4,.27.27,0,0,0,.46.27Z"/><path class="cls-4" d="M219.32,262.89c.36-2.26,1.32-4.35,1.87-6.57.05-.24-.29-.4-.41-.17a16.64,16.64,0,0,0-2,6.67c0,.31.51.39.56.07Z"/><path class="cls-4" d="M216.92,253.9c.06-2.69,1.07-5.21,1.3-7.87,0-.33-.45-.36-.54-.08a24.59,24.59,0,0,0-1.44,8,.34.34,0,0,0,.68,0Z"/><path class="cls-4" d="M228.33,243.47c.3-2.15,1.46-4,2.11-6.06a.16.16,0,0,0-.29-.12,20.75,20.75,0,0,0-2.29,6.05c0,.3.42.44.47.13Z"/><path class="cls-4" d="M265.49,243.27c1.95-2.36,4.44-4.14,6.54-6.34a.12.12,0,0,0-.16-.17,53,53,0,0,0-6.63,6.25c-.14.18.11.44.25.26Z"/><path class="cls-4" d="M268.19,253.71a96.35,96.35,0,0,1,9-6.56.08.08,0,0,0-.09-.14c-3.31,1.72-6.15,4.26-9.07,6.55-.1.08,0,.23.15.15Z"/><path class="cls-4" d="M333.42,224.49c5.54-.76,11.22-.52,16.7-1.64a.19.19,0,0,0-.05-.37c-5.59.44-11.24.71-16.79,1.52-.32.05-.18.53.14.49Z"/><path class="cls-4" d="M337.73,210.23a55.32,55.32,0,0,0,11.79.08.24.24,0,0,0,0-.47c-3.89-.31-7.79.08-11.67-.45a.43.43,0,1,0-.12.84Z"/><path class="cls-4" d="M231.58,202.72a11.94,11.94,0,0,1,.68-3.11,22.69,22.69,0,0,0,.94-3.14.18.18,0,0,0-.33-.14,11.83,11.83,0,0,0-1.69,6.39.2.2,0,0,0,.4,0Z"/><path class="cls-4" d="M152.19,207.06c.79,1.1,1.6,2.18,2.42,3.26a23.06,23.06,0,0,0,2.62,3,.2.2,0,0,0,.31-.23,22.85,22.85,0,0,0-2.32-3.28c-.85-1.06-1.71-2.1-2.58-3.13-.21-.24-.64.08-.45.34Z"/><path class="cls-4" d="M139.9,176.61a16.31,16.31,0,0,0,1.76,2.85c.1.12.29,0,.21-.16-.55-1-1-2-1.56-2.93-.15-.28-.56,0-.41.24Z"/><path class="cls-4" d="M39.73,225.73c3.34.61,6.57,1.61,9.87,2.38a.19.19,0,0,0,.1-.37,40.26,40.26,0,0,0-9.87-2.36c-.23,0-.33.31-.1.35Z"/><path class="cls-4" d="M37.51,215.1c3.17.52,6.2,1.62,9.34,2.23A.18.18,0,0,0,47,217a61.85,61.85,0,0,0-9.27-2.49c-.4-.06-.57.54-.17.61Z"/><path class="cls-4" d="M96.13,245.45a19.85,19.85,0,0,0,4.2,2c.15,0,.26-.2.11-.27-1.38-.67-2.74-1.41-4.07-2.18a.24.24,0,0,0-.24.42Z"/><path class="cls-4" d="M119.84,257.57a23.46,23.46,0,0,0,2.32,1.62,5.61,5.61,0,0,0,2.6,1,.23.23,0,0,0,.11-.41c-.74-.5-1.57-.83-2.35-1.27a19.67,19.67,0,0,1-2.23-1.49c-.34-.25-.78.32-.45.58Z"/><path class="cls-4" d="M124.15,235.85a15.54,15.54,0,0,0,2.83,2.54c1,.77,2.1,1.55,3.21,2.22a.11.11,0,0,0,.13-.17,17.33,17.33,0,0,0-3-2.3,20,20,0,0,1-3-2.41c-.08-.09-.19,0-.12.12Z"/><path class="cls-4" d="M148.94,226.73a30.22,30.22,0,0,0,2.56,4.49c.94,1.44,1.79,2.94,2.72,4.39a.16.16,0,0,0,.3-.12,15.35,15.35,0,0,0-2.46-4.51,31.11,31.11,0,0,1-2.69-4.5c-.13-.3-.56,0-.43.25Z"/><path class="cls-4" d="M240.54,235.6a26.46,26.46,0,0,0,1.92-2.9,28.51,28.51,0,0,0,1.66-3.14.14.14,0,0,0-.24-.14c-.63,1-1.13,2.08-1.71,3.11a29,29,0,0,1-1.87,2.93c-.11.15.14.28.24.14Z"/><path class="cls-4" d="M218.65,221.71a32.56,32.56,0,0,0,1.94-3.7,24.78,24.78,0,0,0,1.36-3.69c.05-.18-.23-.31-.31-.13-.53,1.19-1,2.43-1.49,3.64s-1.13,2.5-1.81,3.7a.18.18,0,0,0,.31.18Z"/><path class="cls-4" d="M243.72,183.21a19.35,19.35,0,0,0,1.31-2.06c.21-.36.4-.72.6-1.08s.35-.72.52-1.09-.22-.58-.43-.33a8.27,8.27,0,0,0-.73.95c-.22.37-.45.73-.65,1.1-.4.72-.81,1.44-1.18,2.18a.33.33,0,0,0,.56.33Z"/><path class="cls-4" d="M273.75,204a18.85,18.85,0,0,0,3.22-2.26c.11-.09,0-.26-.14-.19a31.45,31.45,0,0,1-3.37,2c-.34.16,0,.66.29.49Z"/><path class="cls-5" d="M221.75,310.57a33.51,33.51,0,0,1-15.81,11.62c-3.44,1.25-11.36,1.25-14.8,0a33.45,33.45,0,0,1-15.81-11.59c-2-2.88-6.6-16.7,23.19-16.7S223.75,307.7,221.75,310.57Z"/><path class="cls-6" d="M190.47,322a6,6,0,0,0,2.25-4.67c0-4-3.62-7.33-11.93-7.33a22.31,22.31,0,0,0-5.49.61A33.36,33.36,0,0,0,190.47,322Z"/><path class="cls-6" d="M221.75,310.57a22.49,22.49,0,0,0-5.49-.61c-8.32,0-11.93,3.29-11.93,7.33a6,6,0,0,0,2.22,4.67A33.39,33.39,0,0,0,221.75,310.57Z"/><path class="cls-7" d="M211.63,298.07s-6.34-5-21.95-1.2C176,300.18,176,307.55,177.1,307.61s9.49-1.91,15,2.84S181.73,301.4,211.63,298.07Z"/><path class="cls-6" d="M159.43,254.7c0,7.9-6.69,14.31-14.94,14.31s-15-6.41-15-14.31,6.69-14.3,15-14.3S159.43,246.8,159.43,254.7Z"/><path class="cls-8" d="M153.62,257.43a7.63,7.63,0,1,1-7.62-7.29A7.46,7.46,0,0,1,153.62,257.43Z"/><path class="cls-9" d="M134.29,257.1a11.91,11.91,0,0,1,12.16-11.65,12.11,12.11,0,0,1,11.6,8.17,13,13,0,0,0-25.75,2.08,12.43,12.43,0,0,0,8.19,11.54A11.53,11.53,0,0,1,134.29,257.1Z"/><path class="cls-9" d="M145.86,251.43a3.19,3.19,0,1,1-3.18-3.06A3.12,3.12,0,0,1,145.86,251.43Z"/><path class="cls-9" d="M141.61,256.52a2.12,2.12,0,1,1-2.13-2A2.08,2.08,0,0,1,141.61,256.52Z"/><path class="cls-6" d="M230.72,254.7c0,7.9,6.69,14.31,14.95,14.31s14.94-6.41,14.94-14.31-6.69-14.3-14.94-14.3S230.72,246.8,230.72,254.7Z"/><path class="cls-8" d="M236.53,257.43a7.63,7.63,0,1,0,7.62-7.29A7.46,7.46,0,0,0,236.53,257.43Z"/><path class="cls-9" d="M255.86,257.1a11.91,11.91,0,0,0-12.16-11.65,12.11,12.11,0,0,0-11.61,8.17,12.84,12.84,0,0,1,12.78-10.35c7.17,0,13,5.57,13,12.43a12.45,12.45,0,0,1-8.21,11.54A11.56,11.56,0,0,0,255.86,257.1Z"/><path class="cls-9" d="M244.28,251.43a3.19,3.19,0,1,0,3.19-3.06A3.12,3.12,0,0,0,244.28,251.43Z"/><path class="cls-9" d="M248.53,256.52a2.13,2.13,0,1,0,2.13-2A2.08,2.08,0,0,0,248.53,256.52Z"/><rect class="cls-10" width="400" height="400"/></g></g></svg>