<svg xmlns="http://www.w3.org/2000/svg" viewBox="0 0 400 400"><defs><style>.cls-1{isolation:isolate;}.cls-2{fill:#cba04d;}.cls-3{fill:#896f35;}.cls-4{fill:#e3b355;}.cls-5{fill:#f3e8df;}.cls-6{fill:#250b0f;}.cls-7{fill:#b53e52;}.cls-8{fill:#fffcfd;}.cls-9{fill:#232827;}.cls-10,.cls-11{fill:none;}.cls-10{stroke:#656e6d;stroke-linecap:round;stroke-linejoin:round;stroke-width:0.88px;mix-blend-mode:multiply;}</style></defs><g class="cls-1"><g id="Calque_2" data-name="Calque 2"><g id="Calque_1-2" data-name="Calque 1"><path class="cls-2" d="M84.68,139.83A228.75,228.75,0,0,1,153,90.64c.91-15.41-2.67-47.81-50.84-39.95C42.62,60.4,37.07,126,84.68,139.83Z"/><path class="cls-2" d="M315,137.69c47.32-14,41.66-79.35-17.75-89C249.2,40.81,245.51,73,246.41,88.45A228.47,228.47,0,0,1,315,137.69Z"/><path class="cls-3" d="M307.54,130.24c21.11-13.28,14.88-47.52-19.2-53.08-22.79-3.73-29.86,6.68-31.77,16.32A227.58,227.58,0,0,1,307.54,130.24Z"/><path class="cls-3" d="M92.07,132.44a228.62,228.62,0,0,1,50.8-36.77C141,86,134,75.47,111.05,79.21,76.85,84.78,70.69,119.27,92.07,132.44Z"/><path class="cls-4" d="M355.17,240.38c0,38.61-52.5,113.39-154.63,113.39S45.91,278.2,45.91,240.38,77.78,81.52,200.54,81.52,355.17,201.75,355.17,240.38Z"/><path class="cls-5" d="M200.73,324.14a64.28,64.28,0,0,1-19.35,6.24,21.78,21.78,0,0,0,39.35.12A65.26,65.26,0,0,1,200.73,324.14Z"/><path class="cls-5" d="M241.63,249.58h-81.8c-28.37,0-41.38,18.62-41.38,40.75s18.43,40.1,41.38,40.7v0s21.84,3,40.9-6.93c19.06,10,40.9,6.93,40.9,6.93v0c22.95-.6,41.4-18.57,41.4-40.7S270,249.58,241.63,249.58Z"/><path class="cls-6" d="M200.73,324.14a94.53,94.53,0,0,1-1.79-13c-.36-4.32-.46-8.63-.5-12.95s.13-8.64.5-13a91.2,91.2,0,0,1,1.79-12.95,92.64,92.64,0,0,1,1.78,12.95c.37,4.32.47,8.64.5,13s-.14,8.63-.5,12.95A96.07,96.07,0,0,1,200.73,324.14Z"/><path class="cls-6" d="M145.39,275.22a2.13,2.13,0,0,1-2.18,2.08h0a2.11,2.11,0,0,1-2.16-2.08h0a2.12,2.12,0,0,1,2.16-2.08h0a2.14,2.14,0,0,1,2.18,2.08Z"/><path class="cls-6" d="M160.6,274.06a2.13,2.13,0,0,1-2.18,2.07h0a2.13,2.13,0,0,1-2.18-2.07h0a2.14,2.14,0,0,1,2.18-2.09h0a2.14,2.14,0,0,1,2.18,2.09Z"/><path class="cls-6" d="M153.46,284.71a2.13,2.13,0,0,1-2.18,2.08h0a2.15,2.15,0,0,1-2.19-2.08h0a2.14,2.14,0,0,1,2.19-2.09h0a2.13,2.13,0,0,1,2.18,2.09Z"/><path class="cls-6" d="M149.09,296a2.12,2.12,0,0,1-2.17,2.08h0a2.12,2.12,0,0,1-2.17-2.08h0a2.12,2.12,0,0,1,2.17-2.08h0a2.12,2.12,0,0,1,2.17,2.08Z"/><path class="cls-6" d="M167.19,294.4a2.13,2.13,0,0,1-2.17,2.09h0a2.13,2.13,0,0,1-2.16-2.09h0a2.13,2.13,0,0,1,2.16-2.08h0a2.13,2.13,0,0,1,2.17,2.08Z"/><path class="cls-6" d="M140.39,288.87a2.14,2.14,0,0,1-2.18,2.09h0a2.12,2.12,0,0,1-2.16-2.09h0a2.11,2.11,0,0,1,2.16-2.08h0a2.13,2.13,0,0,1,2.18,2.08Z"/><path class="cls-6" d="M168.93,283a2.13,2.13,0,0,1-2.18,2.08h0a2.14,2.14,0,0,1-2.17-2.08h0a2.14,2.14,0,0,1,2.17-2.09h0a2.13,2.13,0,0,1,2.18,2.09Z"/><path class="cls-6" d="M255.55,275.22a2.13,2.13,0,0,0,2.18,2.08h0a2.12,2.12,0,0,0,2.18-2.08h0a2.13,2.13,0,0,0-2.18-2.08h0a2.13,2.13,0,0,0-2.18,2.08Z"/><path class="cls-6" d="M240.34,274.06a2.12,2.12,0,0,0,2.19,2.07h0a2.13,2.13,0,0,0,2.17-2.07h0a2.14,2.14,0,0,0-2.17-2.09h0a2.13,2.13,0,0,0-2.19,2.09Z"/><path class="cls-6" d="M247.49,284.71a2.13,2.13,0,0,0,2.18,2.08h0a2.13,2.13,0,0,0,2.17-2.08h0a2.13,2.13,0,0,0-2.17-2.09h0a2.13,2.13,0,0,0-2.18,2.09Z"/><path class="cls-6" d="M251.84,296a2.13,2.13,0,0,0,2.17,2.08h0a2.12,2.12,0,0,0,2.17-2.08h0A2.12,2.12,0,0,0,254,294h0a2.13,2.13,0,0,0-2.17,2.08Z"/><path class="cls-6" d="M233.74,294.4a2.14,2.14,0,0,0,2.17,2.09h0a2.14,2.14,0,0,0,2.19-2.09h0a2.14,2.14,0,0,0-2.19-2.08h0a2.14,2.14,0,0,0-2.17,2.08Z"/><path class="cls-6" d="M260.56,288.87a2.13,2.13,0,0,0,2.17,2.09h0a2.13,2.13,0,0,0,2.17-2.09h0a2.12,2.12,0,0,0-2.17-2.08h0a2.12,2.12,0,0,0-2.17,2.08Z"/><path class="cls-6" d="M232,283a2.14,2.14,0,0,0,2.18,2.08h0a2.13,2.13,0,0,0,2.17-2.08h0a2.13,2.13,0,0,0-2.17-2.09h0A2.14,2.14,0,0,0,232,283Z"/><path class="cls-7" d="M200.73,324.14a61.67,61.67,0,0,1-13.19,5,15.5,15.5,0,0,0,27,.16A61.83,61.83,0,0,1,200.73,324.14Z"/><path class="cls-6" d="M46.62,229.38c-.33,3-.56,5.69-.64,8.15l23.3-3.62Z"/><path class="cls-6" d="M50.57,261.89l25.24-11.74H47A69.36,69.36,0,0,0,50.57,261.89Z"/><path class="cls-6" d="M64,170.38c-1.79,3.76-3.43,7.52-4.91,11.24L91.94,178Z"/><path class="cls-6" d="M77.16,146.8l38.19,11.52-29.76-23C82.59,139.05,79.76,142.89,77.16,146.8Z"/><path class="cls-6" d="M51.37,204.81c-1.45,5.44-2.56,10.59-3.4,15.38l44-10.48Z"/><path class="cls-6" d="M354.94,234.39c-.21-3-.56-6.36-1.09-10l-41.05-1.29Z"/><path class="cls-6" d="M341.5,179.86c-1.35-3.34-2.86-6.7-4.46-10.08l-35.56,3.38Z"/><path class="cls-6" d="M301,152.42l23.94-4.37q-3-4.62-6.35-9.1Z"/><path class="cls-6" d="M352.08,214.53c-.6-2.85-1.25-5.77-2-8.83l-17,2.06Z"/><path class="cls-6" d="M354.47,248.47l-35.62-2.95,32.56,14.33A65.49,65.49,0,0,0,354.47,248.47Z"/><path class="cls-8" d="M143.22,218c0,6.84-5.8,12.39-12.94,12.39s-13-5.55-13-12.39a13,13,0,0,1,25.89,0Z"/><path class="cls-9" d="M130.06,213c-4.75,0-7,3.33-7,6.75a7.05,7.05,0,1,0,7-6.75Zm-3.61,9.53a1.26,1.26,0,1,1,1.34-1.26A1.31,1.31,0,0,1,126.45,222.56Zm1.25-3.06a2.48,2.48,0,1,1,2.58-2.48A2.53,2.53,0,0,1,127.7,219.5Z"/><path class="cls-10" d="M111.39,204.76c1.21-6.78,8.27-10.94,16.53-8.13"/><path class="cls-8" d="M257.86,218c0,6.84,5.8,12.39,12.94,12.39A12.41,12.41,0,1,0,257.86,218Z"/><path class="cls-9" d="M264,219.78a7.05,7.05,0,0,0,14.09,0c0-3.42-2.3-6.75-7-6.75A6.91,6.91,0,0,0,264,219.78Zm9.33,1.52a1.32,1.32,0,1,1,1.32,1.26A1.29,1.29,0,0,1,273.31,221.3ZM270.8,217a2.59,2.59,0,1,1,2.59,2.48A2.52,2.52,0,0,1,270.8,217Z"/><path class="cls-10" d="M289.69,204.76c-1.19-6.78-8.26-10.94-16.52-8.13"/><path class="cls-2" d="M158.47,113.27c30.39,19.85,20.77,49,13.19,78.57s-14.95,65.56-14.95,65.56l43.83-2h0l43.83,2s-7.35-36-14.93-65.56-17.23-58.72,13.16-78.57a58.45,58.45,0,0,1,38.69-9.34c-21.07-13.59-47.57-22.41-80.75-22.41S141.07,90.34,120,103.9A58.41,58.41,0,0,1,158.47,113.27Z"/><path class="cls-6" d="M244.66,261c0,14.63-25.21,37.58-46.24,37.58s-42-22.95-42-37.58h0c0-14.66,12.42-15.46,27.7-15.46H217c15.3,0,27.7.8,27.7,15.46Z"/><path class="cls-6" d="M195.53,117.67l-6-35.81c-5.14.31-10,.91-14.84,1.65Z"/><path class="cls-6" d="M227.36,108.78l-.21-25.16c-3.72-.58-7.54-1.05-11.49-1.4Z"/><path class="cls-6" d="M160.86,108.78l-17.2-17c-3.5,1.37-6.89,2.84-10.16,4.45Z"/><path class="cls-6" d="M254.38,90.59l-14.83,18.19L266.36,95.6Q260.6,92.85,254.38,90.59Z"/><path class="cls-6" d="M164.92,103.62l-1.46-17.93c-2.25.52-4.48,1-6.63,1.65Z"/><rect class="cls-11" width="400" height="400"/></g></g></g></svg>