<svg xmlns="http://www.w3.org/2000/svg" viewBox="0 0 400 400"><defs><style>.cls-1{fill:#b79577;}.cls-2{fill:#9f8268;}.cls-3{fill:#f1d6bd;}.cls-12,.cls-4{fill:none;}.cls-4{stroke:#2e2a2b;stroke-linecap:round;stroke-linejoin:round;stroke-width:0.87px;}.cls-5{fill:#443e42;}.cls-6{fill:#2e2a2b;}.cls-7{fill:#524a50;}.cls-8{fill:#282125;}.cls-9{fill:#1f1a1c;}.cls-10{fill:#fff7ef;}.cls-11{fill:#ddb6b3;}</style></defs><g id="Calque_2" data-name="Calque 2"><g id="Calque_1-2" data-name="Calque 1"><path class="cls-1" d="M351.73,146.72c-18.25-37.47-34.81-45-68.82-60.75-73-33.71-185-19.24-228.67,69.83C33.65,197.73,33.66,234.68,69.47,281c67.56,87.26,197.93,107.51,264,10.72C378.9,225.08,374.64,193.75,351.73,146.72Z"/><path class="cls-2" d="M55.88,158c3.78.05,7.43,1.58,11.22,1.23a.32.32,0,0,0,0-.63c-3.74-.39-7.45-1.26-11.22-1.25a.33.33,0,0,0,0,.65Z"/><path class="cls-2" d="M64.84,147.69A49.54,49.54,0,0,1,70,149.41a25,25,0,0,0,5.22,1.53.29.29,0,0,0,.15-.57c-1.7-.61-3.42-1.19-5.14-1.77A50.18,50.18,0,0,0,65,147a.35.35,0,0,0-.19.67Z"/><path class="cls-2" d="M71.74,134.11a28.78,28.78,0,0,1,3.87,1c1.31.44,2.6,1,3.92,1.4a.27.27,0,0,0,.21-.5A20.17,20.17,0,0,0,72,133.34c-.5-.07-.72.68-.21.77Z"/><path class="cls-2" d="M82.32,139.65a21.73,21.73,0,0,1,3.64,1c.6.22,1.19.47,1.77.73l.87.39c.34.14.71.23,1.06.34s.53-.39.24-.58a8.66,8.66,0,0,0-1-.61l-.86-.37q-.9-.37-1.83-.69a21.85,21.85,0,0,0-3.74-.88c-.45-.07-.65.61-.19.69Z"/><path class="cls-2" d="M86.18,122.78c1.16.48,2.29,1,3.41,1.59a21.12,21.12,0,0,0,3.5,1.66.37.37,0,0,0,.36-.62,4.66,4.66,0,0,0-.73-.6c-.28-.17-.58-.32-.87-.47-.61-.33-1.22-.63-1.85-.92-1.18-.53-2.38-1-3.59-1.47-.53-.19-.72.62-.23.83Z"/><path class="cls-2" d="M108.31,126.49c.23.22.45.46.66.7l.31.39.08.1,0,0,.17.22.63.88a4.06,4.06,0,0,0,.42.51,1.64,1.64,0,0,0,.5.36c.22.11.57,0,.54-.31l0-.28a1.22,1.22,0,0,0-.14-.36,2.9,2.9,0,0,0-.29-.51c-.22-.31-.45-.62-.68-.92a13.64,13.64,0,0,0-1.41-1.62.57.57,0,0,0-.8,0,.57.57,0,0,0,0,.79Z"/><path class="cls-2" d="M103.77,111.85l1.92,1.92c.32.32.63.64,1,1l.48.44a3,3,0,0,0,.6.41c.21.13.5-.13.35-.35a4.29,4.29,0,0,0-.4-.55c-.15-.16-.31-.31-.47-.46-.33-.32-.67-.62-1-.93l-2-1.84a.29.29,0,0,0-.4.41Z"/><path class="cls-2" d="M118.83,100.06a12.07,12.07,0,0,1,3.06,3.27c.41.62.81,1.25,1.19,1.88.18.31.35.62.53.91a8,8,0,0,0,.73.9c.31.37.9,0,.78-.46a6.22,6.22,0,0,0-.35-1.11q-.27-.53-.57-1a17.8,17.8,0,0,0-1.36-2,13.13,13.13,0,0,0-3.55-3.18c-.52-.31-.94.45-.46.79Z"/><path class="cls-2" d="M122.14,116.14c.64.83,1.28,1.66,1.9,2.51a14,14,0,0,0,2.14,2.71.32.32,0,0,0,.53-.31,9.38,9.38,0,0,0-1.78-3c-.67-.89-1.35-1.76-2-2.63a.54.54,0,0,0-.75,0,.53.53,0,0,0,0,.75Z"/><path class="cls-2" d="M136.53,91.53c.28.44.56.88.87,1.3s.64.87,1,1.3.62.85.94,1.26a8.79,8.79,0,0,0,1.1,1.18.3.3,0,0,0,.46-.36A8.57,8.57,0,0,0,140,94.9c-.32-.43-.68-.84-1-1.26l-1-1.22c-.35-.41-.72-.8-1.1-1.19-.18-.2-.53.06-.38.3Z"/><path class="cls-2" d="M140.67,108.44a13.83,13.83,0,0,0,1.21,3.87,13.52,13.52,0,0,0,1,1.78,6.48,6.48,0,0,0,1.45,1.55c.3.23.6-.19.46-.46-.58-1.18-1.4-2.22-2-3.39a13.29,13.29,0,0,1-1.33-3.56c-.12-.51-.85-.28-.77.21Z"/><path class="cls-2" d="M157.59,100.5c.15,1.28.28,2.57.53,3.83.13.64.27,1.28.43,1.91a6.45,6.45,0,0,0,.31,1,7.4,7.4,0,0,0,.53.84c.12.19.48.13.46-.12s0-.66-.06-1a6.54,6.54,0,0,0-.26-1c-.17-.61-.33-1.21-.47-1.82-.29-1.25-.62-2.48-.91-3.73-.07-.31-.6-.25-.56.08Z"/><path class="cls-2" d="M169.79,86.08c.39,1.23.69,2.49,1,3.74A32.24,32.24,0,0,0,172,93.51c.06.17.33.1.27-.08-.75-2.47-1.21-5-2.14-7.43-.07-.2-.37-.12-.31.08Z"/><path class="cls-2" d="M172.23,100.58c.19,1.34.36,2.69.6,4a12.17,12.17,0,0,0,1.17,3.89c.19.33.61.09.56-.23-.18-1.34-.6-2.64-.89-4s-.55-2.59-.81-3.89c-.08-.42-.69-.23-.63.17Z"/><path class="cls-2" d="M155.74,86.15a24.51,24.51,0,0,0,.89,3.88,10,10,0,0,0,1.84,3.72c.28.31.74,0,.66-.39a4.81,4.81,0,0,0-.29-1c-.13-.31-.28-.61-.41-.92-.28-.62-.53-1.24-.77-1.87a23.88,23.88,0,0,1-1.09-3.68c-.11-.56-.9-.31-.83.22Z"/><path class="cls-2" d="M185.61,80.76a69.19,69.19,0,0,0,1.33,7.83.28.28,0,0,0,.54-.08,51.82,51.82,0,0,0-1.26-7.92c-.08-.41-.67-.23-.61.17Z"/><path class="cls-2" d="M204.62,81.16c.36,2.19.11,4.42.42,6.6a.29.29,0,0,0,.56,0,18.09,18.09,0,0,0-.45-6.75c-.09-.35-.59-.19-.53.15Z"/><path class="cls-2" d="M224,83.56l0,2.1,0,1.06a7.2,7.2,0,0,0,.11,1,.24.24,0,0,0,.45,0,7.2,7.2,0,0,0,.11-1l0-1.06,0-2.1a.28.28,0,0,0-.55,0Z"/><path class="cls-2" d="M249.92,88c-.5,2.68-1.46,5.22-2.1,7.87,0,.2.27.35.36.15a31.31,31.31,0,0,0,2.22-7.89c0-.3-.42-.44-.48-.13Z"/><path class="cls-2" d="M273.65,89.61c-2.14,3-3,6.86-3.92,10.39-.07.3.36.5.51.21,1.73-3.26,2.28-7,3.89-10.32a.28.28,0,0,0-.48-.28Z"/><path class="cls-2" d="M293.16,109.75c.9-1.48,1.89-2.91,2.91-4.31s2.15-2.86,3.08-4.39a.29.29,0,0,0-.45-.35,41.29,41.29,0,0,0-3.29,4.26c-1,1.45-2,2.92-2.85,4.44a.35.35,0,0,0,.6.35Z"/><path class="cls-2" d="M312.53,118.26a44.46,44.46,0,0,1,3.93-2.21c1.39-.68,2.82-1.28,4.17-2.06a.34.34,0,0,0-.26-.61,22.92,22.92,0,0,0-4.37,1.75,44.8,44.8,0,0,0-4,2.27c-.54.35,0,1.21.51.86Z"/><path class="cls-2" d="M325.35,133.52a49.6,49.6,0,0,0,8.7-1.8.29.29,0,0,0-.08-.56c-3,0-5.81,1.05-8.73,1.55-.45.08-.35.86.11.81Z"/><path class="cls-2" d="M90.6,151.76a19.88,19.88,0,0,1,6.71,1.05,50.28,50.28,0,0,0,6.1,1.83c.51.09.92-.64.38-.9-4-2-8.65-3.47-13.19-3-.61.07-.64,1,0,1Z"/><path class="cls-2" d="M107.58,141c1.35.86,2.65,1.8,4,2.68.67.43,1.34.86,2,1.24a9.84,9.84,0,0,0,2.33,1,.39.39,0,0,0,.3-.71c-1.4-.81-2.82-1.58-4.18-2.46s-2.61-1.78-3.94-2.62c-.58-.37-1.11.55-.54.92Z"/><path class="cls-2" d="M133.64,132.59a16.73,16.73,0,0,0,1.62,2.85c.31.44.64.86,1,1.28a13.85,13.85,0,0,0,1.13,1.17.35.35,0,0,0,.54-.42c-.25-.45-.5-.89-.79-1.31s-.59-.86-.87-1.29a15.92,15.92,0,0,1-1.5-2.75.61.61,0,0,0-.81-.39.62.62,0,0,0-.29.86Z"/><path class="cls-2" d="M154.18,123.8c.64,1.61,1.31,3.22,2,4.83a33.44,33.44,0,0,0,2.23,4.68.41.41,0,0,0,.75-.31,25.3,25.3,0,0,0-1.66-4.83q-1-2.37-1.94-4.75a.72.72,0,0,0-.87-.49.71.71,0,0,0-.49.87Z"/><path class="cls-2" d="M177.26,119.61c.42,1.58.85,3.16,1.24,4.75s.62,3.16,1.07,4.7a.31.31,0,0,0,.61-.08,19,19,0,0,0-.74-4.79c-.39-1.62-.84-3.22-1.27-4.83a.47.47,0,0,0-.91.25Z"/><path class="cls-2" d="M192.74,98.84c.2,1.83.6,3.61,1,5.41s.62,3.61.9,5.42a.35.35,0,0,0,.67,0,14.92,14.92,0,0,0-.45-5.32c-.4-1.83-.86-3.65-1.1-5.51-.08-.63-1.07-.65-1,0Z"/><path class="cls-2" d="M213.58,105.85v3.93c0,1.31.12,2.62.19,3.92a.17.17,0,1,0,.34,0c.08-1.3.19-2.61.19-3.92v-3.93a.36.36,0,0,0-.72,0Z"/><path class="cls-2" d="M241,109.84c-.21,1.48-.33,3-.42,4.45s-.06,3.19-.14,4.78a.22.22,0,0,0,.44.06,42.1,42.1,0,0,0,.72-4.59c.15-1.47.24-3,.46-4.41.11-.7-1-1-1.06-.29Z"/><path class="cls-2" d="M211.27,96.76a20.79,20.79,0,0,0-.59,7.45.24.24,0,0,0,.47,0c.3-2.46,0-5,.29-7.43a.09.09,0,0,0-.17,0Z"/><path class="cls-2" d="M228.19,96.47a44.26,44.26,0,0,1,.53,6.9,47.75,47.75,0,0,0,.29,6.33.47.47,0,0,0,.9,0,28.39,28.39,0,0,0,.08-6.58,58.86,58.86,0,0,0-1-6.87c-.1-.55-.93-.32-.82.22Z"/><path class="cls-2" d="M197.1,124.29c2.09,5,1.55,10.56,3.52,15.53.15.37.84.38.78-.11-.67-5.36-1.23-10.94-3.4-16-.27-.61-1.16-.08-.9.53Z"/><path class="cls-2" d="M250.44,127.16a12.31,12.31,0,0,0-1.69,2.86,13.62,13.62,0,0,0-.88,3.5c0,.16.25.2.28,0a15.21,15.21,0,0,1,2.62-6.06c.18-.24-.14-.57-.33-.34Z"/><path class="cls-2" d="M231,126.44c-.26,1.71-.51,3.43-.81,5.13s-.67,3.45-.92,5.19a.23.23,0,0,0,.45.13,23.08,23.08,0,0,0,1.14-5.13c.23-1.75.41-3.5.6-5.26,0-.26-.42-.32-.46-.06Z"/><path class="cls-2" d="M262.72,100.5c.17,4.32-2,8.18-3,12.28-.09.37.46.64.63.27,1.87-4,3.69-8.06,3.12-12.55-.06-.48-.8-.52-.78,0Z"/><path class="cls-2" d="M280.11,115.21c-1.16,2.45-2.52,4.79-3.86,7.14s-2.66,4.83-3.84,7.34c-.12.25.23.46.37.22,1.41-2.43,2.92-4.78,4.3-7.22a61.61,61.61,0,0,0,3.54-7.26c.11-.29-.37-.5-.51-.22Z"/><path class="cls-2" d="M294.41,129.7c-2.27,3-5.31,5.45-7.28,8.71-.09.14.14.27.23.13a48.35,48.35,0,0,1,3.79-4.53,50.29,50.29,0,0,0,3.61-4.11c.16-.21-.2-.41-.35-.2Z"/><path class="cls-2" d="M311.61,135.78c-1.6,1.45-3.24,2.85-4.91,4.22a49.18,49.18,0,0,0-5,4.44c-.24.26.07.72.4.51a40.65,40.65,0,0,0,5.22-4.22c1.61-1.47,3.21-3,4.75-4.52.28-.28-.15-.7-.44-.43Z"/><path class="cls-2" d="M298.22,122.54a6.13,6.13,0,0,0-.57.57c-.16.18-.31.36-.45.55a5.93,5.93,0,0,0-.63,1.09.21.21,0,0,0,.07.27.21.21,0,0,0,.27-.07,4.49,4.49,0,0,1,.75-.94l.46-.43a7.68,7.68,0,0,0,.59-.55.35.35,0,1,0-.49-.49Z"/><path class="cls-2" d="M269.36,141.66a38.09,38.09,0,0,1-3.1,3.94,32.77,32.77,0,0,0-3,3.84c-.22.36.25.66.54.42a20.63,20.63,0,0,0,3.34-3.7,36.6,36.6,0,0,0,2.66-4.26.24.24,0,0,0-.41-.24Z"/><path class="cls-2" d="M120.74,157.24c3.93,1.49,7.47,4.13,11.63,5a.23.23,0,0,0,.12-.45c-2.05-.79-4.06-1.69-6-2.64a32.46,32.46,0,0,0-5.61-2.27c-.25-.07-.33.29-.1.37Z"/><path class="cls-2" d="M134.85,150.75a30.39,30.39,0,0,1,5.1,4.09,31.12,31.12,0,0,0,4.88,4.06c.21.13.47-.19.27-.36-1.67-1.38-3.14-3-4.71-4.48a20.18,20.18,0,0,0-5.19-3.91.35.35,0,0,0-.35.6Z"/><path class="cls-2" d="M153,146.78a65.77,65.77,0,0,0,5.21,9.94.16.16,0,0,0,.28-.16c-.79-1.7-1.67-3.32-2.61-4.93a42.65,42.65,0,0,1-2.54-4.94c-.09-.2-.42-.12-.34.09Z"/><path class="cls-2" d="M169.72,141.42c.65,2.12,1.3,4.23,2,6.32a43.84,43.84,0,0,0,2.36,6.11.22.22,0,0,0,.4-.16c-.69-2.09-1.54-4.13-2.27-6.21s-1.37-4.11-2-6.18c-.09-.29-.54-.17-.45.12Z"/><path class="cls-2" d="M182.11,141.46c.41,2.06.83,4.13,1.19,6.21s.59,4.12,1,6.15a.3.3,0,0,0,.58-.07,31.6,31.6,0,0,0-.79-6.19c-.4-2.1-.86-4.2-1.32-6.29-.1-.46-.78-.26-.69.19Z"/><path class="cls-2" d="M207.61,143c0,1.51,0,3-.12,4.54,0,.77-.09,1.54-.14,2.31s0,1.48-.06,2.23a.18.18,0,0,0,.35,0,13.61,13.61,0,0,0,.43-2.11c.08-.79.11-1.59.13-2.39,0-1.54,0-3.08,0-4.62a.3.3,0,0,0-.59,0Z"/><path class="cls-2" d="M211.07,124.43l0,3.72a30.76,30.76,0,0,0,.11,3.72.21.21,0,0,0,.41,0,33,33,0,0,0,.11-3.72l0-3.72a.29.29,0,0,0-.57,0Z"/><path class="cls-2" d="M223.06,147.87c-.27,2-.52,3.92-.72,5.88a19.19,19.19,0,0,0-.05,5.86.29.29,0,0,0,.55,0,36.87,36.87,0,0,0,.48-5.75c.12-2,.3-3.93.48-5.89,0-.42-.69-.52-.74-.1Z"/><path class="cls-2" d="M238.69,150.79c-.23,1.1-.45,2.21-.71,3.3s-.6,2.23-.94,3.32a.2.2,0,0,0,.37.16,25.72,25.72,0,0,0,1.81-6.64c.07-.34-.46-.49-.53-.14Z"/><path class="cls-2" d="M247.88,160.28c-.91,1.35-1.66,2.79-2.52,4.16-.06.09.08.17.14.08,1-1.3,1.71-2.76,2.64-4.08.12-.16-.15-.32-.26-.16Z"/><path class="cls-2" d="M180.12,173.68a35.87,35.87,0,0,1,2.7,5.58,39,39,0,0,0,2.47,5.57c.12.21.49.07.41-.17-.66-1.95-1.5-3.86-2.34-5.74a35.07,35.07,0,0,0-2.87-5.46c-.15-.23-.52,0-.37.22Z"/><path class="cls-2" d="M192.49,165.4c.72,4.77,2.51,9.31,3.51,14,.06.3.51.22.52-.07.13-4.92-2.42-9.4-3.4-14.12-.08-.42-.69-.24-.63.17Z"/><path class="cls-2" d="M211.67,175.48c-.88,3.8-1.59,7.89-1,11.79a.29.29,0,0,0,.55,0c.29-1.92.4-3.87.61-5.8a47.59,47.59,0,0,1,1-5.69c.16-.71-.92-1-1.09-.3Z"/><path class="cls-2" d="M192.54,202.22l.68,1.21.33.6c.12.21.26.4.4.6s.39.06.32-.14-.17-.46-.28-.69l-.3-.62c-.2-.42-.41-.85-.62-1.27s-.72,0-.53.31Z"/><path class="cls-2" d="M199.4,193.06c.42,2.33.79,4.7,1.4,7,.06.22.43.18.41-.05-.22-2.39-.79-4.74-1.2-7.1-.06-.4-.68-.24-.61.16Z"/><path class="cls-2" d="M200.76,211.55c0,1.83-.06,3.65,0,5.47a16.9,16.9,0,0,0,.84,5.34c.09.24.5.24.48-.06-.14-1.8-.54-3.57-.67-5.38s-.17-3.58-.19-5.37a.25.25,0,0,0-.49,0Z"/><path class="cls-2" d="M212.88,198.29A48.36,48.36,0,0,0,210.73,212c0,.21.33.26.36,0,.7-4.53.94-9.18,2.19-13.61a.21.21,0,0,0-.4-.11Z"/><path class="cls-2" d="M225.53,183.47c-.72,2.25-1.42,4.5-2.08,6.77s-1.42,4.52-1.9,6.83a.16.16,0,0,0,.3.08c.8-2.21,1.34-4.54,2-6.81s1.23-4.55,1.8-6.85c0-.06-.08-.09-.1,0Z"/><path class="cls-2" d="M238,171.05c-.94,1.87-1.86,3.76-2.66,5.7a33.23,33.23,0,0,0-2.17,6.27c0,.18.23.32.32.13.87-1.92,1.46-4,2.22-5.94s1.59-4.07,2.45-6.07c0-.11-.11-.2-.16-.09Z"/><path class="cls-2" d="M224.41,168.11c-.82,4-1.09,8-1.57,12.06,0,.18.26.21.3.05,1.15-3.88,1.09-8,1.9-11.93.08-.42-.55-.59-.63-.18Z"/><path class="cls-2" d="M204.8,159.94c-.13,2.11-.22,4.21-.3,6.32a34.15,34.15,0,0,0,.12,6.15.28.28,0,0,0,.53,0,33.25,33.25,0,0,0,.11-6.15c-.07-2.11-.16-4.21-.29-6.32a.09.09,0,0,0-.17,0Z"/><path class="cls-2" d="M168.91,163.29a28,28,0,0,0,1.49,5.09c.3.8.62,1.59,1,2.36a17.3,17.3,0,0,0,1.45,2.5c.1.16.39.06.32-.13-.66-1.69-1.42-3.32-2.1-5s-1.2-3.27-1.77-4.91a.19.19,0,0,0-.36.09Z"/><path class="cls-2" d="M153.89,168.73c.73.73,1.47,1.45,2.24,2.14s1.65,1.35,2.47,2,1.6,1.32,2.37,2,1.49,1.5,2.3,2.17a.3.3,0,0,0,.47-.36,8.26,8.26,0,0,0-2-2.38,29.42,29.42,0,0,0-2.45-2c-.83-.62-1.67-1.22-2.52-1.83a32.76,32.76,0,0,1-2.66-2c-.16-.14-.38.08-.23.23Z"/><path class="cls-2" d="M168.53,186.5c2,1.73,3.06,4.2,4.73,6.21.17.2.43-.05.34-.26a15.19,15.19,0,0,0-4.85-6.24c-.17-.12-.38.15-.22.29Z"/><path class="cls-2" d="M180.63,191.77a25,25,0,0,0,1.36,3.78,23.11,23.11,0,0,0,2,3.74c.14.2.53.08.43-.18a37,37,0,0,0-1.8-3.76c-.62-1.2-1.23-2.43-1.78-3.67-.05-.11-.24,0-.2.09Z"/><path class="cls-2" d="M266.78,154.87c-1.81,2.51-4.19,4.54-6,7-.14.2.15.41.32.25,1.15-1.1,2.24-2.29,3.29-3.49a36.71,36.71,0,0,0,2.79-3.56c.16-.24-.22-.46-.39-.23Z"/><path class="cls-2" d="M251.45,141.1c-.89,1.68-1.77,3.36-2.66,5a41.69,41.69,0,0,0-2.41,5.05c-.15.4.43.58.65.27a42.09,42.09,0,0,0,2.74-4.86c.85-1.66,1.71-3.31,2.57-5,.3-.58-.58-1.1-.89-.52Z"/><path class="cls-2" d="M282.48,142.33a98.83,98.83,0,0,0-5.83,8.39c-.18.29.21.54.45.34a17.86,17.86,0,0,0,3.3-3.8c1-1.47,2-2.95,3-4.39.4-.56-.51-1.07-.92-.54Z"/><path class="cls-2" d="M284.07,95.37c-.73,1.83-1.6,3.61-2.28,5.46-.12.33.37.48.55.22a29.89,29.89,0,0,0,2.85-5.21.61.61,0,0,0-.3-.86.6.6,0,0,0-.82.39Z"/><path class="cls-2" d="M64,264.87c3.55,0,7-.87,10.55-1.25a.31.31,0,0,0,0-.61c-3.57-.34-7,1.18-10.55,1.23a.32.32,0,0,0,0,.63Z"/><path class="cls-2" d="M72.64,275.21a46.49,46.49,0,0,0,4.89-1.59c1.62-.59,3.23-1.17,4.84-1.77a.29.29,0,0,0-.15-.55,22.28,22.28,0,0,0-4.9,1.53,46.8,46.8,0,0,1-4.86,1.73.34.34,0,0,0,.18.65Z"/><path class="cls-2" d="M79.15,288.87a18.23,18.23,0,0,0,7.34-2.62c.24-.16.1-.59-.21-.49-1.24.45-2.45,1-3.69,1.41a25.45,25.45,0,0,1-3.65,1c-.49.09-.27.82.21.74Z"/><path class="cls-2" d="M89.09,283.27a19.55,19.55,0,0,0,3.52-.9q.86-.3,1.68-.66c.3-.13.59-.25.88-.4a8.44,8.44,0,0,0,.88-.59c.27-.19.12-.68-.24-.56s-.66.19-1,.33-.54.26-.8.38c-.56.27-1.12.52-1.69.74a20.5,20.5,0,0,1-3.44,1c-.44.08-.24.73.19.67Z"/><path class="cls-2" d="M92.76,300.26c1.15-.44,2.28-.94,3.39-1.47.56-.27,1.12-.56,1.67-.87l.85-.49a4.28,4.28,0,0,0,.72-.62.36.36,0,0,0-.34-.6,4.67,4.67,0,0,0-.84.31l-.81.45-1.71.93c-1.06.57-2.15,1.11-3.25,1.6-.43.18-.12.93.32.76Z"/><path class="cls-2" d="M114.15,296.53a13.91,13.91,0,0,0,1.33-1.63l.63-.91a2.77,2.77,0,0,0,.26-.48,2.33,2.33,0,0,0,.14-.33,2,2,0,0,0,0-.34.35.35,0,0,0-.52-.3,2.41,2.41,0,0,0-.85.83c-.2.31-.41.62-.62.92a10.86,10.86,0,0,1-1.18,1.47.55.55,0,0,0,.78.77Z"/><path class="cls-2" d="M109.49,310.79l1.89-1.84c.31-.3.63-.59.92-.9l.46-.48a3.66,3.66,0,0,0,.4-.57.25.25,0,0,0-.34-.34,4,4,0,0,0-.54.38l-.47.46c-.31.31-.61.64-.91,1l-1.81,1.94a.28.28,0,0,0,.4.39Z"/><path class="cls-2" d="M123.73,323a13.23,13.23,0,0,0,3.37-3.22,16.2,16.2,0,0,0,1.25-1.92c.18-.33.36-.66.52-1a6,6,0,0,0,.36-1.14c.1-.41-.47-.83-.77-.45a10.46,10.46,0,0,0-.65.84c-.19.3-.36.63-.53.94-.36.65-.74,1.28-1.13,1.91a11.83,11.83,0,0,1-2.87,3.27c-.45.33,0,1.08.45.77Z"/><path class="cls-2" d="M127.2,306.72c.63-.84,1.26-1.69,1.86-2.56a9,9,0,0,0,1.65-3,.31.31,0,0,0-.52-.3,14.53,14.53,0,0,0-2,2.75c-.6.87-1.22,1.72-1.84,2.57a.52.52,0,0,0,.18.71.53.53,0,0,0,.71-.19Z"/><path class="cls-2" d="M140.32,331c.35-.39.7-.76,1-1.17l1-1.24c.32-.41.65-.81,1-1.24a9.27,9.27,0,0,0,.8-1.32.29.29,0,0,0-.45-.35,15.23,15.23,0,0,0-1.93,2.44l-.89,1.27c-.3.43-.56.88-.83,1.32-.14.23.19.49.37.29Z"/><path class="cls-2" d="M144.59,314a13.78,13.78,0,0,1,1.25-3.57c.58-1.15,1.35-2.21,1.9-3.38a.33.33,0,0,0-.51-.4A8.66,8.66,0,0,0,145,310a14.12,14.12,0,0,0-1.11,3.81c-.06.48.65.7.75.2Z"/><path class="cls-2" d="M160.32,321.81c.27-1.25.57-2.49.85-3.74.13-.6.28-1.21.45-1.81a8.4,8.4,0,0,0,.24-1c0-.32,0-.65,0-1s-.33-.31-.44-.12-.37.55-.51.84a5.52,5.52,0,0,0-.29,1c-.16.63-.29,1.26-.41,1.9-.24,1.26-.35,2.56-.49,3.83,0,.32.48.38.55.08Z"/><path class="cls-2" d="M171.56,336.23c.87-2.43,1.31-5,2-7.44,0-.17-.21-.24-.27-.07a34,34,0,0,0-1.11,3.69c-.29,1.25-.58,2.51-.94,3.74-.06.2.23.27.3.08Z"/><path class="cls-2" d="M174.15,321.82c.26-1.32.51-2.64.79-4s.66-2.62.83-4c0-.3-.42-.39-.55-.15a12.49,12.49,0,0,0-1.11,3.89c-.23,1.33-.39,2.68-.57,4,0,.39.53.58.61.17Z"/><path class="cls-2" d="M158.83,336.3a25.25,25.25,0,0,1,1-3.69c.23-.62.47-1.24.72-1.85.12-.31.26-.62.39-.93a5.36,5.36,0,0,0,.27-1c.07-.35-.37-.69-.64-.38a4.15,4.15,0,0,0-.65.92c-.15.31-.28.62-.41.93a18.44,18.44,0,0,0-.69,1.93,26.41,26.41,0,0,0-.83,3.93c-.06.46.73.57.82.11Z"/><path class="cls-2" d="M186.74,341.64a53.24,53.24,0,0,0,1.18-7.93.27.27,0,0,0-.52-.07,71.66,71.66,0,0,0-1.25,7.83c-.05.39.52.56.59.17Z"/><path class="cls-2" d="M204.56,341.22a19,19,0,0,0,.42-6.75.28.28,0,0,0-.54,0c-.3,2.19-.06,4.41-.39,6.6-.05.33.43.49.51.15Z"/><path class="cls-2" d="M222.84,338.67l0-2.1,0-1.07a7.07,7.07,0,0,0-.11-1,.23.23,0,0,0-.44,0,8.14,8.14,0,0,0-.1,1l0,1.11,0,2.1a.27.27,0,0,0,.53,0Z"/><path class="cls-2" d="M247.16,334.06a31.89,31.89,0,0,0-2.1-7.87c-.09-.21-.39-.06-.34.14.61,2.64,1.5,5.19,2,7.86,0,.3.5.17.45-.13Z"/><path class="cls-2" d="M269.49,332.34c-1.5-3.34-2-7-3.65-10.32-.14-.28-.56-.08-.49.2.85,3.53,1.65,7.32,3.68,10.39a.27.27,0,0,0,.46-.27Z"/><path class="cls-2" d="M286.83,312.83c.84,1.51,1.75,3,2.69,4.43a42,42,0,0,0,3.09,4.26c.21.25.59-.07.44-.33-.87-1.53-1.9-2.95-2.89-4.4s-1.89-2.83-2.75-4.3c-.21-.38-.79,0-.58.34Z"/><path class="cls-2" d="M305.15,304.82a42.06,42.06,0,0,0,3.76,2.26,21.6,21.6,0,0,0,4.11,1.77.33.33,0,0,0,.25-.6c-1.26-.77-2.6-1.38-3.91-2.06a40.92,40.92,0,0,1-3.72-2.21c-.52-.35-1,.49-.49.84Z"/><path class="cls-2" d="M317.61,289.51c2.75.49,5.41,1.55,8.23,1.54a.28.28,0,0,0,.07-.54,45.83,45.83,0,0,0-8.19-1.78c-.44-.05-.55.7-.11.78Z"/><path class="cls-2" d="M96.71,271.43c4.28.51,8.65-1,12.41-2.95.51-.26.14-1-.37-.87a46.49,46.49,0,0,0-5.73,1.82,17.69,17.69,0,0,1-6.31,1.05c-.63,0-.6.88,0,.95Z"/><path class="cls-2" d="M113.21,282.13c1.25-.85,2.46-1.76,3.71-2.62s2.62-1.64,3.93-2.45a.38.38,0,0,0-.29-.69,9.19,9.19,0,0,0-2.14.91c-.68.4-1.33.83-2,1.28-1.26.88-2.48,1.81-3.75,2.68-.54.38,0,1.27.52.89Z"/><path class="cls-2" d="M138.28,290.11a15.6,15.6,0,0,1,1.41-2.76c.26-.43.53-.86.8-1.27a14.78,14.78,0,0,0,.77-1.33.34.34,0,0,0-.53-.41,11,11,0,0,0-1.08,1.19c-.32.43-.64.85-.94,1.3a18.26,18.26,0,0,0-1.56,3,.59.59,0,0,0,.41.72.61.61,0,0,0,.72-.41Z"/><path class="cls-2" d="M157.86,298.8c.59-1.59,1.21-3.17,1.83-4.75a25.79,25.79,0,0,0,1.55-4.82.4.4,0,0,0-.72-.31,33.44,33.44,0,0,0-2.11,4.69c-.64,1.6-1.27,3.21-1.87,4.83-.3.82,1,1.18,1.32.36Z"/><path class="cls-2" d="M179.16,302.86c.4-1.61.83-3.21,1.2-4.83a19.87,19.87,0,0,0,.7-4.79.3.3,0,0,0-.59-.07c-.43,1.54-.67,3.14-1,4.7s-.77,3.17-1.16,4.75a.46.46,0,0,0,.88.24Z"/><path class="cls-2" d="M193.82,323.39c.23-1.86.67-3.68,1-5.51a15.36,15.36,0,0,0,.42-5.31c0-.33-.6-.32-.65,0-.27,1.8-.51,3.62-.85,5.41s-.73,3.59-.93,5.41c-.06.62.9.61,1,0Z"/><path class="cls-2" d="M213.17,316.37v-3.92c0-1.31-.1-2.61-.17-3.92a.17.17,0,0,0-.34,0c-.07,1.31-.18,2.61-.18,3.92v3.92a.35.35,0,0,0,.69,0Z"/><path class="cls-2" d="M239.33,312.11c-.21-1.47-.29-2.95-.43-4.42a44.55,44.55,0,0,0-.68-4.59c-.05-.24-.44-.18-.43.06.07,1.57,0,3.13.11,4.7s.19,2.93.38,4.39a.53.53,0,1,0,1.05-.14Z"/><path class="cls-2" d="M210.47,325.45c-.22-2.47.05-5-.25-7.43a.23.23,0,0,0-.46,0,22.25,22.25,0,0,0,.56,7.45.08.08,0,0,0,.15,0Z"/><path class="cls-2" d="M227,326a63.65,63.65,0,0,0,.92-6.87,29.44,29.44,0,0,0-.08-6.57.46.46,0,0,0-.88,0,47.52,47.52,0,0,0-.27,6.32,45.58,45.58,0,0,1-.5,6.9c-.09.52.71.75.81.22Z"/><path class="cls-2" d="M197.88,298.34c2-5,2.55-10.52,3.15-15.82.05-.46-.62-.48-.76-.1a37.19,37.19,0,0,0-1.57,7.77,34.25,34.25,0,0,1-1.79,7.88c-.25.61.73.86,1,.27Z"/><path class="cls-2" d="M247.54,294.79a16.2,16.2,0,0,1-2.51-6.12c0-.15-.29-.12-.27,0a14.26,14.26,0,0,0,.82,3.47,12.51,12.51,0,0,0,1.57,2.84c.17.23.56,0,.39-.23Z"/><path class="cls-2" d="M229.3,295.73c-.18-1.76-.35-3.51-.57-5.26a23.07,23.07,0,0,0-1.07-5.13c-.1-.28-.47-.16-.44.13.24,1.73.58,3.45.86,5.19s.52,3.42.77,5.13c0,.25.47.19.45-.06Z"/><path class="cls-2" d="M259.48,321.73c.57-4.47-1.15-8.55-2.92-12.55-.16-.36-.7-.1-.62.26.92,4.11,3,8,2.79,12.29,0,.5.7.47.75,0Z"/><path class="cls-2" d="M275.61,306.8a64.09,64.09,0,0,0-3.32-7.25c-1.3-2.44-2.73-4.8-4.06-7.23-.13-.24-.47,0-.36.21,1.1,2.51,2.31,4.93,3.61,7.34s2.55,4.7,3.64,7.14c.12.27.6.08.49-.21Z"/><path class="cls-2" d="M288.92,292.32a51.21,51.21,0,0,0-3.39-4.1,45.85,45.85,0,0,1-3.57-4.53c-.09-.13-.31,0-.22.13,1.83,3.23,4.71,5.69,6.84,8.7.15.21.49,0,.34-.2Z"/><path class="cls-2" d="M305.2,286c-1.44-1.55-2.94-3-4.46-4.51a39.52,39.52,0,0,0-4.93-4.22c-.31-.22-.61.24-.38.5a48.22,48.22,0,0,0,4.72,4.43c1.58,1.37,3.13,2.77,4.63,4.22a.3.3,0,0,0,.42-.42Z"/><path class="cls-2" d="M292.64,299.21c-.18-.19-.35-.38-.54-.55a6.25,6.25,0,0,1-.45-.44,5,5,0,0,1-.71-.93c-.1-.18-.42-.06-.34.14a5.25,5.25,0,0,0,.6,1.12c.13.19.27.37.41.55a7.54,7.54,0,0,0,.55.58.34.34,0,0,0,.48,0,.34.34,0,0,0,0-.47Z"/><path class="cls-2" d="M265.4,280.34a36.38,36.38,0,0,0-2.5-4.27,21.06,21.06,0,0,0-3.14-3.71c-.28-.24-.73.07-.53.41a31.28,31.28,0,0,0,2.85,3.84,40.48,40.48,0,0,1,2.93,4,.23.23,0,0,0,.39-.23Z"/><path class="cls-2" d="M125.18,265.35a30.15,30.15,0,0,0,5.29-2.28c1.86-.95,3.75-1.85,5.69-2.63A.23.23,0,0,0,136,260c-4,.87-7.24,3.5-11,5-.22.09-.14.43.1.36Z"/><path class="cls-2" d="M138.7,272.07a18.85,18.85,0,0,0,4.89-3.91c1.48-1.49,2.86-3.1,4.44-4.48.18-.16-.06-.48-.27-.34a29.15,29.15,0,0,0-4.61,4.06,28.77,28.77,0,0,1-4.79,4.09.34.34,0,0,0,.34.58Z"/><path class="cls-2" d="M155.75,275.54a42.41,42.41,0,0,1,2.39-4.94c.88-1.62,1.71-3.24,2.45-4.93.07-.19-.18-.35-.28-.16a67.36,67.36,0,0,0-4.89,9.94c-.07.21.25.29.33.09Z"/><path class="cls-2" d="M171.63,280.92c.62-2.06,1.25-4.13,1.92-6.18s1.48-4.12,2.13-6.21c.07-.22-.28-.37-.38-.16a44.19,44.19,0,0,0-2.23,6.11c-.66,2.1-1.27,4.21-1.88,6.32a.23.23,0,0,0,.44.12Z"/><path class="cls-2" d="M183.53,281c.43-2.09.86-4.19,1.24-6.29a34,34,0,0,0,.73-6.18.29.29,0,0,0-.56-.08c-.43,2-.64,4.11-1,6.16s-.72,4.14-1.1,6.21c-.08.44.58.62.67.18Z"/><path class="cls-2" d="M207.43,279.22c0-1.55,0-3.09,0-4.63,0-.79,0-1.57-.11-2.35a14.71,14.71,0,0,0-.42-2.16.17.17,0,0,0-.33.05c0,.76,0,1.51.05,2.27s.09,1.51.12,2.27c.07,1.52.09,3,.11,4.55a.29.29,0,0,0,.58,0Z"/><path class="cls-2" d="M210.67,297.79l0-3.71a33,33,0,0,0-.11-3.72.2.2,0,0,0-.4,0,33,33,0,0,0-.1,3.72l0,3.71a.28.28,0,0,0,.56,0Z"/><path class="cls-2" d="M222.13,274.26c-.18-2-.34-3.93-.45-5.89a39.34,39.34,0,0,0-.46-5.75.28.28,0,0,0-.54,0,19.45,19.45,0,0,0,0,5.75c.19,2,.43,3.93.69,5.89,0,.45.77.48.73,0Z"/><path class="cls-2" d="M236.64,271.3a27.36,27.36,0,0,0-1.71-6.64c-.1-.2-.43-.06-.37.16.65,2.18,1.11,4.39,1.57,6.62.07.34.58.19.51-.14Z"/><path class="cls-2" d="M245,261.8c-.89-1.34-1.58-2.79-2.49-4.1-.06-.08-.19,0-.14.08.82,1.37,1.51,2.82,2.37,4.17.1.16.36,0,.26-.15Z"/><path class="cls-2" d="M181.33,248.76a35.65,35.65,0,0,0,2.68-5.35c.8-1.92,1.61-3.86,2.24-5.84a.22.22,0,0,0-.4-.17,38.78,38.78,0,0,0-2.33,5.57,34.29,34.29,0,0,1-2.55,5.58.21.21,0,0,0,.36.21Z"/><path class="cls-2" d="M193.24,257c.93-4.72,3.33-9.23,3.2-14.12,0-.28-.45-.36-.51-.07-1,4.7-2.63,9.26-3.3,14-.06.4.53.58.61.17Z"/><path class="cls-2" d="M211.74,246.45a49.9,49.9,0,0,1-.91-5.69c-.19-1.93-.29-3.88-.57-5.81,0-.26-.5-.26-.53,0a33.73,33.73,0,0,0,1,11.79c.16.69,1.2.4,1.06-.29Z"/><path class="cls-2" d="M193.19,220.31c.2-.42.39-.85.59-1.27.09-.21.18-.41.28-.62s.17-.46.25-.69-.21-.28-.31-.13-.25.38-.36.58l-.32.62c-.22.4-.43.81-.64,1.21a.3.3,0,0,0,.1.41.31.31,0,0,0,.41-.11Z"/><path class="cls-2" d="M199.72,229.33c.38-2.36.94-4.72,1.12-7.1,0-.23-.33-.27-.39,0-.57,2.29-.93,4.66-1.32,7-.06.39.53.55.59.16Z"/><path class="cls-2" d="M223.84,238.74c-.54-2.3-1.09-4.58-1.69-6.85s-1.1-4.59-1.86-6.81a.15.15,0,0,0-.29.08c.44,2.3,1.17,4.57,1.78,6.83s1.28,4.52,2,6.77a.05.05,0,0,0,.1,0Z"/><path class="cls-2" d="M235.65,251.11c-.8-2-1.53-4-2.27-6s-1.3-4.09-2.14-6c-.08-.19-.34,0-.31.13a34.05,34.05,0,0,0,2,6.27c.75,1.93,1.63,3.82,2.51,5.7,0,.09.2,0,.16-.07Z"/><path class="cls-2" d="M223.28,253.94c-.76-3.95-.69-8.05-1.78-11.93-.05-.16-.31-.13-.3,0,.45,4,.71,8.09,1.47,12.06.08.4.69.23.61-.17Z"/><path class="cls-2" d="M204.38,262.28c.13-2.1.22-4.2.29-6.31a34,34,0,0,0-.11-6.14.26.26,0,0,0-.51,0,34,34,0,0,0-.11,6.14c.07,2.11.16,4.21.29,6.31a.08.08,0,1,0,.15,0Z"/><path class="cls-2" d="M170.78,259c.54-1.65,1.05-3.3,1.67-4.92s1.35-3.31,2-5c.07-.19-.21-.29-.31-.13a24,24,0,0,0-2.28,4.86,29.62,29.62,0,0,0-1.4,5.08.18.18,0,0,0,.35.1Z"/><path class="cls-2" d="M156.51,253.72a26.16,26.16,0,0,1,2.45-2l2.4-1.86c.79-.62,1.56-1.25,2.29-1.95a8.14,8.14,0,0,0,1.93-2.43.29.29,0,0,0-.46-.34c-.77.67-1.43,1.46-2.17,2.17s-1.48,1.36-2.23,2-1.55,1.27-2.28,2-1.46,1.45-2.16,2.19a.16.16,0,0,0,.23.22Z"/><path class="cls-2" d="M170.28,236a14.88,14.88,0,0,0,4.57-6.24c.08-.2-.17-.46-.33-.26-1.57,2-2.53,4.48-4.45,6.22-.15.13.05.4.21.28Z"/><path class="cls-2" d="M181.67,230.52c.52-1.25,1.11-2.49,1.7-3.72a34.76,34.76,0,0,0,1.66-3.68c.09-.25-.28-.38-.42-.17a23.82,23.82,0,0,0-1.86,3.71,26.27,26.27,0,0,0-1.29,3.81c0,.14.16.18.21.05Z"/><path class="cls-2" d="M357.14,229.92c-2.67-.41-5.36-.39-8-.64-.15,0-.19.25,0,.27,2.67.44,5.35.42,8,.68.18,0,.22-.29.05-.31Z"/><path class="cls-2" d="M341.81,229.92c-1.39,0-2.77,0-4.15-.06s-2.81-.19-4.21-.11a.3.3,0,0,0-.08.58,13.54,13.54,0,0,0,4.21.38c1.41,0,2.82-.1,4.23-.15a.32.32,0,0,0,0-.64Z"/><path class="cls-2" d="M360.06,214.68a55.54,55.54,0,0,0-8.36.24c-.31,0-.21.5.07.52a81.91,81.91,0,0,0,8.29-.15.31.31,0,0,0,0-.61Z"/><path class="cls-2" d="M356.57,197.94a24.22,24.22,0,0,0-3.51.1,17.41,17.41,0,0,0-3.43.63.28.28,0,0,0,.08.55c2.3-.07,4.55-.69,6.86-.75a.27.27,0,0,0,0-.53Z"/><path class="cls-2" d="M321.42,228.43c-1.72-.1-3.45-.23-5.18-.3a21.53,21.53,0,0,0-5,.18c-.35.06-.23.55.08.58,1.67.16,3.35.1,5,.17s3.39.19,5.08.28c.59,0,.59-.88,0-.91Z"/><path class="cls-2" d="M340.17,211.09c-1.93.1-3.86,0-5.79,0a17.69,17.69,0,0,0-5.62.5.34.34,0,0,0,.09.66c1.88,0,3.75-.13,5.64-.1s3.79.08,5.68-.05c.62,0,.63-1,0-1Z"/><path class="cls-2" d="M329.53,194.05l-4,.67c-1.34.22-2.66.56-4,.85-.18,0-.14.35.05.33,1.35-.16,2.71-.27,4.05-.5l4.11-.68c.44-.07.25-.74-.18-.67Z"/><path class="cls-2" d="M339.37,195.05c-2.51.65-5.13.8-7.62,1.51-.24.07-.2.47.06.45a24.1,24.1,0,0,0,7.61-1.8.08.08,0,0,0-.05-.16Z"/><path class="cls-2" d="M313.7,211.56c-5.52-1.07-11.27-.66-16.84-.29-.41,0-.56.68-.11.76,5.52.95,11.15-.52,16.68.5.63.12.91-.85.27-1Z"/><path class="cls-2" d="M300.16,239.29c-2.24-.24-4.47-.47-6.7-.76s-4.5-.7-6.75-.94c-.24,0-.28.35-.06.41a49.94,49.94,0,0,0,6.68,1.06c2.27.26,4.55.47,6.83.69.29,0,.29-.43,0-.46Z"/><path class="cls-2" d="M298.14,228.06c-2.23-.05-4.47-.1-6.7-.1a37.85,37.85,0,0,0-6.47.37c-.33,0-.23.55.08.56,2.17.07,4.34-.08,6.52-.12s4.38,0,6.57,0a.35.35,0,0,0,0-.7Z"/><path class="cls-2" d="M292.28,205.82c-3.12.48-6.32.82-9.25,2a.17.17,0,0,0,.09.33c3.11-.58,6.19-1.25,9.31-1.81.36-.06.21-.61-.15-.55Z"/><path class="cls-2" d="M310.85,199.59l-3.84.6a35.26,35.26,0,0,0-3.79.75.19.19,0,0,0,.06.38,35.06,35.06,0,0,0,3.82-.52l3.89-.67c.36-.06.2-.59-.14-.54Z"/><path class="cls-2" d="M284.67,192.8c-2,.48-3.92,1-5.89,1.4a39.92,39.92,0,0,0-5.85,1.42.28.28,0,0,0,.07.55,21.45,21.45,0,0,0,5.93-1c2-.51,4-1.07,5.93-1.65a.36.36,0,0,0-.19-.7Z"/><path class="cls-2" d="M265.4,235.62a38.92,38.92,0,0,0-6.1-1.63c-2.07-.42-4.16-.84-6.26-1.08-.26,0-.28.36-.06.43a44.05,44.05,0,0,0,6.27,1.26,40.15,40.15,0,0,1,6,1.42c.26.09.36-.31.11-.4Z"/><path class="cls-2" d="M271.83,223c-5-.08-10.07-1.58-15.06-.61-.29.06-.21.5.07.51,5,.14,10,.91,15,.73a.32.32,0,0,0,0-.63Z"/><path class="cls-2" d="M258,207.31q-2.77,1-5.64,1.8c-2,.53-4,1-6,1.58a.28.28,0,0,0,.08.54c4-.12,8.08-1.45,11.83-2.87.65-.25.37-1.3-.29-1.05Z"/><path class="cls-2" d="M234.09,229.29l-1.38-.33-.7-.16a5.52,5.52,0,0,0-.71-.11.17.17,0,0,0-.09.32,6.93,6.93,0,0,0,.67.25l.69.2,1.36.41c.37.1.53-.49.16-.58Z"/><path class="cls-2" d="M242.26,221.59c-2.47,0-5-.08-7.43.16a.2.2,0,0,0,0,.39c2.46.16,5,.09,7.43.06a.31.31,0,0,0,0-.61Z"/><path class="cls-2" d="M247.86,197.24c-2.24.89-4.46,1.78-6.66,2.73s-4.61,1.85-6.81,3a.16.16,0,0,0,.12.28c2.26-.8,4.44-1.87,6.63-2.82s4.51-2,6.75-3.07c.05,0,0-.11,0-.09Z"/><path class="cls-2" d="M275.42,211.58q-3.26.36-6.5.8a36.41,36.41,0,0,0-6.32,1.14.27.27,0,0,0,.07.52,37.74,37.74,0,0,0,6.34-.94c2.15-.43,4.3-.87,6.43-1.36a.08.08,0,0,0,0-.16Z"/><path class="cls-2" d="M277.82,243.85c-1.78-.24-3.55-.44-5.32-.75s-3.66-.71-5.51-1a.17.17,0,0,0-.09.32,26.27,26.27,0,0,0,5.53,1.35,33,33,0,0,0,5.34.43c.19,0,.25-.33.05-.35Z"/><path class="cls-2" d="M274.75,258.2c-1.73-1.16-3.25-2.66-4.86-4s-3.22-2.73-5.16-3.16a.29.29,0,0,0-.22.53c.82.61,1.74,1.09,2.6,1.66s1.66,1.17,2.47,1.78,1.56,1.22,2.37,1.78,1.75,1.14,2.64,1.67c.18.11.33-.16.16-.27Z"/><path class="cls-2" d="M254.18,248.22A15.89,15.89,0,0,0,247,245c-.22,0-.39.28-.16.38,2.35,1.15,5,1.6,7.16,3.13.17.12.37-.14.22-.28Z"/><path class="cls-2" d="M246.61,238.43c-1.35-.27-2.69-.61-4-1a39.58,39.58,0,0,0-4.15-1,.23.23,0,0,0-.12.44,23.91,23.91,0,0,0,4.18,1.14,27.79,27.79,0,0,0,4.08.55.11.11,0,0,0,0-.22Z"/><path class="cls-2" d="M263,267.13a38.42,38.42,0,0,0-2.64-3.55c-1-1.2-2-2.39-3.1-3.5-.15-.15-.44.05-.31.24,1.7,2.49,4,4.54,5.67,7,.16.23.53,0,.38-.22Z"/><path class="cls-2" d="M249,280.61c-.8-1.65-1.6-3.31-2.41-5a40.52,40.52,0,0,0-2.59-4.87c-.2-.31-.76-.13-.63.26a40.06,40.06,0,0,0,2.28,5l2.49,5c.29.58,1.14.07.86-.5Z"/><path class="cls-2" d="M278.23,279.37c-1-1.44-1.88-2.92-2.81-4.39a17.63,17.63,0,0,0-3.12-3.81.28.28,0,0,0-.43.34,94.08,94.08,0,0,0,5.47,8.38c.38.53,1.27,0,.89-.52Z"/><path class="cls-2" d="M280,326.53a33.41,33.41,0,0,0-2.76-5.35c-.18-.26-.64-.1-.53.22.63,1.85,1.45,3.63,2.14,5.45a.6.6,0,1,0,1.15-.32Z"/><path class="cls-2" d="M287.32,256.36c1.29.92,2.54,1.89,3.82,2.81a14,14,0,0,0,4.19,2.26c.29.08.41-.3.19-.46-1.28-.92-2.65-1.74-4-2.63s-2.55-1.77-3.85-2.63c-.41-.27-.77.37-.38.65Z"/><path class="cls-2" d="M300.42,251.25a9.48,9.48,0,0,1,3.69.93c1.16.53,2.24,1.22,3.41,1.71.25.11.45-.27.26-.44a11.87,11.87,0,0,0-3.47-2.08,10.19,10.19,0,0,0-3.89-.85.37.37,0,0,0,0,.73Z"/><path class="cls-2" d="M315.36,243.43l3.33,1c.58.18,1.15.36,1.73.52a13.27,13.27,0,0,0,1.88.36.32.32,0,0,0,.16-.59,18.45,18.45,0,0,0-1.8-.67l-1.72-.51-3.33-1c-.56-.18-.8.7-.25.88Z"/><path class="cls-2" d="M339.76,243.74c1.29.37,2.55.82,3.8,1.29a20.87,20.87,0,0,0,4.13,1.31c.29,0,.49-.32.21-.49a21.17,21.17,0,0,0-4-1.7c-1.29-.46-2.58-.88-3.89-1.23a.43.43,0,0,0-.23.82Z"/><path class="cls-2" d="M330.66,257.49c1.3.72,2.64,1.33,4,1.95.66.3,1.31.59,2,.87s1.41.51,2.11.77c.29.11.4-.3.19-.45a11.69,11.69,0,0,0-1.78-1.18c-.66-.35-1.34-.65-2-.95-1.33-.58-2.67-1.16-4-1.85-.55-.29-1,.54-.49.84Z"/><path class="cls-2" d="M322.14,272.11c2.24,1.1,4.28,2.57,6.53,3.65.17.09.38-.14.21-.28a31,31,0,0,0-6.41-3.93c-.38-.18-.71.38-.33.56Z"/><path class="cls-2" d="M305.87,266.63l2.58,2,1.22.91.68.51a3.18,3.18,0,0,0,.76.38c.31.13.44-.3.29-.5a3.19,3.19,0,0,0-.57-.59c-.21-.17-.43-.33-.65-.49l-1.26-.94c-.85-.63-1.7-1.26-2.54-1.9-.37-.29-.88.36-.51.65Z"/><path class="cls-2" d="M315.13,258.79a13.94,13.94,0,0,0,1.76,1.41,7.1,7.1,0,0,0,.93.52c.19.09.38.19.57.26l.6.16a.31.31,0,0,0,.23-.56l-.41-.32a5.14,5.14,0,0,0-.49-.32l-.9-.58a10.59,10.59,0,0,1-1.58-1.27.52.52,0,0,0-.71,0,.51.51,0,0,0,0,.7Z"/><path class="cls-2" d="M248.6,186a37.53,37.53,0,0,1,5.81-3.48c1-.5,2-1,3-1.47a33.16,33.16,0,0,0,2.95-1.7c.24-.15,0-.46-.21-.36a53.25,53.25,0,0,0-12,6.45c-.32.24.11.8.43.56Z"/><path class="cls-2" d="M258.92,189.11a34.17,34.17,0,0,0,4.21-2,34.64,34.64,0,0,0,4.1-2.25c.3-.2.13-.73-.26-.61a25.72,25.72,0,0,0-4.22,1.9c-.67.34-1.34.71-2,1.06s-1.43.72-2.11,1.16c-.34.22-.13.83.29.69Z"/><path class="cls-2" d="M272.58,168.62a48.25,48.25,0,0,1,5.66-4.51c.11-.08,0-.26-.11-.19a31.72,31.72,0,0,0-5.82,4.43c-.17.17.1.44.27.27Z"/><path class="cls-2" d="M272.56,177.25l3.25-1.5a30.72,30.72,0,0,0,3.19-1.61c.19-.11.07-.44-.15-.36a29.72,29.72,0,0,0-3.25,1.48l-3.26,1.62c-.26.12,0,.49.22.37Z"/><path class="cls-2" d="M289.8,160.14l4.86-2.55c1.62-.85,3.19-1.76,4.77-2.7a.16.16,0,0,0-.16-.28c-1.67.78-3.3,1.58-4.92,2.45l-4.83,2.61c-.3.17,0,.63.28.47Z"/><path class="cls-2" d="M316.2,151.87c3.78-.06,7.19-2.24,10.54-3.74.32-.14.08-.59-.22-.52-3.63.76-6.7,3.13-10.37,3.85-.23,0-.18.41.05.41Z"/><path class="cls-2" d="M327.32,169.76a30.55,30.55,0,0,0,5.91-1.14,59,59,0,0,0,6-1.92.29.29,0,0,0-.15-.55,33.51,33.51,0,0,0-5.84,1.68,30.83,30.83,0,0,1-5.92,1.45c-.3,0-.31.5,0,.48Z"/><path class="cls-2" d="M337.1,148.61c1.23-.32,2.45-.66,3.66-1a26,26,0,0,0,3.55-1.2c.24-.11.13-.55-.14-.52a19.86,19.86,0,0,0-3.64.86c-1.21.37-2.42.74-3.64,1.09a.4.4,0,0,0,.21.77Z"/><path class="cls-2" d="M349.2,177a18.84,18.84,0,0,0,3.9-.06,10.48,10.48,0,0,0,3.77-1,.29.29,0,0,0-.14-.54,32,32,0,0,0-3.77.54c-1.24.21-2.51.35-3.76.48a.31.31,0,0,0,0,.61Z"/><path class="cls-2" d="M338.89,188.71c1.14-.16,2.29-.21,3.44-.27a10.29,10.29,0,0,0,3.36-.45.3.3,0,0,0-.08-.58,21.25,21.25,0,0,0-3.47.26c-1.14.11-2.29.21-3.43.41-.42.07-.23.69.18.63Z"/><path class="cls-2" d="M346.48,159.48a9.74,9.74,0,0,1,2.36-.71,10.85,10.85,0,0,1,1.26-.16,4.52,4.52,0,0,0,1.32-.18.26.26,0,0,0,0-.5,2.88,2.88,0,0,0-1.37-.06,13.56,13.56,0,0,0-1.4.22,11.36,11.36,0,0,0-2.48.85c-.36.18-.05.7.31.54Z"/><path class="cls-2" d="M300.29,182.26l2.23-.92,1.2-.48c.24-.1.46-.21.69-.33a2.1,2.1,0,0,0,.57-.45.37.37,0,0,0-.26-.63,1.86,1.86,0,0,0-.74.06,5.67,5.67,0,0,0-.66.22c-.43.18-.85.38-1.27.59-.75.38-1.48.77-2.21,1.17a.45.45,0,1,0,.45.77Z"/><path class="cls-2" d="M305.2,167.54l4.4-1.51a21.69,21.69,0,0,0,4.28-1.7.36.36,0,0,0-.28-.66,21.63,21.63,0,0,0-4.35,1.4L305,166.68c-.53.2-.31,1,.23.86Z"/><path class="cls-2" d="M315.22,185l4.49-1.3a36.32,36.32,0,0,0,4.58-1.44c.39-.17.18-.77-.21-.77a14.91,14.91,0,0,0-4.77,1.09c-1.49.51-2.92,1.14-4.37,1.76-.37.16-.11.76.28.66Z"/><path class="cls-2" d="M282.47,186.53a3.38,3.38,0,0,1,1.19-.8c.62-.33,1.29-.58,1.94-.85a17.44,17.44,0,0,0,4.27-2c.27-.21.25-.82-.2-.76a9.63,9.63,0,0,0-2.38.58c-.82.33-1.64.67-2.45,1a11.35,11.35,0,0,0-2,1.14,3,3,0,0,0-1.11,1.33c-.17.44.47.62.71.3Z"/><path class="cls-2" d="M89.7,258.36a29.73,29.73,0,0,1,6.63-2.59c2.3-.65,4.68-1,6.94-1.83.31-.11.29-.66-.09-.62A37.11,37.11,0,0,0,96,254.89a26.6,26.6,0,0,0-6.57,2.95.3.3,0,0,0,.3.52Z"/><path class="cls-2" d="M114.83,255.64a22.16,22.16,0,0,1,4-1.65c.68-.2,1.36-.39,2-.55s1.38-.4,2.08-.61a.24.24,0,0,0-.06-.47,8.11,8.11,0,0,0-2.2.15,17.06,17.06,0,0,0-2.18.66,28.44,28.44,0,0,0-4,1.89c-.38.21,0,.78.34.58Z"/><path class="cls-2" d="M157.83,230.87c1.06-.66,2.16-1.28,3.28-1.84.56-.27,1.14-.51,1.69-.8s1.18-.61,1.78-.9a.16.16,0,0,0-.12-.28c-.63.21-1.26.42-1.88.66a17.65,17.65,0,0,0-1.71.79,36.4,36.4,0,0,0-3.33,1.88c-.31.2,0,.69.29.49Z"/><path class="cls-2" d="M178.55,215.72c1.87-.7,3.87-1,5.72-1.76a.17.17,0,0,0-.09-.32c-1,.24-2,.52-3,.81a26.06,26.06,0,0,0-2.72.87c-.25.09-.15.49.11.4Z"/><path class="cls-2" d="M58.71,171.31c1.83.21,3.67.55,5.49.85a46.84,46.84,0,0,0,5.26.73.29.29,0,0,0,.08-.57,22.49,22.49,0,0,0-5.35-.88c-1.83-.14-3.66-.16-5.48-.3-.12,0-.11.16,0,.17Z"/><path class="cls-2" d="M77.92,164.61c1.57.85,3.06,1.83,4.67,2.6a9.52,9.52,0,0,0,5.26,1.28c.4-.05.3-.6,0-.7-1.65-.59-3.36-1-5-1.65s-3.08-1.37-4.64-2c-.34-.15-.64.33-.3.51Z"/><path class="cls-2" d="M111.54,172.67a24.34,24.34,0,0,0,4,1.87,12.53,12.53,0,0,0,4.44.87.41.41,0,0,0,.21-.76,19.34,19.34,0,0,0-4.14-1.37,20.4,20.4,0,0,1-4.08-1.44.48.48,0,0,0-.48.83Z"/><path class="cls-2" d="M100.19,179.9a30.23,30.23,0,0,1,3.48,1,7.63,7.63,0,0,0,3.55.59.36.36,0,0,0,.08-.65,7.32,7.32,0,0,0-1.69-.63c-.58-.16-1.16-.35-1.74-.49a28.84,28.84,0,0,0-3.56-.74c-.5-.06-.61.77-.12.88Z"/><path class="cls-2" d="M96.43,164.65a9.28,9.28,0,0,0,6,2.46.34.34,0,0,0,.09-.67c-1-.36-1.94-.62-2.9-1a11.94,11.94,0,0,1-2.7-1.46c-.38-.27-.87.35-.51.65Z"/><path class="cls-2" d="M138.2,181.05c1.57.89,3.09,1.88,4.67,2.76a16.64,16.64,0,0,0,5,2.14.31.31,0,0,0,.24-.56,46.35,46.35,0,0,0-4.9-2.41c-1.61-.78-3.22-1.55-4.82-2.35-.27-.13-.51.26-.24.42Z"/><path class="cls-2" d="M157.49,195.59q2,1.14,4,2.19c.66.33,1.32.68,2,1l1,.44a3.16,3.16,0,0,0,1,.23.38.38,0,0,0,.26-.65,3.6,3.6,0,0,0-.87-.56l-1-.47c-.66-.3-1.33-.57-2-.86q-2.07-.91-4.08-1.94c-.43-.22-.81.4-.39.65Z"/><path class="cls-2" d="M124.83,194.62a17.55,17.55,0,0,0,4.8,1.87,22.63,22.63,0,0,0,5.1.83c.31,0,.49-.49.17-.63a24.92,24.92,0,0,0-4.84-1.16,15.94,15.94,0,0,1-4.78-1.69.45.45,0,0,0-.45.78Z"/><path class="cls-2" d="M58,187.75a0,0,0,0,0,0-.09c-.05,0-.05.09,0,.09Z"/><path class="cls-2" d="M50.74,184.18c1.41.19,2.8.47,4.2.76a19.23,19.23,0,0,0,4.13.59.23.23,0,0,0,.06-.45c-1.37-.35-2.78-.53-4.18-.78s-2.75-.47-4.14-.62c-.28,0-.35.46-.07.5Z"/><path class="cls-2" d="M53.33,197.34c1.29,0,2.59-.06,3.88-.17a18.92,18.92,0,0,0,2-.22c.69-.13,1.38-.31,2.07-.46a.21.21,0,0,0-.06-.41c-.7,0-1.42,0-2.12,0s-1.3.15-2,.23c-1.27.14-2.54.24-3.81.26a.36.36,0,0,0,0,.72Z"/><path class="cls-2" d="M45.8,214.1a23.43,23.43,0,0,0,3.73-.53c.61-.16,1.22-.33,1.81-.53a6.8,6.8,0,0,0,1.84-.94.41.41,0,0,0-.31-.75,8,8,0,0,0-1.86.5c-.59.22-1.17.45-1.77.65a26.07,26.07,0,0,1-3.52,1c-.33.07-.26.62.08.59Z"/><path class="cls-2" d="M52.71,234.91c1.43-.67,2.87-1.34,4.35-1.94a41,41,0,0,1,4.19-1.52.14.14,0,0,0-.07-.27,21.56,21.56,0,0,0-4.31,1.35c-1.48.64-2.92,1.35-4.36,2.06-.21.11,0,.42.2.32Z"/><path class="cls-2" d="M57.64,245.26a23,23,0,0,0,5.1-1.19c1.71-.56,3.42-1.16,5.07-1.89.28-.13.07-.53-.2-.47a34.21,34.21,0,0,0-5,1.71,22.9,22.9,0,0,1-5,1.41c-.28,0-.29.46,0,.43Z"/><path class="cls-2" d="M74.55,249.28a43.35,43.35,0,0,1,4.64-1.64,18.71,18.71,0,0,0,4.36-1.73c.18-.12.06-.44-.16-.37-1.53.53-3,1.15-4.56,1.7a40.4,40.4,0,0,0-4.41,1.81c-.15.08,0,.29.13.23Z"/><path class="cls-2" d="M78.59,236.05c1.27-.66,2.56-1.27,3.88-1.81a39.68,39.68,0,0,0,4-1.68.25.25,0,0,0-.19-.46,19.85,19.85,0,0,0-4.14,1.48c-1.31.58-2.59,1.21-3.85,1.91-.36.2,0,.76.33.56Z"/><path class="cls-2" d="M69.18,219.86c1-.32,2-.66,3-1s2-.74,3-1.13c.16-.07.1-.31-.07-.27-1.05.26-2.07.56-3.09.92l-3,1c-.29.09-.17.55.13.45Z"/><path class="cls-2" d="M65.88,209.24A30.89,30.89,0,0,0,70,209a13,13,0,0,0,3.92-.86.23.23,0,0,0-.11-.43c-1.31.14-2.59.49-3.89.68a31.42,31.42,0,0,1-4,.33.25.25,0,0,0,0,.49Z"/><path class="cls-2" d="M70.18,193.54c1.74,0,3.47.12,5.2.23a27.49,27.49,0,0,0,5.21,0,.27.27,0,0,0,0-.53c-1.73-.23-3.47-.23-5.21-.3s-3.46-.13-5.2-.11a.34.34,0,0,0,0,.67Z"/><path class="cls-2" d="M76.29,178.4a16.07,16.07,0,0,1,4.62,1.47,30.12,30.12,0,0,0,4.27,1.89.24.24,0,0,0,.19-.44A21.84,21.84,0,0,0,81,179.05a16.43,16.43,0,0,0-4.71-1.26c-.4,0-.39.56,0,.61Z"/><path class="cls-2" d="M95.9,193.6c1.82.34,3.61.8,5.42,1.22.28.07.47-.33.2-.47a18.74,18.74,0,0,0-5.41-1.54c-.51-.1-.73.69-.21.79Z"/><path class="cls-2" d="M90.92,205.45a17.47,17.47,0,0,0,2.13.34c.74.09,1.48.12,2.21.24a.13.13,0,0,0,.07-.25,11.81,11.81,0,0,0-2.11-.44,19.62,19.62,0,0,1-2.17-.35c-.3-.06-.42.39-.13.46Z"/><path class="cls-2" d="M92.06,219.24a28.17,28.17,0,0,0,4.17-.71c1.38-.34,2.79-.63,4.15-1a.28.28,0,0,0-.07-.55,14.41,14.41,0,0,0-4.16.71,42.85,42.85,0,0,1-4.17,1c-.32.05-.24.6.08.57Z"/><path class="cls-2" d="M99.67,232.29c1.62-.44,3.21-1,4.8-1.53a28.68,28.68,0,0,0,4.61-1.91c.27-.15.17-.65-.16-.61a15.87,15.87,0,0,0-4.69,1.5c-1.56.69-3.12,1.38-4.72,2a.31.31,0,0,0,.16.59Z"/><path class="cls-2" d="M109,239.87c1.88-.52,3.72-1.17,5.56-1.83a42.5,42.5,0,0,0,5.63-2.33c.33-.18.09-.64-.24-.58a26,26,0,0,0-5.66,2,51.63,51.63,0,0,1-5.46,2.1.33.33,0,0,0,.17.63Z"/><path class="cls-2" d="M138.05,222c1.4-.33,2.76-.76,4.12-1.19s2.74-.84,4.1-1.31a.23.23,0,0,0-.12-.44,25,25,0,0,0-4.16,1.09c-1.36.43-2.72.86-4.11,1.2-.43.1-.25.75.17.65Z"/><path class="cls-2" d="M116.09,210c1.52-.16,3-.31,4.57-.45a24.94,24.94,0,0,0,4.47-.63.27.27,0,0,0-.07-.52,27.06,27.06,0,0,0-4.49.4l-4.48.59c-.38.05-.4.65,0,.61Z"/><path class="cls-2" d="M107.48,199.43a33.79,33.79,0,0,0,7.59-.51.23.23,0,0,0-.06-.46c-2.51.1-5,.2-7.53.19a.39.39,0,0,0,0,.78Z"/><path class="cls-2" d="M119.32,218.74a37.18,37.18,0,0,0,4.47-.23,14.43,14.43,0,0,0,4.31-1c.32-.15.15-.66-.18-.65-1.45.06-2.86.42-4.3.61a38.65,38.65,0,0,1-4.3.29.48.48,0,0,0,0,1Z"/><path class="cls-2" d="M148.72,209.75a15.88,15.88,0,0,1,2.49.2l1.21.22a10,10,0,0,0,1.33.12c.32,0,.34-.43.07-.52a15.8,15.8,0,0,0-5.1-.83.41.41,0,0,0,0,.81Z"/><path class="cls-2" d="M161.64,217.69h2.74a11.09,11.09,0,0,0,2.7-.17.29.29,0,0,0,0-.56,11.09,11.09,0,0,0-2.7-.18h-2.74a.46.46,0,0,0,0,.91Z"/><path class="cls-2" d="M219.12,216.92a44.34,44.34,0,0,0,7.56-2.16c2.51-.86,5-1.88,7.43-2.87.17-.07.11-.34-.08-.29-2.54.73-5.09,1.42-7.62,2.19s-5.08,1.41-7.5,2.38a.39.39,0,0,0,.21.75Z"/><path class="cls-2" d="M230,197.65a7.27,7.27,0,0,0,.89-.54,2.71,2.71,0,0,0,.45-.3l.39-.32a.23.23,0,0,0,.1-.29.24.24,0,0,0-.28-.14l-.52.16a3.33,3.33,0,0,0-.48.28,10.27,10.27,0,0,1-.92.51.37.37,0,0,0,.37.64Z"/><path class="cls-1" d="M353.47,61c-37-32.52-77.86-5.14-77.32,29.15,0,.73,24.13,19.67,30.55,25.24,7.09,6.14,25.47,14.09,26.43,14.2C359,132.66,390.49,93.52,353.47,61Z"/><path class="cls-3" d="M339.43,76.38c-17.51-17.89-45.86-16.55-53.72,20.25-.11.49,16.77,13.67,21.23,17.53,4.92,4.27,17.68,9.89,18.37,9.87C341.47,123.58,357.59,94.92,339.43,76.38Z"/><path class="cls-1" d="M62.83,139.82c1-.13,19.17-8.45,26.11-14.74,6.3-5.69,30-25.13,30-25.85-.23-34.29-41.67-60.85-78-27.57S37,143.41,62.83,139.82Z"/><path class="cls-3" d="M71.71,133.94c.68,0,13.32-5.87,18.15-10.25,4.36-4,20.94-17.46,20.82-18-8.67-36.63-37-37.38-54.15-19.16C38.78,105.49,55.53,133.81,71.71,133.94Z"/><path class="cls-3" d="M266.64,285.36c-5.72-16.27-11-25.94-19.2-41.51-8-15.18-27-45.7-51.42-33.3-12.1,6.14-24.65,22.7-29.59,32.27-6.76,13.13-41.4,60.65-23.31,83.9,23.25,29.95,84.18,22.07,111.74,6.41C273.31,322.66,271.3,298.57,266.64,285.36Z"/><path class="cls-4" d="M204.71,289.42v38.49c0,5.38-8.69,11.09-17.39-1"/><path class="cls-4" d="M204.51,289.42v38.49c0,5.38,8.7,11.09,17.4-1"/><path class="cls-5" d="M238.61,294.15c-4.93,7.05-13.33,13.46-23.14,17-5.05,1.83-16.65,1.84-21.68,0-9.8-3.54-18.21-9.93-23.15-17-3-4.22-9.67-24.46,34-24.46S241.54,290,238.61,294.15Z"/><path class="cls-6" d="M192.82,310.81a8.68,8.68,0,0,0,3.29-6.83c0-5.92-5.3-10.72-17.48-10.72a32.73,32.73,0,0,0-8,.89C175.37,301,183.42,307.21,192.82,310.81Z"/><path class="cls-6" d="M238.61,294.15a32.82,32.82,0,0,0-8-.89c-12.17,0-17.47,4.8-17.47,10.72a8.71,8.71,0,0,0,3.28,6.84C225.79,307.22,233.84,301,238.61,294.15Z"/><path class="cls-7" d="M223.79,275.84s-9.27-7.29-32.13-1.76c-20,4.86-20.08,15.64-18.42,15.74s13.9-2.8,21.95,4.15S180,280.71,223.79,275.84Z"/><path class="cls-8" d="M158.42,235.72c0,10-8.51,18.18-19,18.18s-19-8.14-19-18.18,8.5-18.18,19-18.18S158.42,225.68,158.42,235.72Z"/><path class="cls-9" d="M151,239.19a9.69,9.69,0,1,1-9.69-9.27A9.47,9.47,0,0,1,151,239.19Z"/><path class="cls-10" d="M126.46,238.76c0-8.17,6.93-14.8,15.47-14.8a15.4,15.4,0,0,1,14.75,10.38,16.29,16.29,0,0,0-16.24-13.14c-9.11,0-16.5,7.07-16.5,15.79a15.83,15.83,0,0,0,10.42,14.67A14.73,14.73,0,0,1,126.46,238.76Z"/><path class="cls-10" d="M141.18,231.56a4.05,4.05,0,1,1-4.05-3.88A4,4,0,0,1,141.18,231.56Z"/><path class="cls-10" d="M135.79,238a2.71,2.71,0,1,1-2.71-2.59A2.66,2.66,0,0,1,135.79,238Z"/><path class="cls-8" d="M251.35,235.72c0,10,8.5,18.18,19,18.18s19-8.14,19-18.18-8.51-18.18-19-18.18S251.35,225.68,251.35,235.72Z"/><path class="cls-9" d="M258.74,239.19a9.68,9.68,0,1,0,9.67-9.27A9.47,9.47,0,0,0,258.74,239.19Z"/><path class="cls-10" d="M283.3,238.76c0-8.17-6.93-14.8-15.46-14.8a15.41,15.41,0,0,0-14.75,10.38,16.27,16.27,0,0,1,16.24-13.14c9.11,0,16.49,7.07,16.49,15.79a15.82,15.82,0,0,1-10.41,14.67A14.72,14.72,0,0,0,283.3,238.76Z"/><path class="cls-10" d="M268.57,231.56a4.06,4.06,0,1,0,4.06-3.88A4,4,0,0,0,268.57,231.56Z"/><path class="cls-10" d="M274,238a2.7,2.7,0,1,0,2.7-2.59A2.66,2.66,0,0,0,274,238Z"/><path class="cls-11" d="M175.27,311.76c0,6.92-5.87,12.53-13.09,12.53s-13.1-5.61-13.1-12.53a13.11,13.11,0,0,1,26.19,0Z"/><path class="cls-11" d="M257.67,311.76a12.81,12.81,0,0,1-13.08,12.53c-7.24,0-13.1-5.61-13.1-12.53a13.1,13.1,0,0,1,26.18,0Z"/><rect class="cls-12" width="400" height="400"/></g></g></svg>