<svg xmlns="http://www.w3.org/2000/svg" viewBox="0 0 400 400"><defs><style>.cls-1{isolation:isolate;}.cls-2{fill:#ee9730;}.cls-3{fill:#f4dfca;}.cls-4{fill:#f4dbbc;}.cls-5{fill:#fffcfd;}.cls-6{fill:#232827;}.cls-11,.cls-7,.cls-8{fill:none;}.cls-7{stroke:#656e6d;stroke-width:0.8px;mix-blend-mode:multiply;}.cls-7,.cls-8{stroke-linecap:round;stroke-linejoin:round;}.cls-8{stroke:#250b0f;stroke-width:1.07px;}.cls-9{fill:#250b0f;}.cls-10{fill:#ba6b24;}</style></defs><g class="cls-1"><g id="Calque_2" data-name="Calque 2"><g id="Calque_1-2" data-name="Calque 1"><path class="cls-2" d="M327.47,141.94c46.9-8.1,16.44-113,9.39-90.64S275.56,62,277.74,97.21C297.91,106.59,313.54,127.45,327.47,141.94Z"/><path class="cls-3" d="M323.15,128.26c29.94,2.35,25.38-81.69,15.93-58.83-7.05,17.08-45.49,3.68-53.79,31.5A169.22,169.22,0,0,1,323.15,128.26Z"/><path class="cls-2" d="M67.82,141.94c-46.9-8.1-16.44-113-9.38-90.64S119.74,62,117.56,97.21C97.39,106.59,81.77,127.45,67.82,141.94Z"/><path class="cls-3" d="M72.14,128.26c-29.94,2.35-25.4-81.69-15.93-58.83,7.07,17.08,45.49,3.68,53.79,31.5A169.22,169.22,0,0,0,72.14,128.26Z"/><path class="cls-2" d="M361.05,233.72c0,40.79-55.42,119.74-163.29,119.74S34.48,273.65,34.48,233.72,68.13,66,197.76,66,361.05,192.94,361.05,233.72Z"/><path class="cls-4" d="M291.4,265.85c-21.26-36.23-72-9.18-96.17-9.18s-69.73-31.83-93.46,5.56c-14.76,23.26.11,76.67,93.46,76.67S312.68,302.09,291.4,265.85Z"/><path class="cls-5" d="M137.23,210.09c0,7.23-6.13,13.08-13.68,13.08s-13.65-5.85-13.65-13.08S116,197,123.55,197,137.23,202.87,137.23,210.09Z"/><path class="cls-6" d="M123.34,204.85c-5,0-7.44,3.51-7.44,7.12a7.45,7.45,0,1,0,7.44-7.12Zm-3.8,10.06a1.34,1.34,0,1,1,0-2.67,1.34,1.34,0,1,1,0,2.67Zm1.3-3.25a2.61,2.61,0,1,1,2.71-2.6A2.67,2.67,0,0,1,120.84,211.66Z"/><path class="cls-7" d="M103.63,196.11c1.27-7.16,8.73-11.56,17.44-8.59"/><path class="cls-5" d="M258.3,210.09c0,7.23,6.12,13.08,13.67,13.08s13.66-5.85,13.66-13.08S279.52,197,272,197,258.3,202.87,258.3,210.09Z"/><path class="cls-6" d="M264.76,212a7.45,7.45,0,0,0,14.88,0c0-3.61-2.43-7.12-7.45-7.12A7.27,7.27,0,0,0,264.76,212Zm9.85,1.61a1.39,1.39,0,1,1,1.38,1.33A1.37,1.37,0,0,1,274.61,213.58ZM272,209.06a2.72,2.72,0,1,1,2.71,2.6A2.67,2.67,0,0,1,272,209.06Z"/><path class="cls-7" d="M291.91,196.11c-1.28-7.16-8.73-11.56-17.44-8.59"/><path class="cls-8" d="M169.46,310.09s5.76,12.32,28.19,3.21v-35"/><path class="cls-8" d="M226,310.09S220.11,323,197.8,313.3v-35"/><path class="cls-9" d="M127.11,274.05a2.37,2.37,0,0,1-2.42,2.3h0a2.37,2.37,0,0,1-2.41-2.3h0a2.37,2.37,0,0,1,2.41-2.32h0a2.38,2.38,0,0,1,2.42,2.32Z"/><path class="cls-9" d="M144,272.74a2.36,2.36,0,0,1-2.42,2.31h0a2.37,2.37,0,0,1-2.41-2.31h0a2.37,2.37,0,0,1,2.41-2.31h0a2.37,2.37,0,0,1,2.42,2.31Z"/><path class="cls-9" d="M136,284.55a2.36,2.36,0,0,1-2.4,2.31h0a2.37,2.37,0,0,1-2.41-2.31h0a2.37,2.37,0,0,1,2.41-2.32h0a2.36,2.36,0,0,1,2.4,2.32Z"/><path class="cls-9" d="M131.23,297.1a2.36,2.36,0,0,1-2.41,2.31h0a2.37,2.37,0,0,1-2.42-2.31h0a2.38,2.38,0,0,1,2.42-2.32h0a2.37,2.37,0,0,1,2.41,2.32Z"/><path class="cls-9" d="M151.29,295.3a2.36,2.36,0,0,1-2.43,2.3h0a2.36,2.36,0,0,1-2.4-2.3h0a2.36,2.36,0,0,1,2.4-2.31h0a2.36,2.36,0,0,1,2.43,2.31Z"/><path class="cls-9" d="M121.56,289.17a2.35,2.35,0,0,1-2.39,2.31h0a2.37,2.37,0,0,1-2.43-2.31h0a2.36,2.36,0,0,1,2.43-2.31h0a2.35,2.35,0,0,1,2.39,2.31Z"/><path class="cls-9" d="M153.21,282.63a2.37,2.37,0,0,1-2.42,2.31h0a2.36,2.36,0,0,1-2.4-2.31h0a2.35,2.35,0,0,1,2.4-2.3h0a2.36,2.36,0,0,1,2.42,2.3Z"/><path class="cls-9" d="M251.29,276a2.35,2.35,0,0,1-2.42,2.3h0a2.37,2.37,0,0,1-2.43-2.3h0a2.38,2.38,0,0,1,2.43-2.31h0a2.36,2.36,0,0,1,2.42,2.31Z"/><path class="cls-9" d="M268.14,274.67a2.37,2.37,0,0,1-2.41,2.32h0a2.35,2.35,0,0,1-2.4-2.32h0a2.35,2.35,0,0,1,2.4-2.3h0a2.36,2.36,0,0,1,2.41,2.3Z"/><path class="cls-9" d="M260.23,286.48a2.37,2.37,0,0,1-2.42,2.32h0a2.37,2.37,0,0,1-2.41-2.32h0a2.36,2.36,0,0,1,2.41-2.3h0a2.36,2.36,0,0,1,2.42,2.3Z"/><path class="cls-9" d="M255.4,299a2.35,2.35,0,0,1-2.4,2.31h0a2.37,2.37,0,0,1-2.42-2.31h0a2.36,2.36,0,0,1,2.42-2.31h0a2.34,2.34,0,0,1,2.4,2.31Z"/><path class="cls-9" d="M275.47,297.24a2.36,2.36,0,0,1-2.41,2.3h0a2.37,2.37,0,0,1-2.42-2.3h0a2.37,2.37,0,0,1,2.42-2.32h0a2.37,2.37,0,0,1,2.41,2.32Z"/><path class="cls-9" d="M245.75,291.1a2.37,2.37,0,0,1-2.42,2.31h0a2.37,2.37,0,0,1-2.41-2.31h0a2.37,2.37,0,0,1,2.41-2.3h0a2.37,2.37,0,0,1,2.42,2.3Z"/><path class="cls-9" d="M277.39,284.56a2.36,2.36,0,0,1-2.42,2.31h0a2.36,2.36,0,0,1-2.41-2.31h0a2.37,2.37,0,0,1,2.41-2.31h0a2.37,2.37,0,0,1,2.42,2.31Z"/><path class="cls-10" d="M153.34,99.5c32.1,21,21.93,51.74,13.9,83s-15.75,69.24-15.75,69.24l46.27-2.16h0l46.3,2.16s-7.75-38-15.78-69.24-18.19-62,13.9-83A61.81,61.81,0,0,1,283,89.62C260.77,75.29,232.82,66,197.76,66s-62.8,9.31-85,23.64A61.62,61.62,0,0,1,153.34,99.5Z"/><path class="cls-9" d="M244.36,255.46c0,15.46-26.63,39.69-48.81,39.69s-44.38-24.23-44.38-39.69h0c0-15.47,13.1-16.32,29.26-16.32h34.68c16.15,0,29.25.85,29.25,16.32Z"/><rect class="cls-11" width="400" height="400"/></g></g></g></svg>