<svg xmlns="http://www.w3.org/2000/svg" viewBox="0 0 400 400"><defs><style>.cls-1{isolation:isolate;}.cls-2{fill:#5a66ac;}.cls-3{fill:#fffcfd;}.cls-4{fill:#232827;}.cls-11,.cls-5{fill:none;}.cls-5{stroke:#656e6d;stroke-linecap:round;stroke-linejoin:round;stroke-width:0.89px;mix-blend-mode:multiply;}.cls-6{fill:#ded3cc;}.cls-7{fill:#f3e8df;}.cls-8{fill:#250b0f;}.cls-9{fill:#e3825e;}.cls-10{fill:#6d80be;}</style></defs><g class="cls-1"><g id="Calque_2" data-name="Calque 2"><g id="Calque_1-2" data-name="Calque 1"><path class="cls-2" d="M224.62,71.71c-6.93-6.41-21.27-10.22-35.77-8.81-28.36,2.77-30.1-10.52-30.1-10.52-2.89,6.65,2.66,13.29,2.66,13.29-17.6-1.11-16.21-21.61-16.21-21.61-11.22,13.86,0,25.77,0,25.77-11.31-5-14.22,0-14.22,0s2.32-3.89,13.32,8.69C41.82,87.52,36.6,202.77,36.6,236.08c0,39.59,55,109,161.84,109s161.83-68.61,161.83-109C360.27,198.57,356.64,77.69,224.62,71.71Z"/><path class="cls-3" d="M145.2,261.67a12,12,0,1,1-12-11.5A11.77,11.77,0,0,1,145.2,261.67Z"/><path class="cls-4" d="M133,257.07c-4.41,0-6.55,3.09-6.55,6.26a6.55,6.55,0,1,0,6.55-6.26Zm-3.34,8.84a1.17,1.17,0,1,1,1.22-1.17A1.2,1.2,0,0,1,129.65,265.91Zm1.15-2.85a2.29,2.29,0,1,1,2.39-2.29A2.34,2.34,0,0,1,130.8,263.06Z"/><path class="cls-5" d="M115.66,249.38c1.12-6.29,7.67-10.15,15.33-7.55"/><path class="cls-3" d="M251.65,261.67a12,12,0,1,0,12-11.5A11.78,11.78,0,0,0,251.65,261.67Z"/><path class="cls-4" d="M257.33,263.33a6.55,6.55,0,0,0,13.09,0c0-3.17-2.14-6.26-6.54-6.26A6.41,6.41,0,0,0,257.33,263.33Zm8.67,1.41a1.22,1.22,0,1,1,1.22,1.17A1.2,1.2,0,0,1,266,264.74Zm-2.32-4a2.39,2.39,0,1,1,2.39,2.29A2.34,2.34,0,0,1,263.68,260.77Z"/><path class="cls-5" d="M281.21,249.38c-1.12-6.29-7.67-10.15-15.34-7.55"/><path class="cls-6" d="M183.47,343.15s13.71,12.79,31.7,0l7,1.39s-5,11.4-23.87,11.4S176.75,345,176.75,345Z"/><path class="cls-7" d="M265.38,313.79c-5.09-35.8-52.42-32.73-67-32.73s-62-3.09-67.09,32.72,50.08,41,67,19.25C213,352.59,270.46,349.53,265.38,313.79Z"/><path class="cls-8" d="M223.53,319.91a1.31,1.31,0,0,1-1.34,1.27h0a1.29,1.29,0,0,1-1.31-1.27h0a1.28,1.28,0,0,1,1.31-1.27h0a1.3,1.3,0,0,1,1.34,1.27Z"/><path class="cls-8" d="M232.83,319.19a1.3,1.3,0,0,1-1.33,1.28h0a1.3,1.3,0,0,1-1.33-1.28h0a1.31,1.31,0,0,1,1.33-1.28h0a1.31,1.31,0,0,1,1.33,1.28Z"/><path class="cls-8" d="M228.46,325.7a1.3,1.3,0,0,1-1.32,1.28h0a1.3,1.3,0,0,1-1.33-1.28h0a1.3,1.3,0,0,1,1.33-1.27h0a1.3,1.3,0,0,1,1.32,1.27Z"/><path class="cls-8" d="M225.81,332.63a1.3,1.3,0,0,1-1.33,1.27h0a1.31,1.31,0,0,1-1.34-1.27h0a1.32,1.32,0,0,1,1.34-1.28h0a1.32,1.32,0,0,1,1.33,1.28Z"/><path class="cls-8" d="M236.88,331.64a1.31,1.31,0,0,1-1.34,1.27h0a1.3,1.3,0,0,1-1.32-1.27h0a1.3,1.3,0,0,1,1.32-1.28h0a1.32,1.32,0,0,1,1.34,1.28Z"/><path class="cls-8" d="M220.48,328.25a1.32,1.32,0,0,1-1.34,1.28h0a1.31,1.31,0,0,1-1.33-1.28h0a1.3,1.3,0,0,1,1.33-1.27h0a1.31,1.31,0,0,1,1.34,1.27Z"/><path class="cls-8" d="M237.94,324.65a1.3,1.3,0,0,1-1.32,1.27h0a1.31,1.31,0,0,1-1.35-1.27h0a1.3,1.3,0,0,1,1.35-1.27h0a1.3,1.3,0,0,1,1.32,1.27Z"/><path class="cls-8" d="M164.46,319.91a1.3,1.3,0,0,1-1.33,1.27h0a1.3,1.3,0,0,1-1.32-1.27h0a1.29,1.29,0,0,1,1.32-1.27h0a1.29,1.29,0,0,1,1.33,1.27Z"/><path class="cls-8" d="M173.76,319.19a1.3,1.3,0,0,1-1.32,1.28h0a1.31,1.31,0,0,1-1.33-1.28h0a1.31,1.31,0,0,1,1.33-1.28h0a1.3,1.3,0,0,1,1.32,1.28Z"/><path class="cls-8" d="M169.41,325.7a1.31,1.31,0,0,1-1.33,1.28h0a1.32,1.32,0,0,1-1.35-1.28h0a1.32,1.32,0,0,1,1.35-1.27h0a1.31,1.31,0,0,1,1.33,1.27Z"/><path class="cls-8" d="M166.73,332.63a1.29,1.29,0,0,1-1.32,1.27h0a1.3,1.3,0,0,1-1.33-1.27h0a1.32,1.32,0,0,1,1.33-1.28h0a1.3,1.3,0,0,1,1.32,1.28Z"/><path class="cls-8" d="M177.81,331.64a1.3,1.3,0,0,1-1.33,1.27h0a1.31,1.31,0,0,1-1.34-1.27h0a1.32,1.32,0,0,1,1.34-1.28h0a1.31,1.31,0,0,1,1.33,1.28Z"/><path class="cls-8" d="M161.41,328.25a1.31,1.31,0,0,1-1.33,1.28h0a1.31,1.31,0,0,1-1.33-1.28h0a1.3,1.3,0,0,1,1.33-1.27h0a1.3,1.3,0,0,1,1.33,1.27Z"/><path class="cls-8" d="M178.87,324.65a1.3,1.3,0,0,1-1.33,1.27h0a1.3,1.3,0,0,1-1.33-1.27h0a1.3,1.3,0,0,1,1.33-1.27h0a1.29,1.29,0,0,1,1.33,1.27Z"/><path class="cls-9" d="M198.33,333c-3.58,4.61-8.88,8-14.94,10.14l.08,0s13.71,12.79,31.7,0l.1,0C208.09,341.23,201.92,337.82,198.33,333Z"/><path class="cls-10" d="M164.47,289.3l33.95-1.58h0l34,1.58s-28.53-76.44-34-76.44S164.47,289.3,164.47,289.3Z"/><path class="cls-8" d="M232.61,292.07c0,11.34-19.53,29.11-35.81,29.11s-32.56-17.77-32.56-29.11h0c0-11.35,9.62-12,21.47-12h25.44c11.85,0,21.46.63,21.46,12Z"/><rect class="cls-11" width="400" height="400"/></g></g></g></svg>