<svg xmlns="http://www.w3.org/2000/svg" viewBox="0 0 400 400"><defs><style>.cls-1{fill:#e3e2e5;}.cls-2{fill:#454246;}.cls-13,.cls-3{fill:none;}.cls-3{stroke:#2e2a2b;stroke-linecap:round;stroke-linejoin:round;stroke-width:0.91px;}.cls-4{fill:#ddb6b3;}.cls-5{fill:#362e35;}.cls-6{fill:#282125;}.cls-7{fill:#40373f;}.cls-8{fill:#cac9c9;}.cls-9{fill:#363437;}.cls-10{fill:#1f1a1c;}.cls-11{fill:#fff7ef;}.cls-12{fill:#d3d3d5;}</style></defs><g id="Calque_2" data-name="Calque 2"><g id="Calque_1-2" data-name="Calque 1"><path class="cls-1" d="M391.55,243.42,372.17,225l13-1.57c-26.14-45.89-59.7-82-71.67-94.24-11.34-13-24.67-22.15-44.17-30C207.59,74.4,128,83.28,73.29,147.59l-.17-.4S27.35,194.85,13.4,225.27l13,1.57L7.05,245.3l28.4-3.52-9,14.51s66.11,87.62,169.32,87.62,176.41-89.49,176.41-89.49l-9-14.53Z"/><path class="cls-2" d="M204.55,292.35s-.89,5.8-.77,5.78c3.53-5.76,22.63-21.3,62.33-35.36,59.29-21,84.11-41.44,108.35-57.12a504.17,504.17,0,0,0-59.39-74.92C257.45,226.35,216.92,213.3,204.55,292.35Z"/><path class="cls-2" d="M198.34,292.35c-3-68.51-52.54-66.1-109.9-160.59a188.9,188.9,0,0,0-15.15,15.83l-.17-.4S44.84,176.64,26,204c24.16,16.12,49.78,49.17,109.74,58.75,49.53,7.93,59.88,29.6,63.42,35.36C199.22,298.15,198.34,292.35,198.34,292.35Z"/><path class="cls-3" d="M200.84,287.38v40.48c0,5.66-9.15,11.66-18.31-1"/><path class="cls-3" d="M200.61,287.38v40.48c0,5.66,9.16,11.66,18.31-1"/><path class="cls-4" d="M165.26,306.92c0,8.72-7.39,15.81-16.51,15.81s-16.53-7.09-16.53-15.81,7.39-15.83,16.53-15.83S165.26,298.18,165.26,306.92Z"/><path class="cls-4" d="M269.23,306.92c0,8.72-7.39,15.81-16.51,15.81s-16.52-7.09-16.52-15.81,7.4-15.83,16.52-15.83S269.23,298.18,269.23,306.92Z"/><path class="cls-5" d="M227.69,299c-3.91,5.6-10.57,10.69-18.34,13.5-4,1.45-13.21,1.46-17.19,0-7.79-2.8-14.46-7.88-18.38-13.46-2.35-3.35-7.66-19.41,26.94-19.41S230,295.66,227.69,299Z"/><path class="cls-6" d="M191.38,312.23a7,7,0,0,0,2.61-5.44c0-4.69-4.21-8.49-13.87-8.49a26.63,26.63,0,0,0-6.37.69A38.74,38.74,0,0,0,191.38,312.23Z"/><path class="cls-6" d="M227.69,299a26.69,26.69,0,0,0-6.37-.69c-9.65,0-13.86,3.8-13.86,8.49a7,7,0,0,0,2.6,5.44C217.53,309.36,223.92,304.41,227.69,299Z"/><path class="cls-7" d="M215.94,284.47s-7.35-5.78-25.47-1.39c-15.91,3.85-15.94,12.4-14.62,12.48s11-2.22,17.41,3.29S181.23,288.34,215.94,284.47Z"/><path class="cls-8" d="M21.3,220.63a11.14,11.14,0,0,1,1.81-.27c.29,0,.59,0,.88,0s.62,0,.93-.08a.17.17,0,0,0,0-.33,10.25,10.25,0,0,0-3.74.27.23.23,0,0,0,.12.44Z"/><path class="cls-8" d="M31.31,230c1,0,2,0,3,.08a23.88,23.88,0,0,1,3,.48.16.16,0,1,0,.08-.31c-1.88-.8-4.07-.72-6.08-.72a.24.24,0,0,0,0,.47Z"/><path class="cls-8" d="M21.39,239.63c2.65-1.14,5.59-.48,8.32-1.23a.32.32,0,0,0-.09-.62,28,28,0,0,0-4.58.13,8.86,8.86,0,0,0-3.95,1.21.3.3,0,0,0,.3.51Z"/><path class="cls-8" d="M32.23,218.78a25.79,25.79,0,0,1,3,1.12c.48.21.93.47,1.41.69.26.12.53.22.79.33a4.33,4.33,0,0,0,.79.19c.35,0,.7-.37.38-.65a5.8,5.8,0,0,0-1.39-1,17.27,17.27,0,0,0-1.59-.68,8.94,8.94,0,0,0-3.35-.67.32.32,0,0,0-.08.62Z"/><path class="cls-8" d="M47.65,228.66A29.63,29.63,0,0,1,52,231.71l2,1.64a18.12,18.12,0,0,0,2.11,1.37c.18.11.4-.16.23-.3-.64-.56-1.24-1.17-1.91-1.7l-2.07-1.58a32.42,32.42,0,0,0-4.42-2.91.25.25,0,0,0-.25.43Z"/><path class="cls-8" d="M44.33,238.68c1,.17,2,.41,3,.68s2,.65,3,.85c.2,0,.36-.26.15-.35a20,20,0,0,0-3-1,27.08,27.08,0,0,0-3.09-.7c-.35-.06-.5.47-.14.53Z"/><path class="cls-8" d="M42.39,253.76c.73,0,1.46,0,2.19,0s1.45.12,2.17.21c.15,0,.16-.21,0-.25a7.88,7.88,0,0,0-2.16-.36c-.74-.05-1.49-.06-2.23-.06a.23.23,0,0,0,0,.45Z"/><path class="cls-8" d="M65.51,247.64c2.35,1,4.68,2,7.08,2.83.16.06.28-.21.12-.29-2.32-1.09-4.7-2-7.08-3-.27-.11-.38.33-.12.44Z"/><path class="cls-8" d="M65.58,257.62a25.84,25.84,0,0,0,10.07,3.3c.37,0,.41-.51.08-.62a59.41,59.41,0,0,1-9.51-3.78c-.72-.39-1.36.72-.64,1.1Z"/><path class="cls-8" d="M86.79,253.68c4.15,2.21,8.15,4.71,12.63,6.22.29.1.47-.35.21-.49-4.07-2.29-8.12-4.58-12.29-6.67-.62-.31-1.18.61-.55.94Z"/><path class="cls-8" d="M56.53,241c1,.91,2,1.81,3.08,2.62a12.23,12.23,0,0,0,1.61,1.08c.31.16.67.28,1,.41a3.71,3.71,0,0,0,1,.2.45.45,0,0,0,.32-.76A13,13,0,0,0,62,243.44c-.55-.34-1.12-.63-1.67-1-1.09-.69-2.16-1.43-3.23-2.17-.4-.28-.88.36-.52.69Z"/><path class="cls-8" d="M111.82,265.79c1.42.36,2.83.72,4.26,1a35.66,35.66,0,0,0,4.24.82c.35,0,.37-.48.07-.59a30.94,30.94,0,0,0-4.15-1.11c-1.41-.3-2.82-.58-4.22-.9-.47-.1-.67.61-.2.73Z"/><path class="cls-8" d="M102.85,272.26c3.47.05,6.66,1.55,10.08,1.8.32,0,.36-.45.07-.54-1.68-.53-3.38-1-5.09-1.38a22.74,22.74,0,0,0-5.06-.68.4.4,0,0,0,0,.8Z"/><path class="cls-8" d="M130.39,276.42c2,0,3.92.12,5.88.23a31.22,31.22,0,0,0,5.88,0c.29,0,.44-.52.08-.57a57,57,0,0,0-5.85-.33c-2-.06-4-.11-6-.09a.38.38,0,0,0,0,.76Z"/><path class="cls-8" d="M149.09,272c1.53.49,3,1,4.53,1.65a41.29,41.29,0,0,0,4.58,1.71.26.26,0,0,0,.2-.48,29.07,29.07,0,0,0-4.46-2.06c-1.52-.61-3.06-1.18-4.62-1.67-.54-.17-.77.68-.23.85Z"/><path class="cls-8" d="M85.05,263.51a9.06,9.06,0,0,1,4.29.85,28.67,28.67,0,0,0,4,1.63c.26.07.45-.32.19-.45-2.61-1.29-5.49-3-8.52-2.7-.43,0-.43.71,0,.67Z"/><path class="cls-8" d="M45.29,268a48.16,48.16,0,0,1,11.94-3c.23,0,.17-.42-.06-.42a31.28,31.28,0,0,0-12.29,2.76c-.48.21-.07.9.41.7Z"/><path class="cls-8" d="M58.52,275.65a44,44,0,0,0,7.42-.75c.17,0,.13-.31,0-.3-2.46.18-4.91.54-7.38.54a.26.26,0,0,0,0,.51Z"/><path class="cls-8" d="M376.36,216.19a17.65,17.65,0,0,0-9.93-.27.32.32,0,0,0,.08.62c3.2,0,6.51-.42,9.65.37a.37.37,0,0,0,.2-.72Z"/><path class="cls-8" d="M364.57,226.23a7.8,7.8,0,0,0-3.49-.34,11.88,11.88,0,0,0-1.68.33,12.74,12.74,0,0,0-1.78.67c-.28.13-.15.64.16.6,2.23-.27,4.37-1.14,6.64-.69a.3.3,0,0,0,.15-.57Z"/><path class="cls-8" d="M365.17,234c3.86.09,7.31,2,11.09,2.43.38,0,.37-.48.08-.6a43.79,43.79,0,0,0-5.59-1.9,21.53,21.53,0,0,0-5.58-.83.45.45,0,0,0,0,.9Z"/><path class="cls-8" d="M349,246.52c1.53-.16,3-.4,4.55-.64s3.08-.45,4.6-.77a.27.27,0,0,0-.07-.53,29.14,29.14,0,0,0-4.47.51c-1.53.24-3.06.49-4.61.65-.49,0-.49.83,0,.78Z"/><path class="cls-8" d="M351.6,256.77c2.15-1.32,4.73-1.37,7-2.36.25-.1.13-.54-.14-.51a25.38,25.38,0,0,0-3.77.74,12.55,12.55,0,0,0-3.49,1.44c-.42.28,0,1,.4.69Z"/><path class="cls-8" d="M341,270.2a27.43,27.43,0,0,0,9.79-1.67.21.21,0,0,0-.11-.41,41.87,41.87,0,0,1-9.68,1.55.27.27,0,0,0,0,.53Z"/><path class="cls-8" d="M329.91,264.21c1.54-.14,3-.43,4.57-.72s3-.61,4.56-1a.29.29,0,0,0-.08-.57,16.62,16.62,0,0,0-4.48.6c-1.51.35-3,.71-4.57.92-.49.06-.51.82,0,.77Z"/><path class="cls-8" d="M330,253.83c2.3-.93,4.71-1.49,7-2.38a.18.18,0,0,0-.09-.34,32.54,32.54,0,0,0-7.09,2.13c-.36.14-.21.74.16.59Z"/><path class="cls-8" d="M336.86,237.05a23.73,23.73,0,0,1,5.62-3.47c2-.93,4.14-1.53,6.1-2.52.45-.23.11-.82-.32-.76a21.85,21.85,0,0,0-6.41,2.38,20.71,20.71,0,0,0-5.47,3.89c-.31.32.15.76.48.48Z"/><path class="cls-8" d="M342.12,240.57c3-1.28,6.22-2.2,9.32-3.3.17-.06.1-.33-.07-.28a75,75,0,0,0-9.51,3.13c-.31.13,0,.58.26.45Z"/><path class="cls-8" d="M317.87,247.32c2-.66,3.8-1.58,5.7-2.39.1,0,0-.21-.07-.18-1.94.67-3.8,1.52-5.75,2.13-.29.08-.16.54.12.44Z"/><path class="cls-8" d="M316.57,255.51c2.81-1,5.69-1.85,8.41-3.06.26-.12.07-.49-.18-.44a61.59,61.59,0,0,0-8.44,2.75c-.46.17-.26.92.21.75Z"/><path class="cls-8" d="M294.17,260.32a36.74,36.74,0,0,1,4.85-2.83c1.72-.83,3.53-1.45,5.21-2.35a.37.37,0,0,0-.29-.68,28.53,28.53,0,0,0-5.46,2.11,17.16,17.16,0,0,0-4.81,3.1c-.32.32.1.91.5.65Z"/><path class="cls-8" d="M308.41,267.52a44.76,44.76,0,0,0,6.45-.17.32.32,0,0,0,0-.62,44.76,44.76,0,0,0-6.45-.17.48.48,0,0,0,0,1Z"/><path class="cls-8" d="M322.76,277.65a8.2,8.2,0,0,0,3.45.21.21.21,0,0,0,0-.42c-.59-.06-1.19-.09-1.78-.16a7.53,7.53,0,0,1-1.49-.28c-.41-.13-.59.52-.18.65Z"/><path class="cls-8" d="M326.54,284.93c1.35-.14,2.69-.36,4-.62a20.26,20.26,0,0,0,3.87-1.23c.31-.13.15-.65-.17-.62a23.2,23.2,0,0,0-4,.65,34.67,34.67,0,0,1-3.91.78c-.59.08-.46,1.11.14,1Z"/><path class="cls-8" d="M298,277.1c2.34,0,4.71.24,7.06.06a.15.15,0,0,0,0-.3c-2.35-.19-4.72,0-7.06.06a.09.09,0,1,0,0,.18Z"/><path class="cls-8" d="M280.06,275.11c1.54-.72,3.1-1.38,4.69-1.94.79-.28,1.59-.51,2.39-.74a10.68,10.68,0,0,0,2.35-.8.48.48,0,0,0-.24-.89,6.64,6.64,0,0,0-2.64.41c-.79.25-1.57.56-2.34.88a36.59,36.59,0,0,0-4.62,2.37c-.46.27-.06.93.41.71Z"/><path class="cls-8" d="M262.67,275.56a31.79,31.79,0,0,1,5.46-3.06,29.76,29.76,0,0,0,5.57-2.83c.38-.28.18-1-.34-.82a49.26,49.26,0,0,0-5.89,2.53,27.56,27.56,0,0,0-5.48,3.31c-.48.38.17,1.24.68.87Z"/><path class="cls-8" d="M84.05,274.62a12.09,12.09,0,0,1,3.52.65c1.18.37,2.31.88,3.49,1.23a.14.14,0,0,0,.11-.26,19.25,19.25,0,0,0-3.54-1.42,12.48,12.48,0,0,0-3.58-.59.2.2,0,0,0,0,.39Z"/><path class="cls-8" d="M80.35,284.26c3,0,5.85,1,8.7,1.86.14,0,.18-.17.06-.22a23.31,23.31,0,0,0-8.76-2,.18.18,0,0,0,0,.35Z"/><path class="cls-8" d="M102.18,282.45a68.13,68.13,0,0,1,9.35.86.2.2,0,0,0,.11-.39,35.83,35.83,0,0,0-9.46-1.08.31.31,0,0,0,0,.61Z"/><path class="cls-8" d="M242.63,282.21c.22-.23.46-.43.69-.64a8.71,8.71,0,0,1,.83-.64c.29-.2.59-.4.9-.59l.51-.28c.16-.09.31-.21.47-.32s.07-.41-.15-.35a3.38,3.38,0,0,0-.56.2l-.5.29a9.28,9.28,0,0,0-1,.67,5,5,0,0,0-1.34,1.56c0,.08.06.17.12.1Z"/><path class="cls-8" d="M137.42,107.86c.26.39.5.78.78,1.15l.85,1.15c.28.37.55.76.84,1.12a9.74,9.74,0,0,0,1,1,.26.26,0,0,0,.41-.32,14.35,14.35,0,0,0-1.67-2.28l-.88-1.08c-.3-.37-.64-.71-1-1.05a.22.22,0,0,0-.34.26Z"/><path class="cls-8" d="M143.07,122.49a12.13,12.13,0,0,0,1.08,3.43,12.77,12.77,0,0,0,.88,1.58,5.85,5.85,0,0,0,1.29,1.38c.26.2.53-.17.41-.4-.53-1-1.25-2-1.81-3a12,12,0,0,1-1.17-3.16c-.09-.45-.74-.25-.68.18Z"/><path class="cls-8" d="M156.11,115.81c.13,1.13.23,2.28.46,3.4.12.58.25,1.15.4,1.72a4,4,0,0,0,.27.83,8.38,8.38,0,0,0,.46.75c.11.16.43.11.41-.11s0-.57-.06-.85a6.78,6.78,0,0,0-.22-.86c-.16-.54-.3-1.09-.43-1.64-.27-1.1-.55-2.2-.8-3.31-.06-.27-.52-.22-.49.07Z"/><path class="cls-8" d="M166.93,103c.34,1.09.61,2.21.89,3.32a27,27,0,0,0,1,3.27c.06.15.29.09.25-.06-.68-2.2-1.1-4.45-1.91-6.6-.06-.17-.33-.11-.27.07Z"/><path class="cls-8" d="M169.09,115.89c.17,1.18.32,2.38.53,3.56a10.54,10.54,0,0,0,1,3.45c.16.29.53.08.49-.2-.17-1.19-.53-2.34-.79-3.52s-.48-2.3-.72-3.45c-.07-.37-.6-.2-.55.16Z"/><path class="cls-8" d="M154.47,103.08a20.52,20.52,0,0,0,.79,3.45,8.78,8.78,0,0,0,1.62,3.3.35.35,0,0,0,.58-.34,8.39,8.39,0,0,0-.62-1.67c-.25-.55-.47-1.11-.69-1.67a20.45,20.45,0,0,1-1-3.27c-.1-.48-.79-.26-.72.2Z"/><path class="cls-8" d="M181,98.3a65.51,65.51,0,0,0,1.19,7,.24.24,0,0,0,.47-.07,45.32,45.32,0,0,0-1.12-7c-.07-.36-.59-.2-.54.15Z"/><path class="cls-8" d="M197.82,98.65c.32,1.95.1,3.93.37,5.87a.26.26,0,0,0,.49,0,16.12,16.12,0,0,0-.4-6c-.07-.31-.51-.18-.46.12Z"/><path class="cls-8" d="M215,100.79l0,1.86,0,.94a5.73,5.73,0,0,0,.09.92.21.21,0,0,0,.4,0,5.73,5.73,0,0,0,.09-.92v-.94l0-1.86a.24.24,0,0,0-.48,0Z"/><path class="cls-8" d="M238,104.76c-.45,2.37-1.3,4.63-1.87,7,0,.18.23.31.31.13a27.67,27.67,0,0,0,2-7c0-.26-.37-.38-.42-.11Z"/><path class="cls-8" d="M153.08,136.48c.57,1.43,1.16,2.86,1.75,4.28a29.38,29.38,0,0,0,2,4.16.36.36,0,0,0,.65-.28,23.27,23.27,0,0,0-1.47-4.28c-.59-1.4-1.17-2.8-1.72-4.21a.63.63,0,0,0-.76-.43.62.62,0,0,0-.44.76Z"/><path class="cls-8" d="M173.56,132.76c.36,1.41.75,2.81,1.08,4.21s.56,2.81,1,4.18a.27.27,0,0,0,.53-.08,17,17,0,0,0-.66-4.24c-.35-1.44-.74-2.86-1.11-4.29a.42.42,0,0,0-.8.22Z"/><path class="cls-8" d="M187.28,114.34c.19,1.62.54,3.21.88,4.81s.56,3.19.8,4.79a.31.31,0,0,0,.59,0,13.17,13.17,0,0,0-.41-4.71c-.35-1.62-.77-3.24-1-4.89-.07-.55-.94-.56-.88,0Z"/><path class="cls-8" d="M205.77,120.56v3.49c0,1.16.1,2.32.16,3.48a.16.16,0,0,0,.31,0c.06-1.16.16-2.32.16-3.48v-3.49a.32.32,0,0,0-.63,0Z"/><path class="cls-8" d="M230.1,124.1c-.18,1.31-.29,2.63-.37,4s0,2.82-.13,4.24c0,.22.35.27.39.05a37.23,37.23,0,0,0,.64-4.08c.12-1.3.2-2.6.4-3.9.1-.61-.85-.87-.93-.26Z"/><path class="cls-8" d="M203.72,112.49a18.88,18.88,0,0,0-.53,6.61.21.21,0,0,0,.42,0c.26-2.19,0-4.4.25-6.59,0-.08-.12-.1-.14,0Z"/><path class="cls-8" d="M218.73,112.24a39.23,39.23,0,0,1,.47,6.12,41.91,41.91,0,0,0,.25,5.61.42.42,0,0,0,.8,0,25.82,25.82,0,0,0,.06-5.83,52.33,52.33,0,0,0-.85-6.1c-.09-.47-.81-.27-.73.2Z"/><path class="cls-8" d="M191.1,136.8a29,29,0,0,1,1.69,7,31.09,31.09,0,0,0,1.48,6.9c.14.33.75.33.69-.09-.62-4.76-1.11-9.7-3-14.15-.2-.47-1-.13-.84.35Z"/><path class="cls-8" d="M238.45,139.47A11.24,11.24,0,0,0,237,142a12.3,12.3,0,0,0-.8,3.1c0,.16.21.23.25.07a13.9,13.9,0,0,1,2.34-5.42c.14-.19-.18-.44-.32-.25Z"/><path class="cls-8" d="M221.2,138.82c-.24,1.52-.46,3-.73,4.56s-.59,3.06-.82,4.6a.21.21,0,0,0,.4.11,20.58,20.58,0,0,0,1-4.59c.21-1.54.37-3.08.54-4.62,0-.23-.37-.29-.4-.06Z"/><path class="cls-8" d="M166.87,152.12c.57,1.87,1.14,3.75,1.76,5.6a39.46,39.46,0,0,0,2.1,5.42.19.19,0,0,0,.34-.14c-.61-1.86-1.36-3.66-2-5.5s-1.22-3.66-1.81-5.49a.2.2,0,0,0-.39.11Z"/><path class="cls-8" d="M177.87,152.15c.36,1.83.72,3.67,1,5.51s.52,3.65.91,5.46a.26.26,0,0,0,.51-.07,28.93,28.93,0,0,0-.69-5.48c-.36-1.87-.77-3.73-1.17-5.59-.08-.4-.68-.23-.6.17Z"/><path class="cls-8" d="M200.47,153.53c0,1.34,0,2.68-.1,4,0,.67-.08,1.34-.12,2s0,1.35-.05,2a.15.15,0,0,0,.3,0,12.42,12.42,0,0,0,.38-1.91c.07-.7.1-1.39.11-2.09,0-1.37,0-2.73,0-4.1a.26.26,0,0,0-.52,0Z"/><path class="cls-8" d="M203.54,137.05l0,3.29a27.92,27.92,0,0,0,.09,3.3.18.18,0,0,0,.36,0,27.92,27.92,0,0,0,.1-3.3l0-3.29a.25.25,0,0,0-.5,0Z"/><path class="cls-8" d="M214.18,157.83c-.24,1.74-.46,3.48-.65,5.22a17.37,17.37,0,0,0-.05,5.19.26.26,0,0,0,.49,0,34.75,34.75,0,0,0,.43-5.1c.11-1.74.27-3.48.43-5.22,0-.37-.6-.46-.65-.09Z"/><path class="cls-8" d="M228,160.42a58.56,58.56,0,0,1-1.47,5.87.18.18,0,0,0,.33.14,22.37,22.37,0,0,0,1.6-5.88c.07-.31-.4-.44-.46-.13Z"/><path class="cls-8" d="M176.08,180.72a31.44,31.44,0,0,1,2.41,4.95,34.11,34.11,0,0,0,2.18,5c.11.18.44.06.36-.15-.59-1.73-1.33-3.42-2.07-5.1a30.62,30.62,0,0,0-2.55-4.84c-.13-.2-.46,0-.33.19Z"/><path class="cls-8" d="M187.06,173.38c.64,4.23,2.23,8.25,3.11,12.43a.23.23,0,0,0,.46-.06c.11-4.36-2.15-8.34-3-12.52-.07-.37-.61-.21-.55.15Z"/><path class="cls-8" d="M204.07,182.33a29,29,0,0,0-.91,10.45.25.25,0,0,0,.48,0c.25-1.7.36-3.43.54-5.15a45.67,45.67,0,0,1,.84-5c.14-.62-.8-.88-1-.26Z"/><path class="cls-8" d="M187.1,206c.21.36.41.72.61,1.08.1.17.2.35.29.53s.23.35.35.52.35.06.28-.11a5.53,5.53,0,0,0-.24-.61l-.27-.55-.55-1.14c-.15-.3-.64,0-.47.28Z"/><path class="cls-8" d="M193.18,197.92c.38,2.06.72,4.16,1.26,6.19.05.19.37.16.35,0-.19-2.12-.7-4.21-1.07-6.3-.07-.35-.6-.21-.54.15Z"/><path class="cls-8" d="M194.4,214.32c0,1.62-.05,3.23,0,4.85a15.43,15.43,0,0,0,.74,4.73c.08.2.44.2.42-.06-.12-1.59-.46-3.16-.59-4.76s-.14-3.17-.16-4.76a.22.22,0,0,0-.43,0Z"/><path class="cls-8" d="M205.15,202.56a42.5,42.5,0,0,0-1.91,12.12c0,.18.29.23.32,0,.62-4,.83-8.15,1.93-12.08.07-.22-.27-.31-.34-.09Z"/><path class="cls-8" d="M216.38,189.41q-1,3-1.85,6c-.58,2-1.26,4-1.69,6.06a.13.13,0,0,0,.26.07c.71-2,1.19-4,1.76-6s1.09-4,1.6-6.07a0,0,0,1,0-.08,0Z"/><path class="cls-8" d="M223.74,177.1c-.83,1.67-1.65,3.35-2.36,5.07a28.79,28.79,0,0,0-1.92,5.56c0,.16.2.28.27.12.77-1.71,1.3-3.53,2-5.28s1.4-3.6,2.17-5.38c0-.1-.1-.18-.14-.09Z"/><path class="cls-8" d="M215.37,175.79c-.73,3.51-1,7.13-1.38,10.69,0,.16.22.18.26,0,1-3.44.95-7.08,1.68-10.58.07-.36-.48-.51-.56-.15Z"/><path class="cls-8" d="M198,168.55c-.12,1.86-.2,3.73-.26,5.6a30.08,30.08,0,0,0,.1,5.45.24.24,0,0,0,.46,0,30.08,30.08,0,0,0,.1-5.45c-.06-1.87-.14-3.74-.26-5.6a.07.07,0,1,0-.14,0Z"/><path class="cls-8" d="M169,169a24.3,24.3,0,0,0,1.32,4.51c.27.71.55,1.41.86,2.09a15.29,15.29,0,0,0,1.29,2.22c.09.14.34.06.28-.11-.59-1.5-1.27-2.95-1.87-4.44s-1.06-2.89-1.57-4.35a.16.16,0,0,0-.31.08Z"/><path class="cls-8" d="M178.54,196.22a21.94,21.94,0,0,0,1.21,3.35,21.1,21.1,0,0,0,1.77,3.32c.13.18.47.08.38-.16a31.73,31.73,0,0,0-1.61-3.32c-.55-1.08-1.09-2.16-1.57-3.27-.05-.1-.21,0-.18.08Z"/><path class="cls-8" d="M209.2,223c-.46,1.76-.77,3.55-1.16,5.33a.13.13,0,0,0,.26.07c.26-.87.5-1.75.73-2.62s.42-1.77.66-2.64a.26.26,0,0,0-.49-.14Z"/><path class="cls-8" d="M184,225.54c.21,2.42.42,4.84.7,7.26a47.77,47.77,0,0,0,1.12,7c.07.24.47.2.44-.06-.19-2.38-.6-4.74-.87-7.12s-.49-4.74-.7-7.12c0-.43-.72-.44-.69,0Z"/><path class="cls-8" d="M192.89,243c-.08,2.06-.2,4.11-.22,6.17,0,1,0,2,0,2.93a8.53,8.53,0,0,0,.32,2.8.36.36,0,0,0,.69,0,8.41,8.41,0,0,0,.31-2.69c0-1,0-2,0-3,0-2.06-.15-4.11-.22-6.17a.41.41,0,0,0-.81,0Z"/><path class="cls-8" d="M207,243.34a40.78,40.78,0,0,0-1,5.59,19.18,19.18,0,0,0-.24,5.6.4.4,0,0,0,.72.1c.71-1.67.61-3.6.73-5.38a43.65,43.65,0,0,1,.57-5.71c.09-.47-.61-.68-.73-.2Z"/><path class="cls-8" d="M196.25,229.49a9.43,9.43,0,0,0-.07,2c0,.62,0,1.24.08,1.86s.1,1.25.14,1.87a3.34,3.34,0,0,0,.36,1.93.43.43,0,0,0,.73,0,2.9,2.9,0,0,0,.24-1.93c0-.62-.11-1.25-.17-1.87s-.15-1.24-.22-1.86-.08-1.34-.21-2a.46.46,0,0,0-.88,0Z"/><path class="cls-8" d="M172.44,198.29c.4,1.48.68,3,1,4.5a24.53,24.53,0,0,0,1.06,4.48.13.13,0,0,0,.26-.07c-.3-1.5-.71-3-1.06-4.48s-.7-3-1.17-4.45a0,0,0,1,0-.05,0Z"/><path class="cls-8" d="M173.1,213c.4,1.53.75,3.07,1.11,4.61.17.75.37,1.5.57,2.25a7.06,7.06,0,0,0,.82,2.19.31.31,0,0,0,.58-.16,7.93,7.93,0,0,0-.48-2.29c-.23-.74-.44-1.48-.68-2.22-.5-1.5-1-3-1.49-4.5a.22.22,0,0,0-.43.12Z"/><path class="cls-8" d="M162,168.24c.41,1.21.73,2.44,1.06,3.68.15.56.31,1.12.48,1.67a6.36,6.36,0,0,0,.66,1.59.19.19,0,0,0,.35-.14c-.12-.55-.33-1.06-.5-1.59s-.35-1.15-.51-1.73c-.34-1.21-.66-2.42-1.08-3.61-.1-.29-.57-.17-.46.13Z"/><path class="cls-8" d="M243.63,115.55a47.08,47.08,0,0,0-1.55,4.61c-.52,1.6-1.09,3.18-1.5,4.81a.31.31,0,0,0,.57.24A23.92,23.92,0,0,0,243,120.5a24.17,24.17,0,0,0,1.12-4.81c0-.26-.4-.38-.5-.14Z"/><path class="cls-8" d="M205.41,266.58a41.2,41.2,0,0,0-1.17,5.4,42.61,42.61,0,0,0-.58,5.64c0,.29.45.36.51.07.77-3.63.84-7.37,1.64-11a.21.21,0,0,0-.4-.11Z"/><path class="cls-8" d="M197.65,261.67c-.27,1.48-.49,3-.67,4.48s-.43,3-.61,4.55c0,.31.47.44.6.16a12.92,12.92,0,0,0,1-4.47c.15-1.55.14-3.1.32-4.64,0-.36-.57-.44-.64-.08Z"/><path class="cls-8" d="M215.11,221.06c-.24,2.06-.51,4.12-.87,6.16-.17.95-.33,1.9-.52,2.85a13.21,13.21,0,0,0-.39,2.79.35.35,0,0,0,.65.18,9.38,9.38,0,0,0,.76-2.8c.15-1,.27-1.93.36-2.9.21-2.09.37-4.19.56-6.28,0-.36-.51-.35-.55,0Z"/><path class="cls-8" d="M218.9,201.86a25,25,0,0,0-1,3.5c-.1.54-.19,1.09-.25,1.64a8.31,8.31,0,0,0,.11,1.86.19.19,0,0,0,.38,0c.07-.58.21-1.16.27-1.74s.12-1.12.22-1.68a24.79,24.79,0,0,1,.9-3.41c.13-.4-.48-.56-.62-.17Z"/><path class="cls-8" d="M268.23,110.37c-1.9,2.69-2.65,6.08-3.47,9.22a.24.24,0,0,0,.44.18c1.53-2.9,2-6.21,3.45-9.16a.24.24,0,0,0-.42-.24Z"/><path class="cls-8" d="M258.53,120c.16,3.84-1.75,7.27-2.62,10.92-.08.32.4.56.55.23,1.65-3.53,3.27-7.15,2.75-11.15,0-.42-.7-.45-.68,0Z"/><path class="cls-8" d="M271.67,126.67c-1,2.17-2.24,4.25-3.43,6.33s-2.36,4.28-3.41,6.51a.19.19,0,0,0,.33.19c1.25-2.15,2.59-4.24,3.82-6.41a56.13,56.13,0,0,0,3.13-6.43c.1-.25-.33-.43-.44-.19Z"/><path class="cls-8" d="M277.49,115.48c-.65,1.62-1.43,3.19-2,4.83-.11.3.31.43.47.21a28.13,28.13,0,0,0,2.54-4.63.54.54,0,1,0-1-.41Z"/><path class="cls-8" d="M257,138.81c-1.6,4.21-4,8.16-5.16,12.52-.07.27.34.46.46.2,1.8-4.15,3.65-8.33,5.06-12.62.08-.24-.28-.33-.36-.1Z"/><path class="cls-8" d="M265,147.44c-1.38,1.94-2.59,4-4,5.95-.13.19.17.41.33.25a9.63,9.63,0,0,0,1.09-1.3c.34-.49.66-1,1-1.49.66-1.06,1.31-2.12,2-3.15.19-.28-.25-.54-.44-.26Z"/><path class="cls-8" d="M115.62,120a10.85,10.85,0,0,1,2.71,2.9q.56.81,1,1.65c.17.28.33.58.5.86a9.06,9.06,0,0,0,.63.76c.27.32.79,0,.69-.4a5.86,5.86,0,0,0-.33-1q-.23-.43-.48-.87a15.44,15.44,0,0,0-1.22-1.77A11.78,11.78,0,0,0,116,119.3c-.46-.27-.83.4-.41.7Z"/><path class="cls-8" d="M118.55,134.27c.57.73,1.14,1.46,1.69,2.22a13.33,13.33,0,0,0,1.89,2.4.28.28,0,0,0,.46-.27,8,8,0,0,0-1.58-2.68c-.58-.79-1.19-1.56-1.8-2.33a.46.46,0,0,0-.66,0,.47.47,0,0,0,0,.66Z"/><path class="cls-8" d="M129.43,122.89a15.4,15.4,0,0,0,1.36,2.4c.47.81.91,1.63,1.36,2.46.9,1.66,1.69,3.38,2.68,5a.41.41,0,0,0,.74-.31,20.33,20.33,0,0,0-2.29-5.26c-.47-.81-1-1.58-1.54-2.35-.26-.36-.51-.72-.79-1.07a6.3,6.3,0,0,0-1-1.17c-.21-.17-.62,0-.51.3Z"/><path class="cls-8" d="M128.87,139.18q1.65,2.23,3.32,4.45c.54.73,1.07,1.48,1.6,2.22.26.36.53.71.82,1s.54.76.86,1.09a.31.31,0,0,0,.51-.3,9.21,9.21,0,0,0-1.16-2.43c-.51-.79-1.09-1.53-1.66-2.27-1.16-1.48-2.42-2.87-3.63-4.31-.3-.37-.95.12-.66.51Z"/><path class="cls-8" d="M141.67,141.14c.92,1.56,1.72,3.21,2.55,4.83a18.52,18.52,0,0,0,2.83,4.46.42.42,0,0,0,.7-.41,20.86,20.86,0,0,0-2.21-4.83c-.91-1.58-1.9-3.09-2.94-4.6-.39-.56-1.29-.06-.93.55Z"/><path class="cls-8" d="M145,161.54a5.69,5.69,0,0,0-.07-.83,2.22,2.22,0,0,0-.09-.37.78.78,0,0,0-.17-.26.38.38,0,0,0-.21-.14.19.19,0,0,0-.22.08.52.52,0,0,0,0,.25.9.9,0,0,0,0,.23c0,.06,0,.12,0,.18a.36.36,0,0,1,0,.1v.05s0-.05,0,0a5.93,5.93,0,0,1,0,.73.34.34,0,0,0,.34.34.35.35,0,0,0,.35-.34Z"/><path class="cls-8" d="M139.1,154.51a17.16,17.16,0,0,1,4.25,5c.58.94,1.12,1.91,1.66,2.87a11.66,11.66,0,0,0,1.7,2.6c.13.13.41,0,.33-.19a23.87,23.87,0,0,0-1.58-2.84c-.58-1-1.16-2-1.78-3a12.53,12.53,0,0,0-4.46-4.68c-.13-.07-.23.11-.12.2Z"/><path class="cls-8" d="M151.67,154l1.6,3.72a15.33,15.33,0,0,0,1.86,3.48c.14.18.43,0,.37-.22a21,21,0,0,0-1.6-3.63c-.61-1.2-1.22-2.39-1.92-3.53a.18.18,0,0,0-.31.18Z"/><path class="cls-8" d="M150.71,174.68c.95,2,1.91,4,2.8,6,.44,1,.86,2,1.24,3.07.19.54.37,1.08.53,1.63a3.22,3.22,0,0,0,.56,1.32.28.28,0,0,0,.46-.12c.23-1-.37-2.17-.7-3.07a30.26,30.26,0,0,0-1.31-3c-1-2-2.22-4-3.35-5.92a.13.13,0,0,0-.23.14Z"/><path class="cls-8" d="M161.65,179.6a14.74,14.74,0,0,0,1.49,5.68c.37.92.81,1.81,1.21,2.71a13.89,13.89,0,0,0,1.39,2.68c.15.19.5.15.49-.13a7,7,0,0,0-.79-2.65c-.43-.91-.88-1.81-1.33-2.71s-1-1.84-1.35-2.81-.62-1.86-.91-2.79a.1.1,0,0,0-.2,0Z"/><path class="cls-8" d="M227.11,198.94c.63-1.66,1-3.43,1.57-5.12s1.42-3.24,2.11-4.87c.12-.28-.31-.5-.49-.29a14.28,14.28,0,0,0-2.59,4.81,18.91,18.91,0,0,0-1.26,5.38c0,.4.53.42.66.09Z"/><path class="cls-8" d="M233.2,177.05c.58-1.83,1.16-3.65,1.72-5.47a.2.2,0,0,0-.36-.15,18.18,18.18,0,0,0-1.78,5.5.22.22,0,0,0,.42.12Z"/><path class="cls-8" d="M242.55,171.88c.91-1.15,1.89-2.26,2.78-3.43a25.62,25.62,0,0,0,2.54-3.68.27.27,0,0,0-.42-.33,24.86,24.86,0,0,0-2.72,3.5c-.85,1.22-1.62,2.5-2.45,3.74-.11.15.15.36.27.2Z"/><path class="cls-8" d="M239.72,160.67a10.93,10.93,0,0,1,1.13-3.22,13,13,0,0,0,1.28-3.22c0-.22-.26-.37-.38-.16-.58,1.05-1.1,2.15-1.58,3.25a11.46,11.46,0,0,0-1,3.27c0,.31.51.39.55.08Z"/><path class="cls-8" d="M247.38,138a4.67,4.67,0,0,1,.38-1.68,5.68,5.68,0,0,1,.37-.74c.07-.13.16-.26.23-.39s.13-.28.2-.41a.21.21,0,0,0-.33-.25,2.78,2.78,0,0,0-.59.73,4.79,4.79,0,0,0-.41.89,5.29,5.29,0,0,0-.31,1.85.23.23,0,0,0,.46,0Z"/><path class="cls-8" d="M212.64,249.41c-.22.88-.53,1.73-.74,2.61s-.41,1.84-.59,2.76-.37,1.78-.53,2.68a12.43,12.43,0,0,0-.35,2.71.23.23,0,0,0,.42.12,8.53,8.53,0,0,0,.92-2.45c.25-.91.43-1.84.6-2.77s.3-1.79.43-2.69.16-1.9.32-2.84c0-.31-.41-.45-.48-.13Z"/><path class="cls-8" d="M220.74,230.37a8.17,8.17,0,0,0-2,4A19.31,19.31,0,0,0,218,239c0,.38.49.39.62.09a22.27,22.27,0,0,0,1-4.36,15.17,15.17,0,0,1,1.29-4.22.13.13,0,0,0-.21-.16Z"/><path class="cls-8" d="M163.51,200a11.8,11.8,0,0,0,.75,2.59c.3.84.67,1.65,1,2.47a46.64,46.64,0,0,0,2.13,5.11.36.36,0,0,0,.67-.19,13.82,13.82,0,0,0-1.68-5.2c-.38-.8-.74-1.61-1.14-2.41a19,19,0,0,0-1.33-2.48c-.1-.16-.42-.13-.4.11Z"/><path class="cls-8" d="M104.29,146.73c.2.2.39.41.58.63s.35.43.53.67l.56.79a3.16,3.16,0,0,0,.37.45,1.71,1.71,0,0,0,.44.32c.19.09.5,0,.48-.27l0-.25a1.39,1.39,0,0,0-.12-.32,4,4,0,0,0-.26-.45l-.6-.82A14.28,14.28,0,0,0,105,146a.49.49,0,0,0-.7.7Z"/><path class="cls-8" d="M100.25,133.74l1.71,1.72c.28.28.55.57.84.84l.43.39a2.75,2.75,0,0,0,.53.36c.18.12.44-.11.31-.3a3.64,3.64,0,0,0-.36-.49l-.42-.41c-.29-.28-.6-.55-.9-.83l-1.78-1.63c-.24-.22-.59.12-.36.35Z"/><path class="cls-8" d="M285.53,128.23c.81-1.31,1.68-2.58,2.58-3.82s1.9-2.54,2.73-3.9c.14-.24-.2-.52-.4-.3a35.39,35.39,0,0,0-2.9,3.78c-.89,1.28-1.75,2.58-2.53,3.93a.3.3,0,0,0,.52.31Z"/><path class="cls-8" d="M302.7,135.78c1.13-.71,2.3-1.36,3.5-2s2.51-1.14,3.7-1.83a.3.3,0,0,0-.23-.54A20.26,20.26,0,0,0,305.8,133a37.36,37.36,0,0,0-3.54,2c-.47.31,0,1.06.44.76Z"/><path class="cls-8" d="M301.5,124.69c-2,2.69-4.71,4.83-6.45,7.72-.07.13.12.24.21.12a40.09,40.09,0,0,1,3.35-4,48.14,48.14,0,0,0,3.2-3.64c.13-.19-.18-.37-.31-.18Z"/><path class="cls-8" d="M299.36,146c-1.42,1.29-2.88,2.53-4.36,3.74a45.07,45.07,0,0,0-4.45,3.94c-.22.23.06.63.34.45a36.16,36.16,0,0,0,4.64-3.74c1.43-1.31,2.85-2.63,4.21-4,.25-.25-.12-.61-.38-.38Z"/><path class="cls-8" d="M285.27,137.73a81.43,81.43,0,0,0-5.16,7.44c-.16.25.18.48.39.3a15.72,15.72,0,0,0,2.92-3.38c.88-1.3,1.74-2.62,2.66-3.89a.47.47,0,0,0-.17-.64.48.48,0,0,0-.64.17Z"/><path class="cls-8" d="M273.46,161.23a12.74,12.74,0,0,1,.73-1.54c.14-.26.3-.52.46-.77s.33-.54.49-.81-.14-.34-.26-.2a10.88,10.88,0,0,0-2,3.16.3.3,0,0,0,.2.37.31.31,0,0,0,.37-.21Z"/><path class="cls-8" d="M115.28,159.37c3.24,2.06,4.69,5.74,7.07,8.59.19.23.52-.06.4-.3a30.05,30.05,0,0,0-3-5,14.58,14.58,0,0,0-4.12-3.86.31.31,0,0,0-.31.54Z"/><path class="cls-8" d="M259.24,191.58c.09-3.88,2.89-6.73,4.32-10.14.08-.21-.25-.33-.36-.15-2,3.06-4.4,6.49-4.4,10.29a.22.22,0,0,0,.44,0Z"/><path class="cls-8" d="M246.66,212.42c.75-2.15,1.53-4.29,2.28-6.45.06-.18-.23-.3-.32-.13a57.1,57.1,0,0,0-2.49,6.44c-.11.33.41.47.53.14Z"/><path class="cls-8" d="M139.18,183.67c1,2,2.11,3.85,3.26,5.72a37,37,0,0,0,3.71,5.18c.23.26.63-.08.47-.37-1-1.88-2.16-3.65-3.28-5.46s-2.2-3.72-3.21-5.63c-.33-.63-1.29-.07-.95.56Z"/><path class="cls-8" d="M239.16,199.38a14.28,14.28,0,0,1,.82-3.59c.2-.59.43-1.17.62-1.76.09-.29.14-.61.22-.91s.18-.65.23-1a.25.25,0,0,0-.46-.2,9.5,9.5,0,0,0-.5.88c-.15.29-.34.57-.46.87a12.9,12.9,0,0,0-.62,1.91,12.64,12.64,0,0,0-.4,3.78.28.28,0,0,0,.55,0Z"/><path class="cls-8" d="M152.2,200.61c.9,1.28,1.84,2.53,2.78,3.79a22,22,0,0,0,3.09,3.52.27.27,0,0,0,.42-.33,22.54,22.54,0,0,0-2.67-3.84c-1-1.22-2-2.43-3-3.61-.29-.33-.87.1-.61.47Z"/><path class="cls-8" d="M132.6,169.06a16.52,16.52,0,0,0,2.06,3.33c.14.17.39,0,.29-.23-.62-1.13-1.19-2.28-1.78-3.43-.2-.38-.77,0-.57.33Z"/><path class="cls-8" d="M228.72,221.26A36.47,36.47,0,0,0,231,217a25.62,25.62,0,0,0,1.59-4.31c.05-.24-.31-.42-.43-.17-.65,1.38-1.14,2.82-1.76,4.21s-1.3,2.91-2.08,4.31a.25.25,0,0,0,.43.25Z"/><path class="cls-8" d="M253.21,176.84a21.36,21.36,0,0,0,1.61-2.47c.25-.41.47-.83.7-1.26a13.7,13.7,0,0,0,.6-1.36c.15-.35-.39-.63-.62-.36a8.41,8.41,0,0,0-.87,1.1c-.27.42-.53.84-.77,1.27-.46.84-.94,1.67-1.35,2.54a.45.45,0,0,0,.7.54Z"/><path class="cls-9" d="M255.25,261c1.62-.34,3.11-1.06,4.71-1.47.09,0,.05-.15,0-.13-1.6.36-3.12,1-4.75,1.32-.18,0-.11.32.08.28Z"/><path class="cls-9" d="M180.87,245.88a46.23,46.23,0,0,0,.08,6.34,18.47,18.47,0,0,0,1.15,6c.12.26.5.12.5-.13a42,42,0,0,0-.77-6.1c-.26-2-.48-4.06-.58-6.11a.19.19,0,0,0-.38,0Z"/><path class="cls-9" d="M184,266.64c.3,4.22.43,8.64,1.76,12.68.09.28.58.26.55-.07-.38-4.25-1.08-8.48-1.66-12.7-.05-.37-.67-.28-.65.09Z"/><path class="cls-9" d="M171.25,233.83a18,18,0,0,1,1.41,3.54,27.15,27.15,0,0,1,.82,3.57c0,.12.22.09.21,0a15.57,15.57,0,0,0-2.25-7.19.11.11,0,0,0-.19.11Z"/><path class="cls-9" d="M177.2,258.75c.28,2.18,1,4.26,1.35,6.43a.08.08,0,0,0,.15,0c-.2-2.17-.88-4.25-1.12-6.41,0-.24-.41-.24-.38,0Z"/><path class="cls-9" d="M54.15,170.48c3.34,0,6.58,1.39,9.94,1.09a.28.28,0,0,0,0-.56c-3.31-.34-6.6-1.11-9.94-1.1a.29.29,0,0,0,0,.57Z"/><path class="cls-9" d="M62.1,161.33a46.16,46.16,0,0,1,4.57,1.52,21.31,21.31,0,0,0,4.62,1.36.26.26,0,0,0,.14-.5l-4.57-1.57a45.22,45.22,0,0,0-4.6-1.4.31.31,0,0,0-.16.59Z"/><path class="cls-9" d="M74.52,151.3a23.57,23.57,0,0,1,3.43.86c1.17.38,2.31.85,3.48,1.24.27.09.41-.3.18-.45a18,18,0,0,0-6.9-2.32c-.44-.07-.63.6-.19.67Z"/><path class="cls-9" d="M78,158.59a18.91,18.91,0,0,1,3.24.88c.53.19,1.05.41,1.57.64l.77.35c.3.12.62.19.93.29s.47-.34.22-.51a9.45,9.45,0,0,0-.86-.53c-.24-.12-.51-.22-.76-.33-.53-.22-1.08-.42-1.62-.6a18.87,18.87,0,0,0-3.32-.79c-.39-.06-.57.53-.17.6Z"/><path class="cls-9" d="M83.88,141.26c1,.42,2,.9,3,1.4A20.56,20.56,0,0,0,90,144.14a.33.33,0,0,0,.31-.54,3.81,3.81,0,0,0-.65-.54c-.25-.15-.51-.28-.76-.42q-.81-.44-1.65-.81c-1-.47-2.1-.91-3.18-1.3-.47-.17-.64.55-.2.73Z"/><path class="cls-9" d="M75.57,171.22a17.43,17.43,0,0,1,6,.93,46.68,46.68,0,0,0,5.41,1.62c.45.08.81-.56.33-.79-3.58-1.72-7.67-3.07-11.69-2.63-.54.06-.57.89,0,.87Z"/><path class="cls-9" d="M90.44,151.74c1.2.77,2.35,1.6,3.54,2.38.6.39,1.21.77,1.83,1.11a8.83,8.83,0,0,0,2,.83.34.34,0,0,0,.27-.62c-1.24-.72-2.51-1.4-3.71-2.18s-2.32-1.58-3.5-2.33c-.51-.32-1,.48-.47.81Z"/><path class="cls-9" d="M320.66,152.42a45.3,45.3,0,0,0,7.73-1.58.25.25,0,0,0-.07-.49c-2.65,0-5.17.92-7.76,1.37-.39.06-.3.75.1.7Z"/><path class="cls-9" d="M314.83,158a35.43,35.43,0,0,1-2.75,3.49,29.51,29.51,0,0,0-2.7,3.41c-.19.31.23.58.48.37a18.81,18.81,0,0,0,3-3.28,31.61,31.61,0,0,0,2.37-3.79.21.21,0,0,0-.36-.2Z"/><path class="cls-9" d="M317.51,141.52c-1.61,2.23-3.72,4-5.33,6.24-.13.17.14.35.28.22,1-1,2-2,2.91-3.1a32.83,32.83,0,0,0,2.48-3.16c.14-.21-.2-.4-.34-.2Z"/><path class="cls-9" d="M294.17,186.49c2.91-2.43,5.72-5,8.63-7.41.19-.16-.05-.47-.26-.34-3.25,2-6,4.79-8.86,7.26-.34.29.15.77.49.49Z"/><path class="cls-9" d="M323.61,180c.79-.58,1.57-1.18,2.39-1.73a25.44,25.44,0,0,1,2.6-1.59c.2-.1.06-.43-.16-.37a18,18,0,0,0-5.25,3,.43.43,0,0,0-.15.57.41.41,0,0,0,.57.15Z"/><path class="cls-9" d="M324.77,161.43c.35-.35.68-.72,1.05-1.05a5.07,5.07,0,0,1,1.31-.82c.18-.08.05-.35-.13-.31a3.36,3.36,0,0,0-.83.27,5.76,5.76,0,0,0-.69.38,8.44,8.44,0,0,0-1.27,1,.39.39,0,0,0,.56.55Z"/><path class="cls-9" d="M339.18,181.16c.8-.19,1.61-.36,2.41-.53.41-.09.82-.18,1.23-.3a5.88,5.88,0,0,0,1.12-.43c.29-.14.14-.6-.16-.6h-.61a6,6,0,0,0-.61.1c-.42.07-.83.15-1.24.24-.8.17-1.61.34-2.4.53a.51.51,0,0,0,.26,1Z"/><path class="cls-9" d="M333.17,166.56l.53-.28.26-.15c.1-.06.18-.13.27-.19s.36-.19.53-.3.35-.28.52-.42a.33.33,0,0,0-.32-.55,3.75,3.75,0,0,0-.58.13c-.19.06-.37.16-.56.22a2.45,2.45,0,0,0-.29.08l-.28.12-.56.22a.73.73,0,0,0-.36.29.55.55,0,0,0,0,.54.61.61,0,0,0,.87.29Z"/><path class="cls-9" d="M340.87,201.49,345,201c1.43-.17,2.88-.3,4.29-.59a.21.21,0,0,0-.05-.4,43.16,43.16,0,0,0-4.4.46l-4,.53c-.3,0-.23.56.07.52Z"/><path class="cls-9" d="M343.78,216.81c1,0,2.06.08,3.09.07l1.45,0c.55,0,1.1-.09,1.64-.15a.15.15,0,0,0,0-.3c-.54-.06-1.09-.14-1.64-.15l-1.45,0c-1,0-2.06,0-3.09.07a.25.25,0,0,0,0,.5Z"/><path class="cls-9" d="M321,228.42a25.78,25.78,0,0,0,8.54,3.32.2.2,0,0,0,.11-.39,58.63,58.63,0,0,1-8.22-3.66c-.48-.26-.91.47-.43.73Z"/><path class="cls-9" d="M326.18,215.25c1.05.16,2.11.28,3.17.35s2.1.12,3.15.12a.21.21,0,0,0,.05-.41,40.66,40.66,0,0,0-6.13-.92.46.46,0,0,0-.55.31.45.45,0,0,0,.31.55Z"/><path class="cls-9" d="M322.42,201.31l3.82-.53a30.69,30.69,0,0,0,3.79-.67.29.29,0,0,0-.08-.56,29.64,29.64,0,0,0-3.87.37l-3.9.54c-.56.08-.32.93.24.85Z"/><path class="cls-9" d="M304.15,194.05c1.62-.35,3.11-1.05,4.7-1.46.09,0,0-.16,0-.14-1.61.36-3.12,1-4.74,1.32-.19,0-.11.32.07.28Z"/><path class="cls-9" d="M227.12,274.47c1.61-.34,3.11-1.05,4.7-1.47.09,0,.05-.15,0-.13-1.6.36-3.11,1-4.74,1.32-.18,0-.11.32.08.28Z"/><path class="cls-9" d="M283.52,181.51a11.87,11.87,0,0,1,2.46-3.57c.51-.53,1.07-1,1.57-1.56s1-1.16,1.5-1.76c.2-.26-.07-.73-.38-.5-.64.46-1.29.91-1.89,1.41a15.61,15.61,0,0,0-1.73,1.72,13,13,0,0,0-2.59,4,.56.56,0,0,0,.39.68.56.56,0,0,0,.67-.39Z"/><path class="cls-9" d="M45.19,179.53a13.93,13.93,0,0,1,3.74,2.1,23.64,23.64,0,0,0,3.71,2.5.12.12,0,0,0,.12-.2c-1.3-.82-2.53-1.73-3.79-2.61a10.88,10.88,0,0,0-3.76-1.87c-.05,0-.07.07,0,.08Z"/><path class="cls-9" d="M39.68,195.89a19.62,19.62,0,0,1,4.5.76c1.38.38,2.73.87,4.14,1.13a.16.16,0,0,0,.08-.31,23.67,23.67,0,0,0-8.72-1.89.16.16,0,0,0,0,.31Z"/><path class="cls-9" d="M37.33,208.83c1.39,0,2.77.13,4.16.17a18.19,18.19,0,0,0,3.76-.16.2.2,0,0,0,0-.39,18.19,18.19,0,0,0-3.76-.15c-1.39,0-2.77.14-4.16.17a.18.18,0,0,0,0,.36Z"/><path class="cls-9" d="M55.07,223.56a28.13,28.13,0,0,1,4.84.54c1.54.3,3.06.74,4.63.93.25,0,.26-.34.06-.41a27.36,27.36,0,0,0-4.81-1.14,27.61,27.61,0,0,0-4.72-.42.25.25,0,0,0,0,.5Z"/><path class="cls-9" d="M53.09,208a25.24,25.24,0,0,1,3.88.38c1.19.21,2.36.56,3.56.73.21,0,.38-.26.16-.37a11,11,0,0,0-3.57-1,25.92,25.92,0,0,0-4-.21.22.22,0,0,0,0,.44Z"/><path class="cls-9" d="M64.08,183.52a64.75,64.75,0,0,1,9.84,4.42.16.16,0,0,0,.17-.28A38.46,38.46,0,0,0,64.21,183c-.31-.1-.45.4-.13.5Z"/><path class="cls-9" d="M72.29,210.7c1.4,1,2.81,2,4.23,2.92a26.88,26.88,0,0,0,4.54,2.67c.16.07.29-.18.17-.28a48.06,48.06,0,0,0-4.39-2.95c-1.43-.93-2.86-1.88-4.28-2.83-.29-.2-.55.27-.27.47Z"/><path class="cls-9" d="M66.43,193.74a14.82,14.82,0,0,1,4.46,1.38c1.44.7,2.78,1.56,4.17,2.33.23.12.5-.19.29-.37a17.13,17.13,0,0,0-8.84-3.9c-.32,0-.39.52-.08.56Z"/><path class="cls-9" d="M95.19,198.56c1.23.79,2.49,1.54,3.74,2.28s2.49,1.55,3.8,2.2c.14.06.31-.12.18-.23a30,30,0,0,0-3.68-2.33c-1.28-.75-2.57-1.5-3.82-2.29-.24-.15-.45.22-.22.37Z"/><path class="cls-9" d="M85,185.37c.59.19,1.19.3,1.78.49s1.1.39,1.64.61,1.08.48,1.61.74,1.11.47,1.66.72a.15.15,0,0,0,.15-.26,12.47,12.47,0,0,0-1.5-1c-.55-.29-1.12-.55-1.7-.79a13.7,13.7,0,0,0-1.77-.61,7.42,7.42,0,0,0-1.81-.34.22.22,0,0,0-.06.42Z"/><path class="cls-9" d="M101.88,174.42c.75.54,1.47,1.13,2.18,1.71a16.4,16.4,0,0,0,2.21,1.61.16.16,0,0,0,.19-.25c-.69-.62-1.41-1.2-2.13-1.79s-1.44-1.18-2.19-1.72c-.27-.2-.53.25-.26.44Z"/><path class="cls-9" d="M115.54,182.31a22.32,22.32,0,0,0,3.55,4.27c.66.65,1.33,1.29,2,1.93a12.67,12.67,0,0,0,2.07,1.81c.27.16.51-.15.4-.4a7.75,7.75,0,0,0-1.73-2.06c-.65-.63-1.32-1.24-2-1.86a26.85,26.85,0,0,1-3.74-4c-.24-.34-.79,0-.57.33Z"/><path class="cls-9" d="M101.91,161.3a37.74,37.74,0,0,1,5.12,5.6c.11.18.46.07.36-.15-1-2.47-3.24-4.05-5.15-5.78-.22-.2-.55.12-.33.33Z"/><path class="cls-9" d="M105.07,190.16a45,45,0,0,0,3.42,3.2,15.34,15.34,0,0,0,3.64,2.61c.26.12.58-.21.33-.43-1.14-1-2.35-1.88-3.52-2.82a30.24,30.24,0,0,0-3.71-2.76.13.13,0,0,0-.16.2Z"/><path class="cls-9" d="M83.73,206.07A52.63,52.63,0,0,0,90.89,211a.15.15,0,0,0,.15-.25c-1.13-.81-2.31-1.54-3.46-2.32s-2.41-1.69-3.57-2.6c-.2-.16-.49.12-.28.28Z"/><path class="cls-9" d="M81,234.53c2.85,1.56,5.75,3.12,8.74,4.41a.18.18,0,0,0,.18-.3c-2.71-1.81-5.75-3.1-8.61-4.65-.35-.2-.67.35-.31.54Z"/><path class="cls-9" d="M77.43,224.28c1,.55,2,1,3,1.51s2,1,3,1.42a.15.15,0,0,0,.15-.25,16.79,16.79,0,0,0-2.91-1.6c-1-.48-2-1-3-1.51a.25.25,0,0,0-.25.43Z"/><path class="cls-9" d="M102.41,222.58c3.17.14,5.47,2.62,8.13,4a.31.31,0,0,0,.37-.48c-2.08-2.43-5.22-4.42-8.5-4.34a.41.41,0,0,0,0,.81Z"/><path class="cls-9" d="M273,198.1c1.16-2.12,2.78-3.94,3.92-6.06a.16.16,0,0,0-.28-.17,43,43,0,0,0-4,6c-.12.22.21.42.33.2Z"/><path class="cls-9" d="M296.24,165c1.06-.8,2.16-1.56,3.27-2.29a35,35,0,0,0,3.41-2.36c.15-.12,0-.31-.19-.24a27.33,27.33,0,0,0-3.55,2.16c-1.09.73-2.17,1.48-3.2,2.28-.27.2,0,.66.26.45Z"/><path class="cls-9" d="M278.81,213.94c2.82-1.44,5.23-3.55,7.89-5.24a.14.14,0,0,0-.14-.24c-2.87,1.37-5.13,3.7-7.85,5.32a.09.09,0,0,0,.1.16Z"/><path class="cls-9" d="M290.6,216.94a22.6,22.6,0,0,1,6.69-2.26c.07,0,.06-.15,0-.14a18.76,18.76,0,0,0-6.74,2.28c-.07.05,0,.17.07.12Z"/><path class="cls-9" d="M236.39,264.08a22,22,0,0,1,6.7-2.26c.07,0,.06-.15,0-.14a18.37,18.37,0,0,0-6.75,2.28c-.08,0,0,.16.07.12Z"/><path class="cls-9" d="M307.31,187.32c2.48-1.11,5.15-1.19,7.8-1.56a.24.24,0,0,0,0-.45,14.29,14.29,0,0,0-8.12,1.47c-.36.18,0,.7.32.54Z"/><path class="cls-9" d="M296.11,224.44a49,49,0,0,0,5.42-.26,21.12,21.12,0,0,0,5.3-1c.26-.1.25-.55-.07-.54-1.79.11-3.55.52-5.33.72a52.38,52.38,0,0,1-5.32.32.38.38,0,0,0,0,.75Z"/><path class="cls-9" d="M307.28,209.43a24.35,24.35,0,0,0,6.71-2.15c.27-.13.07-.51-.2-.46-2.29.39-4.46,1.28-6.77,1.66-.62.1-.36,1.05.26,1Z"/><path class="cls-9" d="M261.21,210.67a30.2,30.2,0,0,0,5.07-6.15c.11-.19-.16-.41-.3-.24-.83,1-1.62,2.1-2.47,3.1a38.89,38.89,0,0,1-2.72,2.87c-.28.27.14.69.42.42Z"/><path class="cls-9" d="M116.9,201.84c1.17,1.6,2.33,3.19,3.64,4.68a26,26,0,0,0,4.22,4.17c.21.14.51-.15.36-.36a57.56,57.56,0,0,0-4-4.26c-1.36-1.44-2.75-2.87-4-4.38-.09-.11-.28,0-.19.15Z"/><path class="cls-9" d="M137.72,214c1,1.35,1.85,2.78,2.74,4.2a16,16,0,0,0,2.82,3.76c.18.15.48,0,.34-.26-.85-1.31-1.82-2.55-2.69-3.86s-1.82-2.76-2.81-4.07c-.18-.23-.57,0-.4.23Z"/><path class="cls-9" d="M114.12,209.56a22.76,22.76,0,0,1,4.71,4.43,55.08,55.08,0,0,0,4.26,5,.32.32,0,0,0,.5-.38,32,32,0,0,0-4.22-5.28,25.49,25.49,0,0,0-5-4.22c-.28-.18-.53.26-.26.45Z"/><path class="cls-9" d="M96.27,236.9c.8.57,1.61,1.13,2.44,1.66a23.27,23.27,0,0,0,2.82,1.53.19.19,0,0,0,.19-.33c-1.69-1.17-3.35-2.39-5-3.62a.44.44,0,0,0-.6.16.45.45,0,0,0,.16.6Z"/><path class="cls-9" d="M302.42,237.56a37.16,37.16,0,0,0,9.51-2.7c.14-.06.09-.3-.07-.25-3.14.95-6.16,2.19-9.44,2.61-.22,0-.22.36,0,.34Z"/><path class="cls-9" d="M279.34,232.87a17.77,17.77,0,0,1,4.27-4.25c1.66-1.26,3.44-2.36,5.13-3.58a.26.26,0,0,0-.26-.46,32.38,32.38,0,0,0-5.48,3.49,12.36,12.36,0,0,0-4.05,4.57.23.23,0,0,0,.39.23Z"/><path class="cls-9" d="M259.85,224.33c2.08-3.9,5.4-6.83,8.18-10.21.15-.19-.1-.45-.28-.28-3.17,3-6.37,6.28-8.4,10.2-.16.33.32.61.5.29Z"/><path class="cls-9" d="M232.7,232.68c-.79,3-1.92,6-2.47,9.14a.2.2,0,0,0,.38.1c1.06-3,2.23-5.92,3.06-9a.5.5,0,0,0-1-.26Z"/><path class="cls-9" d="M156,217.77c2.19,3.59,3.42,7.78,4.51,11.82a.12.12,0,0,0,.23-.06c-.91-4.16-1.95-8.42-4.42-11.95-.13-.2-.45,0-.32.19Z"/><path class="cls-9" d="M123.16,229.72a21.2,21.2,0,0,0,6.42,5.51c.21.11.46-.17.27-.34-2.1-1.87-4.4-3.48-6.37-5.49-.2-.21-.5.1-.32.32Z"/><path class="cls-9" d="M104.34,250.32c1.67.76,3.23,1.75,4.85,2.61a.24.24,0,0,0,.3-.38,11.31,11.31,0,0,0-4.85-3c-.41-.13-.7.53-.3.72Z"/><path class="cls-9" d="M156.47,240.7a37.64,37.64,0,0,0,2.05,3.87c.1.15.39.07.31-.13a40.92,40.92,0,0,0-1.8-4.07c-.19-.37-.76,0-.56.33Z"/><path class="cls-9" d="M166.38,253.7c.3,1.21.54,2.44.78,3.67A19.67,19.67,0,0,0,168,261c.07.19.42.19.39-.06-.16-1.23-.47-2.44-.72-3.66s-.5-2.49-.82-3.72a.25.25,0,0,0-.49.13Z"/><path class="cls-9" d="M224.93,269.28c.44-2.63,1.58-5,2.15-7.64a.31.31,0,0,0-.56-.24,18.22,18.22,0,0,0-2.35,7.78c0,.43.69.53.76.1Z"/><path class="cls-9" d="M222.16,258.82c.08-3.13,1.3-6,1.51-9.14,0-.46-.61-.49-.75-.1a28.09,28.09,0,0,0-1.22,4.6,23.34,23.34,0,0,0-.47,4.64.47.47,0,0,0,.93,0Z"/><path class="cls-9" d="M235.39,246.72c.36-2.5,1.73-4.66,2.44-7.05.07-.23-.29-.39-.4-.17a23.36,23.36,0,0,0-2.69,7c-.05.42.59.6.65.18Z"/><path class="cls-9" d="M278.54,244.36c2.26-2.74,5.17-4.79,7.58-7.37.15-.15-.07-.37-.23-.23a58.07,58.07,0,0,0-7.7,7.25c-.2.25.15.6.35.35Z"/><path class="cls-9" d="M283.46,250.53c1.73-1.34,3.43-2.73,5.19-4.06s3.46-2.44,5.27-3.56c.12-.07,0-.26-.12-.19-3.85,2-7.15,4.95-10.54,7.61-.15.12.06.32.2.2Z"/><path class="cls-9" d="M114.33,237.87a18.13,18.13,0,0,0,3.28,3,35.3,35.3,0,0,0,3.74,2.56.15.15,0,0,0,.18-.23,17.62,17.62,0,0,0-3.5-2.69,23.73,23.73,0,0,1-3.53-2.78c-.11-.11-.26.05-.17.17Z"/><path class="cls-9" d="M143.09,227.3a35.28,35.28,0,0,0,3,5.21c1.09,1.68,2.06,3.44,3.19,5.08a.22.22,0,0,0,.41-.17,16.41,16.41,0,0,0-2.83-5.25,36,36,0,0,1-3.14-5.22c-.18-.41-.76,0-.59.35Z"/><path class="cls-9" d="M273.09,226.53a33.69,33.69,0,0,0,2.26-3.42,29.84,29.84,0,0,0,1.9-3.63c.08-.21-.25-.33-.36-.15-.74,1.15-1.31,2.4-2,3.59a34.47,34.47,0,0,1-2.15,3.42c-.15.2.19.39.33.19Z"/><path class="cls-9" d="M288.12,200.94a21.25,21.25,0,0,0,3.73-2.66c.15-.12,0-.36-.2-.26-.66.41-1.31.82-2,1.19s-1.28.74-1.94,1a.4.4,0,0,0-.15.54.41.41,0,0,0,.55.14Z"/><path class="cls-6" d="M155.32,239.17c0,9.17-7.77,16.61-17.37,16.61s-17.35-7.44-17.35-16.61,7.78-16.61,17.35-16.61S155.32,230,155.32,239.17Z"/><path class="cls-10" d="M148.58,242.33a8.86,8.86,0,1,1-8.86-8.46A8.67,8.67,0,0,1,148.58,242.33Z"/><path class="cls-11" d="M126.12,242c0-7.47,6.33-13.53,14.13-13.53a14.08,14.08,0,0,1,13.48,9.49,14.89,14.89,0,0,0-14.85-12c-8.31,0-15.08,6.45-15.08,14.43a14.45,14.45,0,0,0,9.52,13.39A13.42,13.42,0,0,1,126.12,242Z"/><path class="cls-11" d="M139.57,235.37a3.71,3.71,0,1,1-3.71-3.55A3.62,3.62,0,0,1,139.57,235.37Z"/><path class="cls-11" d="M134.63,241.28a2.47,2.47,0,1,1-2.47-2.37A2.42,2.42,0,0,1,134.63,241.28Z"/><path class="cls-6" d="M238.13,239.17c0,9.17,7.76,16.61,17.35,16.61s17.36-7.44,17.36-16.61-7.78-16.61-17.36-16.61S238.13,230,238.13,239.17Z"/><path class="cls-10" d="M244.87,242.33a8.85,8.85,0,1,0,8.84-8.46A8.68,8.68,0,0,0,244.87,242.33Z"/><path class="cls-11" d="M267.32,242c0-7.47-6.32-13.53-14.13-13.53a14.08,14.08,0,0,0-13.48,9.49,14.87,14.87,0,0,1,14.84-12c8.32,0,15.08,6.45,15.08,14.43a14.45,14.45,0,0,1-9.52,13.39A13.39,13.39,0,0,0,267.32,242Z"/><path class="cls-11" d="M253.86,235.37a3.71,3.71,0,1,0,3.72-3.55A3.63,3.63,0,0,0,253.86,235.37Z"/><path class="cls-11" d="M258.81,241.28a2.47,2.47,0,1,0,2.47-2.37A2.41,2.41,0,0,0,258.81,241.28Z"/><path class="cls-12" d="M323.39,75.62c-28.26-24.83-59.45-3.92-59,22.26,0,.55,18.43,15,23.32,19.26,5.42,4.7,19.45,10.77,20.19,10.86C327.62,130.34,351.64,100.45,323.39,75.62Z"/><path class="cls-2" d="M312.67,87.36c-13.38-13.64-35-12.63-41,15.47-.08.37,12.79,10.43,16.2,13.38,3.76,3.26,13.5,7.55,14,7.54C314.22,123.4,326.53,101.53,312.67,87.36Z"/><path class="cls-12" d="M101,130.36c.73-.11,14.63-6.46,19.94-11.26,4.8-4.34,22.9-19.18,22.88-19.74-.16-26.18-31.8-46.45-59.5-21S81.3,133.1,101,130.36Z"/><path class="cls-2" d="M107.79,125.87c.51,0,10.17-4.49,13.85-7.83,3.34-3,16-13.33,15.89-13.7-6.6-28-28.28-28.55-41.34-14.63C82.64,104.14,95.44,125.77,107.79,125.87Z"/><rect class="cls-13" width="400" height="400"/></g></g></svg>